<svg width="2757" height="1406" xmlns="http://www.w3.org/2000/svg" xmlns:xlink="http://www.w3.org/1999/xlink" xml:space="preserve" overflow="hidden"><defs><clipPath id="clip0"><rect x="1271" y="216" width="2757" height="1406"/></clipPath></defs><g clip-path="url(#clip0)" transform="translate(-1271 -216)"><rect x="1272" y="217" width="2754" height="1403" fill="#FFFFFF"/><g><path d="M1402.5 1163.54 3975.5 1163.54M1402.5 1008.53 3975.5 1008.53M1402.5 852.528 3975.5 852.528M1402.5 697.523 3975.5 697.523M1402.5 542.518 3975.5 542.518M1402.5 387.5 3975.5 387.5" stroke="#D9D9D9" stroke-width="3.4375" stroke-linejoin="round" stroke-miterlimit="10" fill="none"/></g><g><path d="M1402.5 1318.5 3975.5 1318.5" stroke="#D9D9D9" stroke-width="3.4375" stroke-linejoin="round" stroke-miterlimit="10" fill="none" fill-rule="evenodd"/></g><g><path d="M1404 1274.04 1405.05 1261.04 1407.05 1295.04 1409.05 1264.04 1411.05 1288.04 1413.05 1264.04 1414.05 1250.04 1416.05 1300.04 1418.05 1294.04 1420.05 1250.04 1422.05 1278.04 1424.05 1249.04 1425.05 1297.04 1427.05 1300.04 1429.05 1278.04 1431.05 1303.04 1433.05 1300.04 1435.05 1292.04 1436.05 1294.04 1438.05 1291.04 1440.05 1286.04 1442.05 1269.04 1444.05 1277.04 1446.05 1241.04 1447.05 1295.04 1449.05 1261.04 1451.05 1294.04 1453.05 1295.04 1455.05 1255.04 1456.05 1277.04 1458.05 1299.04 1460.05 1288.04 1462.05 1299.04 1464.05 1278.04 1466.05 1283.04 1467.05 1291.04 1469.05 1250.04 1471.05 1288.04 1473.05 1278.04 1475.05 1285.04 1477.05 1289.04 1478.05 1275.04 1480.05 1295.04 1482.05 1280.04 1484.05 1297.04 1486.05 1269.04 1488.05 1289.04 1489.05 1278.04 1491.05 1277.04 1493.05 1299.04 1495.05 1278.04 1497.05 1285.04 1499.05 1302.04 1500.05 1278.04 1502.05 1291.04 1504.05 1277.04 1506.05 1299.04 1508.05 1295.04 1509.05 1294.04 1511.05 1300.04 1513.05 1236.04 1515.05 1297.04 1517.05 1269.04 1519.05 1271.04 1520.05 1299.04 1522.05 1266.04 1524.05 1300.04 1526.05 1275.04 1528.05 1286.04 1530.05 1297.04 1531.05 1295.04 1533.05 1288.04 1535.05 1291.04 1537.05 1281.04 1539.05 1291.04 1541.05 1300.04 1542.05 1288.04 1544.05 1288.04 1546.05 1271.04 1548.05 1291.04 1550.05 1285.04 1552.05 1294.04 1553.05 1289.04 1555.05 1299.04 1557.05 1294.04 1559.05 1291.04 1561.05 1291.04 1562.05 1289.04 1564.05 1297.04 1566.05 1271.04 1568.05 1288.04 1570.05 1291.04 1572.05 1297.04 1573.05 1249.04 1575.05 1281.04 1577.05 1229.04 1579.05 1285.04 1581.05 1266.04 1583.05 1294.04 1584.05 1299.04 1586.05 1292.04 1588.05 1272.04 1590.05 1297.04 1592.05 1295.04 1594.05 1274.04 1595.05 1302.04 1597.05 1299.04 1599.05 1283.04 1601.05 1289.04 1603.05 1289.04 1605.05 1266.04 1606.05 1297.04 1608.05 1260.04 1610.05 1261.04 1612.05 1292.04 1614.05 1300.04 1615.05 1292.04 1617.05 1291.04 1619.05 1210.04 1621.05 1302.04 1623.05 1289.04 1625.05 1288.04 1626.05 1297.04 1628.05 1294.04 1630.05 1295.04 1632.05 1278.04 1634.05 1292.04 1636.05 1281.04 1637.05 1300.04 1639.05 1302.04 1641.05 1291.04 1643.05 1295.04 1645.05 1297.04 1647.05 1303.04 1648.05 1288.04 1650.05 1294.04 1652.05 1281.04 1654.05 1302.04 1656.05 1302.04 1657.05 1274.04 1659.05 1280.04 1661.05 1297.04 1663.05 1302.04 1665.05 1274.04 1667.05 1297.04 1668.05 1272.04 1670.05 1302.04 1672.05 1289.04 1674.05 1289.04 1676.05 1294.04 1678.06 1297.04 1679.06 1305.04 1681.06 1294.04 1683.06 1215.04 1685.06 1294.04 1687.06 1295.04 1689.06 1288.04 1690.06 1291.04 1692.06 1275.04 1694.06 1297.04 1696.06 1261.04 1698.06 1288.04 1700.06 1303.04 1701.06 1292.04 1703.06 1300.04 1705.06 1271.04 1707.06 1297.04 1709.06 1297.04 1710.06 1300.04 1712.06 1244.04 1714.06 1261.04 1716.06 1240.04 1718.06 1288.04 1720.06 1297.04 1721.06 1302.04 1723.06 1260.04 1725.06 1233.04 1727.06 1300.04 1729.06 1294.04 1731.06 1295.04 1732.06 1278.04 1734.06 1257.04 1736.06 1302.04 1738.06 1294.04 1740.06 1286.04 1742.06 1305.04 1743.06 1264.04 1745.06 1272.04 1747.06 1299.04 1749.06 1295.04 1751.06 1294.04 1753.06 1294.04 1754.06 1305.04 1756.06 1285.04 1758.06 1294.04 1760.06 1291.04 1762.06 1302.04 1763.06 1271.04 1765.06 1289.04 1767.06 1277.04 1769.06 1269.04 1771.06 1283.04 1773.06 1297.04 1774.06 1291.04 1776.06 1274.04 1778.06 1294.04 1780.06 1229.04 1782.06 1280.04 1784.06 1305.04 1785.06 1278.04 1787.06 1289.04 1789.06 1222.04 1791.06 1289.04 1793.06 1286.04 1795.06 1289.04 1796.06 1275.04 1798.06 1285.04 1800.06 1285.04 1802.06 1268.04 1804.06 1277.04 1806.06 1288.04 1807.06 1299.04 1809.06 1278.04 1811.06 1292.04 1813.06 1269.04 1815.06 1299.04 1816.06 1266.04 1818.06 1295.04 1820.06 1294.04 1822.06 1294.04 1824.06 1219.04 1826.06 1300.04 1827.06 1297.04 1829.06 1295.04 1831.06 1289.04 1833.06 1272.04 1835.06 1269.04 1837.06 1266.04 1838.06 1292.04 1840.06 1291.04 1842.06 1285.04 1844.06 1291.04 1846.06 1278.04 1848.06 1285.04 1849.06 1289.04 1851.06 1303.04 1853.06 1300.04 1855.06 1286.04 1857.06 1288.04 1859.06 1258.04 1860.06 1286.04 1862.06 1300.04 1864.06 1249.04 1866.06 1295.04 1868.06 1292.04 1869.06 1285.04 1871.06 1295.04 1873.06 1291.04 1875.06 1292.04 1877.06 1294.04 1879.06 1305.04 1880.06 1272.04 1882.06 1291.04 1884.06 1255.04 1886.06 1243.04 1888.06 1261.04 1890.06 1264.04 1891.06 1280.04 1893.06 1297.04 1895.06 1297.04 1897.06 1295.04 1899.06 1303.04 1901.06 1289.04 1902.06 1280.04 1904.06 1306 1906.06 1299.04 1908.06 1286.04 1910.06 1299.04 1911.06 1303.04 1913.06 1292.04 1915.06 1300.04 1917.06 1291.04 1919.06 1280.04 1921.06 1283.04 1922.06 1294.04 1924.06 1289.04 1926.06 1275.04 1928.06 1264.04 1930.06 1286.04 1932.06 1289.04 1933.06 1303.04 1935.06 1285.04 1937.06 1295.04 1939.06 1238.04 1941.06 1294.04 1943.06 1255.04 1944.06 1258.04 1946.06 1246.04 1948.06 1275.04 1950.06 1286.04 1952.06 1227.04 1954.06 1285.04 1955.06 1177.04 1957.06 1281.04 1959.06 1269.04 1961.06 1303.04 1963.06 1280.04 1964.06 1255.04 1966.06 1285.04 1968.06 1295.04 1970.06 1299.04 1972.06 1305.04 1974.06 1264.04 1975.06 1269.04 1977.06 1275.04 1979.06 1297.04 1981.06 1285.04 1983.07 1261.04 1985.07 1210.04 1986.07 1297.04 1988.07 1277.04 1990.07 1295.04 1992.07 1263.04 1994.07 1289.04 1996.07 1278.04 1997.07 1281.04 1999.07 1285.04 2001.07 1294.04 2003.07 1280.04 2005.07 1275.04 2007.07 1285.04 2008.07 1255.04 2010.07 1258.04 2012.07 1235.04 2014.07 1227.04 2016.07 1286.04 2017.07 1264.04 2019.07 1271.04 2021.07 1297.04 2023.07 1283.04 2025.07 1271.04 2027.07 1241.04 2028.07 1288.04 2030.07 1254.04 2032.07 1289.04 2034.07 1291.04 2036.07 1300.04 2038.07 1300.04 2039.07 1286.04 2041.07 1247.04 2043.07 1291.04 2045.07 1252.04 2047.07 1297.04 2049.07 1294.04 2050.07 1271.04 2052.07 1241.04 2054.07 1288.04 2056.07 1281.04 2058.07 1294.04 2060.07 1260.04 2061.07 1218.04 2063.07 1289.04 2065.07 1219.04 2067.07 1271.04 2069.07 1286.04 2070.07 1299.04 2072.07 1291.04 2074.07 1283.04 2076.07 1255.04 2078.07 1295.04 2080.07 1278.04 2081.07 1288.04 2083.07 1299.04 2085.07 1291.04 2087.07 1261.04 2089.07 1289.04 2091.07 1289.04 2092.07 1254.04 2094.07 1283.04 2096.07 1299.04 2098.07 1294.04 2100.07 1278.04 2102.07 1249.04 2103.07 1215.04 2105.07 1297.04 2107.07 1269.04 2109.07 1243.04 2111.07 1292.04 2113.07 1291.04 2114.07 1286.04 2116.07 1300.04 2118.07 1257.04 2120.07 1232.04 2122.07 1291.04 2123.07 1159.04 2125.07 1281.04 2127.07 1271.04 2129.07 1289.04 2131.07 1274.04 2133.07 1264.04 2134.07 1269.04 2136.07 1272.04 2138.07 1300.04 2140.07 1213.04 2142.07 1243.04 2144.07 1292.04 2145.07 1202.04 2147.07 1224.04 2149.07 1266.04 2151.07 1297.04 2153.07 1299.04 2155.07 1297.04 2156.07 1224.04 2158.07 1300.04 2160.07 1246.04 2162.07 1281.04 2164.07 1215.04 2165.07 1241.04 2167.07 1281.04 2169.07 1244.04 2171.07 1294.04 2173.07 1289.04 2175.07 1204.04 2176.07 1281.04 2178.07 1271.04 2180.07 1170.04 2182.07 1264.04 2184.07 1274.04 2186.07 1289.04 2187.07 1274.04 2189.07 1294.04 2191.07 1264.04 2193.07 1263.04 2195.07 1299.04 2197.07 1264.04 2198.07 1289.04 2200.07 1277.04 2202.07 1272.04 2204.07 1168.04 2206.07 1275.04 2208.07 1182.04 2209.07 1299.04 2211.07 1240.04 2213.07 1255.04 2215.07 1278.04 2217.07 1291.04 2218.07 1264.04 2220.07 1244.04 2222.07 1271.04 2224.07 1247.04 2226.07 1260.04 2228.07 1250.04 2229.07 1264.04 2231.07 1286.04 2233.07 1277.04 2235.07 1297.04 2237.07 1254.04 2239.07 1232.04 2240.07 1254.04 2242.07 1222.04 2244.07 1222.04 2246.07 1260.04 2248.07 1280.04 2250.07 1257.04 2251.07 1294.04 2253.07 1266.04 2255.07 1261.04 2257.07 1252.04 2259.07 1232.04 2261.07 1254.04 2262.07 1268.04 2264.07 1222.04 2266.07 1285.04 2268.07 1232.04 2270.07 1291.04 2271.07 1271.04 2273.07 1249.04 2275.07 1300.04 2277.07 1261.04 2279.07 1277.04 2281.07 1299.04 2282.07 1280.04 2284.07 1264.04 2286.07 1286.04 2288.08 1286.04 2290.08 1122.04 2292.08 1281.04 2293.08 1233.04 2295.08 1266.04 2297.08 1300.04 2299.08 1280.04 2301.08 1216.04 2303.08 1289.04 2304.08 1247.04 2306.08 1277.04 2308.08 1232.04 2310.08 1233.04 2312.08 1286.04 2314.08 1182.04 2315.08 1294.04 2317.08 1294.04 2319.08 1283.04 2321.08 1300.04 2323.08 1249.04 2324.08 1227.04 2326.08 1281.04 2328.08 1278.04 2330.08 1291.04 2332.08 1243.04 2334.08 1229.04 2335.08 1274.04 2337.08 1182.04 2339.08 1286.04 2341.08 1294.04 2343.08 1222.04 2345.08 1215.04 2346.08 1188.04 2348.08 1165.04 2350.08 1269.04 2352.08 1283.04 2354.08 1264.04 2356.08 1271.04 2357.08 1295.04 2359.08 1285.04 2361.08 1233.04 2363.08 1268.04 2365.08 1281.04 2366.08 1260.04 2368.08 1280.04 2370.08 1292.04 2372.08 1084.04 2374.08 1289.04 2376.08 1249.04 2377.08 1216.04 2379.08 1204.04 2381.08 1263.04 2383.08 1222.04 2385.08 1297.04 2387.08 1254.04 2388.08 1261.04 2390.08 1142.04 2392.08 1261.04 2394.08 1157.04 2396.08 1230.04 2398.08 1148.04 2399.08 1236.04 2401.08 1227.04 2403.08 1260.04 2405.08 1275.04 2407.08 1215.04 2409.08 1291.04 2410.08 1215.04 2412.08 1212.04 2414.08 1260.04 2416.08 1297.04 2418.08 1230.04 2419.08 1299.04 2421.08 1266.04 2423.08 1204.04 2425.08 1230.04 2427.08 1269.04 2429.08 1219.04 2430.08 1280.04 2432.08 1213.04 2434.08 1263.04 2436.08 1297.04 2438.08 1268.04 2440.08 1275.04 2441.08 1266.04 2443.08 1275.04 2445.08 1229.04 2447.08 1288.04 2449.08 1224.04 2451.08 1227.04 2452.08 1260.04 2454.08 1250.04 2456.08 1297.04 2458.08 1254.04 2460.08 1222.04 2462.08 1240.04 2463.08 1205.04 2465.08 1277.04 2467.08 1221.04 2469.08 1299.04 2471.08 1285.04 2472.08 1187.04 2474.08 1198.04 2476.08 1229.04 2478.08 1285.04 2480.08 1224.04 2482.08 1286.04 2483.08 1207.04 2485.08 1212.04 2487.08 1235.04 2489.08 1264.04 2491.08 1268.04 2493.08 1268.04 2494.08 1181.04 2496.08 1240.04 2498.08 1243.04 2500.08 1215.04 2502.08 1275.04 2504.08 1280.04 2505.08 1227.04 2507.08 1171.04 2509.08 1229.04 2511.08 1219.04 2513.08 1229.04 2515.08 1216.04 2516.08 1285.04 2518.08 1297.04 2520.08 1170.04 2522.08 1240.04 2524.08 1278.04 2525.08 1260.04 2527.08 1266.04 2529.08 1098.04 2531.08 1103.04 2533.08 1302.04 2535.08 1236.04 2536.08 1285.04 2538.08 1219.04 2540.08 1052.03 2542.08 1285.04 2544.08 1258.04 2546.08 1227.04 2547.08 1134.04 2549.08 1160.04 2551.08 1140.04 2553.08 1218.04 2555.08 1250.04 2557.08 1137.04 2558.08 1291.04 2560.08 1173.04 2562.08 1202.04 2564.08 1277.04 2566.08 1132.04 2568.08 1249.04 2569.08 1053.03 2571.08 1252.04 2573.08 1204.04 2575.08 1184.04 2577.08 1283.04 2578.08 1204.04 2580.08 1243.04 2582.08 1288.04 2584.08 1272.04 2586.08 1132.04 2588.08 1092.04 2589.08 1187.04 2591.08 1278.04 2593.08 1266.04 2595.08 1159.04 2597.09 1278.04 2599.09 1264.04 2600.09 1280.04 2602.09 1260.04 2604.09 1120.04 2606.09 1181.04 2608.09 1258.04 2610.09 1268.04 2611.09 1112.04 2613.09 988.032 2615.09 1154.04 2617.09 1218.04 2619.09 1257.04 2620.09 1181.04 2622.09 1281.04 2624.09 1258.04 2626.09 1249.04 2628.09 1227.04 2630.09 1036.03 2631.09 1210.04 2633.09 1205.04 2635.09 1025.03 2637.09 980.032 2639.09 1198.04 2641.09 1143.04 2642.09 1134.04 2644.09 1285.04 2646.09 1193.04 2648.09 1122.04 2650.09 1118.04 2652.09 1139.04 2653.09 1195.04 2655.09 1151.04 2657.09 1191.04 2659.09 1255.04 2661.09 1142.04 2663.09 1283.04 2664.09 1159.04 2666.09 1165.04 2668.09 1185.04 2670.09 1216.04 2672.09 1241.04 2673.09 1249.04 2675.09 1210.04 2677.09 1263.04 2679.09 1268.04 2681.09 1272.04 2683.09 1181.04 2684.09 1277.04 2686.09 1196.04 2688.09 1229.04 2690.09 1244.04 2692.09 1081.04 2694.09 1212.04 2695.09 1081.04 2697.09 1103.04 2699.09 1283.04 2701.09 1240.04 2703.09 1067.03 2705.09 1170.04 2706.09 1199.04 2708.09 1271.04 2710.09 1114.04 2712.09 1187.04 2714.09 1280.04 2716.09 1260.04 2717.09 1165.04 2719.09 1258.04 2721.09 1280.04 2723.09 1278.04 2725.09 1089.04 2726.09 1236.04 2728.09 1036.03 2730.09 1056.03 2732.09 1221.04 2734.09 1109.04 2736.09 1083.04 2737.09 1128.04 2739.09 1233.04 2741.09 1260.04 2743.09 1132.04 2745.09 1191.04 2747.09 966.032 2748.09 1233.04 2750.09 1125.04 2752.09 1264.04 2754.09 969.032 2756.09 1254.04 2758.09 1266.04 2759.09 1132.04 2761.09 929.03 2763.09 1227.04 2765.09 1010.03 2767.09 1103.04 2769.09 1030.03 2770.09 949.031 2772.09 1080.04 2774.09 1140.04 2776.09 1236.04 2778.09 1263.04 2779.09 1140.04 2781.09 1111.04 2783.09 904.03 2785.09 1274.04 2787.09 1103.04 2789.09 1094.04 2790.09 1246.04 2792.09 1136.04 2794.09 1236.04 2796.09 859.028 2798.09 1095.04 2800.09 1167.04 2801.09 1069.04 2803.09 1176.04 2805.09 1254.04 2807.09 1222.04 2809.09 1075.04 2811.09 1199.04 2812.09 993.033 2814.09 1145.04 2816.09 971.032 2818.09 920.03 2820.09 1181.04 2822.09 943.031 2823.09 1281.04 2825.09 1058.03 2827.09 1218.04 2829.09 1109.04 2831.09 1264.04 2832.09 1118.04 2834.09 1162.04 2836.09 1024.03 2838.09 1240.04 2840.09 969.032 2842.09 1016.03 2843.09 1236.04 2845.09 932.031 2847.09 1080.04 2849.09 1226.04 2851.09 851.028 2853.09 1143.04 2854.09 1238.04 2856.09 1153.04 2858.09 1087.04 2860.09 996.033 2862.09 1038.03 2864.09 1013.03 2865.09 822.027 2867.09 1167.04 2869.09 1046.03 2871.09 1227.04 2873.09 1236.04 2874.09 1258.04 2876.09 1114.04 2878.09 1230.04 2880.09 1044.03 2882.09 901.03 2884.09 1058.03 2885.09 1136.04 2887.09 1078.04 2889.09 1165.04 2891.09 1061.03 2893.09 1154.04 2895.09 1077.04 2896.09 1114.04 2898.1 870.029 2900.1 1205.04 2902.1 1128.04 2904.1 896.029 2906.1 839.028 2907.1 1174.04 2909.1 1179.04 2911.1 1151.04 2913.1 1018.03 2915.1 937.031 2917.1 1005.03 2918.1 1095.04 2920.1 954.031 2922.1 853.028 2924.1 1142.04 2926.1 1145.04 2927.1 1046.03 2929.1 1091.04 2931.1 1174.04 2933.1 718.024 2935.1 1025.03 2937.1 1083.04 2938.1 1047.03 2940.1 1075.04 2942.1 1184.04 2944.1 951.031 2946.1 1159.04 2948.1 1213.04 2949.1 861.028 2951.1 1167.04 2953.1 667.022 2955.1 1106.04 2957.1 1013.03 2959.1 909.03 2960.1 780.026 2962.1 1143.04 2964.1 952.031 2966.1 1160.04 2968.1 898.029 2970.1 1115.04 2971.1 1036.03 2973.1 904.03 2975.1 1011.03 2977.1 1067.03 2979.1 1193.04 2980.1 1179.04 2982.1 1185.04 2984.1 1055.03 2986.1 924.03 2988.1 1008.03 2990.1 1086.04 2991.1 1081.04 2993.1 1046.03 2995.1 960.031 2997.1 1240.04 2999.1 1056.03 3001.1 1035.03 3002.1 924.03 3004.1 1280.04 3006.1 867.028 3008.1 1095.04 3010.1 1125.04 3012.1 1089.04 3013.1 1129.04 3015.1 943.031 3017.1 1286.04 3019.1 1249.04 3021.1 827.027 3023.1 1219.04 3024.1 1165.04 3026.1 1086.04 3028.1 856.028 3030.1 1108.04 3032.1 1209.04 3033.1 1170.04 3035.1 1117.04 3037.1 1039.03 3039.1 1027.03 3041.1 1246.04 3043.1 1061.03 3044.1 1097.04 3046.1 1098.04 3048.1 987.032 3050.1 1019.03 3052.1 1005.03 3054.1 1114.04 3055.1 1128.04 3057.1 778.026 3059.1 1120.04 3061.1 836.027 3063.1 1159.04 3065.1 1108.04 3066.1 1081.04 3068.1 1010.03 3070.1 1091.04 3072.1 1087.04 3074.1 1198.04 3075.1 1111.04 3077.1 1067.03 3079.1 1145.04 3081.1 912.03 3083.1 1139.04 3085.1 912.03 3086.1 1174.04 3088.1 1013.03 3090.1 1103.04 3092.1 976.032 3094.1 842.028 3096.1 1087.04 3097.1 1249.04 3099.1 873.029 3101.1 816.027 3103.1 1047.03 3105.1 1005.03 3107.1 1174.04 3108.1 909.03 3110.1 1134.04 3112.1 1005.03 3114.1 1056.03 3116.1 959.031 3118.1 1131.04 3119.1 906.03 3121.1 954.031 3123.1 1025.03 3125.1 754.025 3127.1 1174.04 3128.1 865.028 3130.1 1151.04 3132.1 965.032 3134.1 1238.04 3136.1 873.029 3138.1 810.027 3139.1 994.033 3141.1 1207.04 3143.1 882.029 3145.1 1167.04 3147.1 1094.04 3149.1 948.031 3150.1 786.026 3152.1 1086.04 3154.1 1140.04 3156.1 684.022 3158.1 1112.04 3160.1 1049.03 3161.1 1081.04 3163.1 1036.03 3165.1 1039.03 3167.1 869.029 3169.1 1111.04 3171.1 1069.04 3172.1 1086.04 3174.1 834.027 3176.1 990.032 3178.1 1064.03 3180.1 1123.04 3181.1 1091.04 3183.1 903.03 3185.1 1056.03 3187.1 786.026 3189.1 994.033 3191.1 1163.04 3192.1 999.033 3194.1 1117.04 3196.1 1105.04 3198.1 1069.04 3200.1 1221.04 3202.1 1092.04 3203.1 881.029 3205.1 687.023 3207.11 962.032 3209.11 1089.04 3211.11 1011.03 3213.11 786.026 3214.11 1038.03 3216.11 999.033 3218.11 987.032 3220.11 1036.03 3222.11 1184.04 3224.11 1118.04 3225.11 814.027 3227.11 889.029 3229.11 1064.03 3231.11 1108.04 3233.11 876.029 3234.11 1244.04 3236.11 1160.04 3238.11 940.031 3240.11 1022.03 3242.11 833.027 3244.11 1112.04 3245.11 1160.04 3247.11 1069.04 3249.11 1035.03 3251.11 968.032 3253.11 932.031 3255.11 543 3256.11 543 3258.11 1033.03 3260.11 702.023 3262.11 875.029 3264.11 963.032 3266.11 778.026 3267.11 727.024 3269.11 651.021 3271.11 1061.03 3273.11 915.03 3275.11 977.032 3277.11 1041.03 3278.11 977.032 3280.11 861.028 3282.11 1010.03 3284.11 1108.04 3286.11 1011.03 3287.11 869.029 3289.11 1016.03 3291.11 1118.04 3293.11 1148.04 3295.11 837.027 3297.11 543 3298.11 973.032 3300.11 1235.04 3302.11 920.03 3304.11 960.031 3306.11 839.028 3308.11 1053.03 3309.11 828.027 3311.11 639.021 3313.11 938.031 3315.11 543 3317.11 792.026 3319.11 650.021 3320.11 893.029 3322.11 1014.03 3324.11 701.023 3326.11 684.022 3328.11 876.029 3329.11 1058.03 3331.11 830.027 3333.11 909.03 3335.11 957.031 3337.11 940.031 3339.11 730.024 3340.11 924.03 3342.11 1218.04 3344.11 1187.04 3346.11 813.027 3348.11 679.022 3350.11 1049.03 3351.11 1073.04 3353.11 1084.04 3355.11 898.029 3357.11 1120.04 3359.11 1050.03 3361.11 713.023 3362.11 1134.04 3364.11 830.027 3366.11 763.025 3368.11 1036.03 3370.11 1025.03 3372.11 783.026 3373.11 682.022 3375.11 1036.03 3377.11 1042.03 3379.11 747.024 3381.11 825.027 3382.11 999.033 3384.11 543 3386.11 1143.04 3388.11 727.024 3390.11 1008.03 3392.11 1143.04 3393.11 861.028 3395.11 912.03 3397.11 841.028 3399.11 685.022 3401.11 831.027 3403.11 744.024 3404.11 985.032 3406.11 726.024 3408.11 977.032 3410.11 1007.03 3412.11 805.026 3414.11 926.03 3415.11 968.032 3417.11 952.031 3419.11 660.022 3421.11 1179.04 3423.11 543 3425.11 987.032 3426.11 1115.04 3428.11 543 3430.11 605.02 3432.11 1014.03 3434.11 653.021 3435.11 982.032 3437.11 743.024 3439.11 987.032 3441.11 1075.04 3443.11 872.029 3445.11 543 3446.11 914.03 3448.11 678.022 3450.11 858.028 3452.11 855.028 3454.11 991.032 3456.11 543 3457.11 1103.04 3459.11 828.027 3461.11 1021.03 3463.11 946.031 3465.11 915.03 3467.11 949.031 3468.11 987.032 3470.11 662.022 3472.11 1028.03 3474.11 1044.03 3476.11 1067.03 3478.11 543 3479.11 1044.03 3481.11 1097.04 3483.11 702.023 3485.11 1157.04 3487.11 1069.04 3488.11 915.03 3490.11 828.027 3492.11 1160.04 3494.11 1165.04 3496.11 820.027 3498.11 882.029 3499.11 867.028 3501.11 730.024 3503.11 1255.04 3505.12 786.026 3507.12 659.022 3509.12 727.024 3510.12 1123.04 3512.12 1196.04 3514.12 754.025 3516.12 820.027 3518.12 543 3520.12 684.022 3521.12 819.027 3523.12 904.03 3525.12 1098.04 3527.12 876.029 3529.12 937.031 3531.12 904.03 3532.12 614.02 3534.12 634.021 3536.12 900.03 3538.12 935.031 3540.12 600.02 3541.12 727.024 3543.12 642.021 3545.12 766.025 3547.12 543 3549.12 543 3551.12 955.031 3552.12 1041.03 3554.12 791.026 3556.12 619.02 3558.12 932.031 3560.12 973.032 3562.12 738.024 3563.12 1098.04 3565.12 605.02 3567.12 543 3569.12 836.027 3571.12 955.031 3573.12 921.03 3574.12 800.026 3576.12 1066.03 3578.12 543 3580.12 543 3582.12 1162.04 3583.12 869.029 3585.12 850.028 3587.12 1038.03 3589.12 884.029 3591.12 1016.03 3593.12 570.019 3594.12 1092.04 3596.12 952.031 3598.12 862.028 3600.12 737.024 3602.12 543 3604.12 709.023 3605.12 543 3607.12 738.024 3609.12 820.027 3611.12 921.03 3613.12 543 3615.12 620.02 3616.12 718.024 3618.12 959.031 3620.12 845.028 3622.12 752.025 3624.12 595.02 3626.12 802.026 3627.12 982.032 3629.12 543 3631.12 965.032 3633.12 934.031 3635.12 924.03 3636.12 861.028 3638.12 839.028 3640.12 1050.03 3642.12 1174.04 3644.12 543 3646.12 890.029 3647.12 758.025 3649.12 792.026 3651.12 856.028 3653.12 1146.04 3655.12 543 3657.12 653.021 3658.12 543 3660.12 543 3662.12 1061.03 3664.12 889.029 3666.12 782.026 3668.12 997.033 3669.12 1150.04 3671.12 1081.04 3673.12 1100.04 3675.12 543 3677.12 965.032 3679.12 574.019 3680.12 738.024 3682.12 543 3684.12 543 3686.12 678.022 3688.12 543 3689.12 917.03 3691.12 543 3693.12 766.025 3695.12 558.018 3697.12 803.026 3699.12 543 3700.12 1176.04 3702.12 543 3704.12 965.032 3706.12 900.03 3708.12 543 3710.12 543 3711.12 921.03 3713.12 560.018 3715.12 769.025 3717.12 543 3719.12 543 3721.12 778.026 3722.12 614.02 3724.12 1100.04 3726.12 938.031 3728.12 1063.03 3730.12 597.02 3732.12 896.029 3733.12 543 3735.12 681.022 3737.12 892.029 3739.12 699.023 3741.12 797.026 3742.12 617.02 3744.12 937.031 3746.12 1126.04 3748.12 1100.04 3750.12 873.029 3752.12 827.027 3753.12 1000.03 3755.12 789.026 3757.12 543 3759.12 543 3761.12 600.02 3763.12 543 3764.12 681.022 3766.12 761.025 3768.12 552.018 3770.12 837.027 3772.12 735.024 3774.12 1142.04 3775.12 1261.04 3777.12 693.023 3779.12 690.023 3781.12 1117.04 3783.12 588.019 3784.12 810.027 3786.12 884.029 3788.12 543 3790.12 693.023 3792.12 1095.04 3794.12 862.028 3795.12 701.023 3797.12 1137.04 3799.12 791.026 3801.12 707.023 3803.12 615.02 3805.12 979.032 3806.12 912.03 3808.12 650.021 3810.12 827.027 3812.12 1095.04 3814.12 660.022 3816.12 634.021 3817.12 715.023 3819.13 918.03 3821.13 543 3823.13 890.029 3825.13 1137.04 3827.13 543 3828.13 924.03 3830.13 957.031 3832.13 735.024 3834.13 794.026 3836.13 667.022 3837.13 865.028 3839.13 889.029 3841.13 600.02 3843.13 903.03 3845.13 757.025 3847.13 543 3848.13 560.018 3850.13 558.018 3852.13 898.029 3854.13 543 3856.13 1028.03 3858.13 955.031 3859.13 1196.04 3861.13 1008.03 3863.13 1064.03 3865.13 543 3867.13 671.022 3869.13 1070.04 3870.13 667.022 3872.13 990.032 3874.13 945.031 3876.13 920.03 3878.13 543 3880.13 870.029 3881.13 764.025 3883.13 1128.04 3885.13 726.024 3887.13 910.03 3889.13 543 3890.13 876.029 3892.13 743.024 3894.13 543 3896.13 1067.03 3898.13 648.021 3900.13 543 3901.13 543 3903.13 1154.04 3905.13 828.027 3907.13 785.026 3909.13 660.022 3911.13 926.03 3912.13 1103.04 3914.13 910.03 3916.13 543 3918.13 665.022 3920.13 547.018 3922.13 802.026 3923.13 906.03 3925.13 876.029 3927.13 673.022 3929.13 816.027 3931.13 855.028 3933.13 968.032 3934.13 549.018 3936.13 543 3938.13 543 3940.13 954.031 3942.13 690.023 3943.13 963.032 3945.13 1032.03 3947.13 1032.03 3949.13 543 3951.13 543 3953.13 990.032 3954.13 769.025 3956.13 575.019 3958.13 543 3960.13 738.024 3962.13 727.024 3964.13 718.024 3965.13 543 3967.13 671.022 3969.13 543 3971.13 645.021 3973.13 543 3975 586.019" stroke="#4472C4" stroke-width="10.3125" stroke-linecap="round" stroke-linejoin="round" stroke-miterlimit="10" fill="none"/></g><g><text fill="#595959" font-family="Calibri,Calibri_MSFontService,sans-serif" font-weight="400" font-size="41" transform="matrix(1 0 0 1 1343.47 1330)">0</text></g><g><text fill="#595959" font-family="Calibri,Calibri_MSFontService,sans-serif" font-weight="400" font-size="41" transform="matrix(1 0 0 1 1301.67 1175)">100</text></g><g><text fill="#595959" font-family="Calibri,Calibri_MSFontService,sans-serif" font-weight="400" font-size="41" transform="matrix(1 0 0 1 1301.67 1020)">200</text></g><g><text fill="#595959" font-family="Calibri,Calibri_MSFontService,sans-serif" font-weight="400" font-size="41" transform="matrix(1 0 0 1 1301.67 865)">300</text></g><g><text fill="#595959" font-family="Calibri,Calibri_MSFontService,sans-serif" font-weight="400" font-size="41" transform="matrix(1 0 0 1 1301.67 709)">400</text></g><g><text fill="#595959" font-family="Calibri,Calibri_MSFontService,sans-serif" font-weight="400" font-size="41" transform="matrix(1 0 0 1 1301.67 554)">500</text></g><g><text fill="#595959" font-family="Calibri,Calibri_MSFontService,sans-serif" font-weight="400" font-size="41" transform="matrix(1 0 0 1 1301.67 399)">600</text></g><g><text fill="#595959" font-family="Calibri,Calibri_MSFontService,sans-serif" font-weight="400" font-size="41" transform="matrix(6.12323e-17 -1 1 6.12323e-17 1417.37 1387)">16</text></g><g><text fill="#595959" font-family="Calibri,Calibri_MSFontService,sans-serif" font-weight="400" font-size="41" transform="matrix(6.12323e-17 -1 1 6.12323e-17 1468.54 1408)">712</text></g><g><text fill="#595959" font-family="Calibri,Calibri_MSFontService,sans-serif" font-weight="400" font-size="41" transform="matrix(6.12323e-17 -1 1 6.12323e-17 1519.71 1429)">1353</text></g><g><text fill="#595959" font-family="Calibri,Calibri_MSFontService,sans-serif" font-weight="400" font-size="41" transform="matrix(6.12323e-17 -1 1 6.12323e-17 1570.87 1429)">1927</text></g><g><text fill="#595959" font-family="Calibri,Calibri_MSFontService,sans-serif" font-weight="400" font-size="41" transform="matrix(6.12323e-17 -1 1 6.12323e-17 1622.04 1429)">2545</text></g><g><text fill="#595959" font-family="Calibri,Calibri_MSFontService,sans-serif" font-weight="400" font-size="41" transform="matrix(6.12323e-17 -1 1 6.12323e-17 1673.21 1429)">3107</text></g><g><text fill="#595959" font-family="Calibri,Calibri_MSFontService,sans-serif" font-weight="400" font-size="41" transform="matrix(6.12323e-17 -1 1 6.12323e-17 1724.37 1429)">3667</text></g><g><text fill="#595959" font-family="Calibri,Calibri_MSFontService,sans-serif" font-weight="400" font-size="41" transform="matrix(6.12323e-17 -1 1 6.12323e-17 1775.54 1429)">4309</text></g><g><text fill="#595959" font-family="Calibri,Calibri_MSFontService,sans-serif" font-weight="400" font-size="41" transform="matrix(6.12323e-17 -1 1 6.12323e-17 1826.71 1429)">4995</text></g><g><text fill="#595959" font-family="Calibri,Calibri_MSFontService,sans-serif" font-weight="400" font-size="41" transform="matrix(6.12323e-17 -1 1 6.12323e-17 1877.87 1429)">5618</text></g><g><text fill="#595959" font-family="Calibri,Calibri_MSFontService,sans-serif" font-weight="400" font-size="41" transform="matrix(6.12323e-17 -1 1 6.12323e-17 1929.04 1429)">6206</text></g><g><text fill="#595959" font-family="Calibri,Calibri_MSFontService,sans-serif" font-weight="400" font-size="41" transform="matrix(6.12323e-17 -1 1 6.12323e-17 1980.21 1429)">7017</text></g><g><text fill="#595959" font-family="Calibri,Calibri_MSFontService,sans-serif" font-weight="400" font-size="41" transform="matrix(6.12323e-17 -1 1 6.12323e-17 2031.37 1429)">7802</text></g><g><text fill="#595959" font-family="Calibri,Calibri_MSFontService,sans-serif" font-weight="400" font-size="41" transform="matrix(6.12323e-17 -1 1 6.12323e-17 2082.54 1429)">8625</text></g><g><text fill="#595959" font-family="Calibri,Calibri_MSFontService,sans-serif" font-weight="400" font-size="41" transform="matrix(6.12323e-17 -1 1 6.12323e-17 2133.71 1429)">9343</text></g><g><text fill="#595959" font-family="Calibri,Calibri_MSFontService,sans-serif" font-weight="400" font-size="41" transform="matrix(6.12323e-17 -1 1 6.12323e-17 2184.87 1449)">10410</text></g><g><text fill="#595959" font-family="Calibri,Calibri_MSFontService,sans-serif" font-weight="400" font-size="41" transform="matrix(6.12323e-17 -1 1 6.12323e-17 2236.04 1449)">11438</text></g><g><text fill="#595959" font-family="Calibri,Calibri_MSFontService,sans-serif" font-weight="400" font-size="41" transform="matrix(6.12323e-17 -1 1 6.12323e-17 2287.21 1449)">12511</text></g><g><text fill="#595959" font-family="Calibri,Calibri_MSFontService,sans-serif" font-weight="400" font-size="41" transform="matrix(6.12323e-17 -1 1 6.12323e-17 2338.37 1449)">13514</text></g><g><text fill="#595959" font-family="Calibri,Calibri_MSFontService,sans-serif" font-weight="400" font-size="41" transform="matrix(6.12323e-17 -1 1 6.12323e-17 2389.54 1449)">14734</text></g><g><text fill="#595959" font-family="Calibri,Calibri_MSFontService,sans-serif" font-weight="400" font-size="41" transform="matrix(6.12323e-17 -1 1 6.12323e-17 2440.71 1449)">16218</text></g><g><text fill="#595959" font-family="Calibri,Calibri_MSFontService,sans-serif" font-weight="400" font-size="41" transform="matrix(6.12323e-17 -1 1 6.12323e-17 2491.87 1449)">17448</text></g><g><text fill="#595959" font-family="Calibri,Calibri_MSFontService,sans-serif" font-weight="400" font-size="41" transform="matrix(6.12323e-17 -1 1 6.12323e-17 2543.04 1449)">18838</text></g><g><text fill="#595959" font-family="Calibri,Calibri_MSFontService,sans-serif" font-weight="400" font-size="41" transform="matrix(6.12323e-17 -1 1 6.12323e-17 2594.21 1449)">20974</text></g><g><text fill="#595959" font-family="Calibri,Calibri_MSFontService,sans-serif" font-weight="400" font-size="41" transform="matrix(6.12323e-17 -1 1 6.12323e-17 2645.37 1449)">22995</text></g><g><text fill="#595959" font-family="Calibri,Calibri_MSFontService,sans-serif" font-weight="400" font-size="41" transform="matrix(6.12323e-17 -1 1 6.12323e-17 2696.54 1449)">25396</text></g><g><text fill="#595959" font-family="Calibri,Calibri_MSFontService,sans-serif" font-weight="400" font-size="41" transform="matrix(6.12323e-17 -1 1 6.12323e-17 2747.71 1449)">27735</text></g><g><text fill="#595959" font-family="Calibri,Calibri_MSFontService,sans-serif" font-weight="400" font-size="41" transform="matrix(6.12323e-17 -1 1 6.12323e-17 2798.87 1449)">31249</text></g><g><text fill="#595959" font-family="Calibri,Calibri_MSFontService,sans-serif" font-weight="400" font-size="41" transform="matrix(6.12323e-17 -1 1 6.12323e-17 2850.04 1449)">34700</text></g><g><text fill="#595959" font-family="Calibri,Calibri_MSFontService,sans-serif" font-weight="400" font-size="41" transform="matrix(6.12323e-17 -1 1 6.12323e-17 2901.21 1449)">38851</text></g><g><text fill="#595959" font-family="Calibri,Calibri_MSFontService,sans-serif" font-weight="400" font-size="41" transform="matrix(6.12323e-17 -1 1 6.12323e-17 2952.37 1449)">43713</text></g><g><text fill="#595959" font-family="Calibri,Calibri_MSFontService,sans-serif" font-weight="400" font-size="41" transform="matrix(6.12323e-17 -1 1 6.12323e-17 3003.54 1449)">48841</text></g><g><text fill="#595959" font-family="Calibri,Calibri_MSFontService,sans-serif" font-weight="400" font-size="41" transform="matrix(6.12323e-17 -1 1 6.12323e-17 3054.7 1449)">53100</text></g><g><text fill="#595959" font-family="Calibri,Calibri_MSFontService,sans-serif" font-weight="400" font-size="41" transform="matrix(6.12323e-17 -1 1 6.12323e-17 3105.87 1449)">57691</text></g><g><text fill="#595959" font-family="Calibri,Calibri_MSFontService,sans-serif" font-weight="400" font-size="41" transform="matrix(6.12323e-17 -1 1 6.12323e-17 3157.04 1449)">63324</text></g><g><text fill="#595959" font-family="Calibri,Calibri_MSFontService,sans-serif" font-weight="400" font-size="41" transform="matrix(6.12323e-17 -1 1 6.12323e-17 3208.2 1449)">68917</text></g><g><text fill="#595959" font-family="Calibri,Calibri_MSFontService,sans-serif" font-weight="400" font-size="41" transform="matrix(6.12323e-17 -1 1 6.12323e-17 3259.37 1449)">74380</text></g><g><text fill="#595959" font-family="Calibri,Calibri_MSFontService,sans-serif" font-weight="400" font-size="41" transform="matrix(6.12323e-17 -1 1 6.12323e-17 3310.54 1449)">81463</text></g><g><text fill="#595959" font-family="Calibri,Calibri_MSFontService,sans-serif" font-weight="400" font-size="41" transform="matrix(6.12323e-17 -1 1 6.12323e-17 3361.7 1449)">89372</text></g><g><text fill="#595959" font-family="Calibri,Calibri_MSFontService,sans-serif" font-weight="400" font-size="41" transform="matrix(6.12323e-17 -1 1 6.12323e-17 3412.87 1449)">96571</text></g><g><text fill="#595959" font-family="Calibri,Calibri_MSFontService,sans-serif" font-weight="400" font-size="41" transform="matrix(6.12323e-17 -1 1 6.12323e-17 3464.04 1470)">105092</text></g><g><text fill="#595959" font-family="Calibri,Calibri_MSFontService,sans-serif" font-weight="400" font-size="41" transform="matrix(6.12323e-17 -1 1 6.12323e-17 3515.2 1470)">112099</text></g><g><text fill="#595959" font-family="Calibri,Calibri_MSFontService,sans-serif" font-weight="400" font-size="41" transform="matrix(6.12323e-17 -1 1 6.12323e-17 3566.37 1470)">121278</text></g><g><text fill="#595959" font-family="Calibri,Calibri_MSFontService,sans-serif" font-weight="400" font-size="41" transform="matrix(6.12323e-17 -1 1 6.12323e-17 3617.54 1470)">129876</text></g><g><text fill="#595959" font-family="Calibri,Calibri_MSFontService,sans-serif" font-weight="400" font-size="41" transform="matrix(6.12323e-17 -1 1 6.12323e-17 3668.7 1470)">138960</text></g><g><text fill="#595959" font-family="Calibri,Calibri_MSFontService,sans-serif" font-weight="400" font-size="41" transform="matrix(6.12323e-17 -1 1 6.12323e-17 3719.87 1470)">149040</text></g><g><text fill="#595959" font-family="Calibri,Calibri_MSFontService,sans-serif" font-weight="400" font-size="41" transform="matrix(6.12323e-17 -1 1 6.12323e-17 3771.04 1470)">158533</text></g><g><text fill="#595959" font-family="Calibri,Calibri_MSFontService,sans-serif" font-weight="400" font-size="41" transform="matrix(6.12323e-17 -1 1 6.12323e-17 3822.2 1470)">168138</text></g><g><text fill="#595959" font-family="Calibri,Calibri_MSFontService,sans-serif" font-weight="400" font-size="41" transform="matrix(6.12323e-17 -1 1 6.12323e-17 3873.37 1470)">177889</text></g><g><text fill="#595959" font-family="Calibri,Calibri_MSFontService,sans-serif" font-weight="400" font-size="41" transform="matrix(6.12323e-17 -1 1 6.12323e-17 3924.54 1470)">186893</text></g><g><text fill="#595959" font-family="Calibri,Calibri_MSFontService,sans-serif" font-weight="400" font-size="41" transform="matrix(6.12323e-17 -1 1 6.12323e-17 3975.7 1470)">196769</text></g><g><text fill="#595959" font-family="Calibri,Calibri_MSFontService,sans-serif" font-weight="400" font-size="64" transform="matrix(1 0 0 1 2569.1 1545)">Timestep</text></g><g><text fill="#595959" font-family="Calibri,Calibri_MSFontService,sans-serif" font-weight="400" font-size="64" transform="matrix(1 0 0 1 2556.82 313)">reward</text></g><rect x="1272.5" y="217.5" width="2754" height="1403" stroke="#D9D9D9" stroke-width="3.4375" stroke-linejoin="round" stroke-miterlimit="10" fill="none"/></g></svg>