<svg width="2559" height="1392" xmlns="http://www.w3.org/2000/svg" xmlns:xlink="http://www.w3.org/1999/xlink" xml:space="preserve" overflow="hidden"><defs><clipPath id="clip0"><rect x="1194" y="84" width="2559" height="1392"/></clipPath></defs><g clip-path="url(#clip0)" transform="translate(-1194 -84)"><rect x="1195" y="84.9999" width="2556" height="1389" fill="#FFFFFF"/><g><path d="M1325.5 1020.53 3700.5 1020.53M1325.5 867.529 3700.5 867.529M1325.5 714.524 3700.5 714.524M1325.5 561.519 3700.5 561.519M1325.5 408.514 3700.5 408.514M1325.5 255.5 3700.5 255.5" stroke="#D9D9D9" stroke-width="3.4375" stroke-linejoin="round" stroke-miterlimit="10" fill="none"/></g><g><path d="M1325.5 1173.5 3700.5 1173.5" stroke="#D9D9D9" stroke-width="3.4375" stroke-linejoin="round" stroke-miterlimit="10" fill="none" fill-rule="evenodd"/></g><g><path d="M1326 1152.04 1327.04 1149.04 1327.04 1156.04 1328.04 1145.04 1328.04 1121.04 1329.04 1158.04 1330.04 1126.04 1330.04 1132.04 1331.04 1152.04 1332.04 1110.04 1332.04 1136.04 1333.04 1155.04 1333.04 1116.04 1334.04 1159.04 1335.04 1142.04 1335.04 1150.04 1336.04 1133.04 1337.04 1112.04 1337.04 1138.04 1338.04 1153.04 1339.04 1145.04 1339.04 1145.04 1340.04 1159.04 1340.04 1156.04 1341.04 1141.04 1342.04 1144.04 1342.04 1145.04 1343.04 1136.04 1344.04 1158.04 1344.04 1138.04 1345.04 1129.04 1346.04 1149.04 1346.04 1150.04 1347.04 1145.04 1347.04 1133.04 1348.04 1138.04 1349.04 1152.04 1349.04 1158.04 1350.04 1144.04 1351.04 1126.04 1351.04 1149.04 1352.04 1139.04 1352.04 1136.04 1353.04 1089.04 1354.04 1142.04 1354.04 1150.04 1355.04 1147.04 1356.04 1113.04 1356.04 1139.04 1357.04 1150.04 1358.04 1149.04 1358.04 1156.04 1359.04 1116.04 1359.04 1145.04 1360.04 1155.04 1361.04 1156.04 1361.04 1144.04 1362.04 1159.04 1363.04 1124.04 1363.04 1087.04 1364.04 1144.04 1364.04 1149.04 1365.04 1150.04 1366.04 1142.04 1366.04 1152.04 1367.04 1147.04 1368.04 1153.04 1368.04 1139.04 1369.04 1116.04 1370.05 1152.04 1370.05 1152.04 1371.05 1144.04 1371.05 1126.04 1372.05 1136.04 1373.05 1135.04 1373.05 1126.04 1374.05 1133.04 1375.05 1132.04 1375.05 1139.04 1376.05 1150.04 1376.05 1136.04 1377.05 1116.04 1378.05 1142.04 1378.05 1141.04 1379.05 1149.04 1380.05 1155.04 1380.05 1145.04 1381.05 1158.04 1382.05 1141.04 1382.05 1145.04 1383.05 1144.04 1383.05 1113.04 1384.05 1150.04 1385.05 1138.04 1385.05 1139.04 1386.05 1147.04 1387.05 1135.04 1387.05 1155.04 1388.05 1149.04 1388.05 1142.04 1389.05 1144.04 1390.05 1149.04 1390.05 1150.04 1391.05 1123.04 1392.05 1155.04 1392.05 1150.04 1393.05 1159.04 1394.05 1135.04 1394.05 1071.04 1395.05 1138.04 1395.05 1153.04 1396.05 1144.04 1397.05 1155.04 1397.05 1149.04 1398.05 1133.04 1399.05 1138.04 1399.05 1144.04 1400.05 1158.04 1400.05 1158.04 1401.05 1126.04 1402.05 1152.04 1402.05 1119.04 1403.05 1129.04 1404.05 1153.04 1404.05 1126.04 1405.05 1132.04 1406.05 1133.04 1406.05 1135.04 1407.05 1138.04 1407.05 1152.04 1408.05 1155.04 1409.05 1161 1409.05 1149.04 1410.05 1144.04 1411.05 1159.04 1411.05 1150.04 1412.05 1147.04 1413.05 1147.04 1413.05 1129.04 1414.05 1156.04 1414.05 1149.04 1415.05 1149.04 1416.05 1150.04 1416.05 1156.04 1417.05 1142.04 1418.05 1139.04 1418.05 1138.04 1419.05 1155.04 1419.05 1155.04 1420.05 1144.04 1421.05 1145.04 1421.05 1123.04 1422.05 1112.04 1423.05 1150.04 1423.05 1145.04 1424.05 1153.04 1425.05 1116.04 1425.05 1136.04 1426.05 1139.04 1426.05 1153.04 1427.05 1130.04 1428.05 1150.04 1428.05 1129.04 1429.05 1149.04 1430.05 1152.04 1430.05 1124.04 1431.05 1144.04 1431.05 1121.04 1432.05 1149.04 1433.05 1149.04 1433.05 1095.04 1434.05 1080.04 1435.05 1150.04 1435.05 1149.04 1436.05 1142.04 1437.05 1149.04 1437.05 1149.04 1438.05 1132.04 1438.05 1130.04 1439.05 1136.04 1440.05 1152.04 1440.05 1087.04 1441.05 1144.04 1442.05 1139.04 1442.05 1155.04 1443.05 1139.04 1443.05 1113.04 1444.05 1153.04 1445.05 1127.04 1445.05 1147.04 1446.05 1089.04 1447.05 1142.04 1447.05 1098.04 1448.05 1145.04 1449.05 1138.04 1449.05 1150.04 1450.05 1158.04 1450.05 1139.04 1451.05 1147.04 1452.05 1124.04 1452.05 1149.04 1453.05 1133.04 1454.05 1152.04 1454.05 1150.04 1455.05 1153.04 1455.05 1129.04 1456.05 1152.04 1457.05 1141.04 1457.05 1149.04 1458.05 1155.04 1459.05 1100.04 1459.05 1133.04 1460.05 1150.04 1461.05 1121.04 1461.05 1147.04 1462.05 1158.04 1462.05 1155.04 1463.05 1156.04 1464.05 1152.04 1464.05 1064.03 1465.05 1150.04 1466.05 1156.04 1466.05 1130.04 1467.05 1156.04 1468.05 1150.04 1468.05 1147.04 1469.05 1141.04 1469.05 1138.04 1470.05 1121.04 1471.05 1129.04 1471.05 1156.04 1472.05 1133.04 1473.05 1097.04 1473.05 1156.04 1474.05 1149.04 1474.05 1127.04 1475.05 1130.04 1476.05 1145.04 1476.05 1147.04 1477.05 1158.04 1478.05 1155.04 1478.05 1132.04 1479.05 1141.04 1480.05 1147.04 1480.05 1149.04 1481.05 1152.04 1481.05 1127.04 1482.05 1150.04 1483.05 1147.04 1483.05 1158.04 1484.05 1153.04 1485.05 1158.04 1485.05 1159.04 1486.05 1147.04 1486.05 1130.04 1487.05 1107.04 1488.05 1107.04 1488.05 1123.04 1489.05 1084.04 1490.05 1145.04 1490.05 1147.04 1491.05 1130.04 1492.05 1118.04 1492.05 1106.04 1493.05 1132.04 1493.05 1150.04 1494.05 1145.04 1495.05 1152.04 1495.05 1149.04 1496.05 1152.04 1497.05 1152.04 1497.05 1153.04 1498.05 1152.04 1498.05 1129.04 1499.05 1080.04 1500.05 1150.04 1500.05 1129.04 1501.05 1152.04 1502.05 1156.04 1502.05 1127.04 1503.05 1153.04 1504.05 1158.04 1504.05 1141.04 1505.05 1147.04 1505.05 1138.04 1506.05 1132.04 1507.05 1145.04 1507.05 1149.04 1508.05 1158.04 1509.05 1152.04 1509.05 1141.04 1510.05 1086.04 1510.05 1152.04 1511.05 1097.04 1512.05 1150.04 1512.05 1126.04 1513.05 1153.04 1514.05 1152.04 1514.05 1149.04 1515.05 1144.04 1516.05 1155.04 1516.05 1138.04 1517.05 1133.04 1517.05 1153.04 1518.05 1106.04 1519.05 1112.04 1519.05 1153.04 1520.05 1141.04 1521.05 1130.04 1521.05 1106.04 1522.05 1144.04 1522.05 1135.04 1523.05 1133.04 1524.05 1144.04 1524.05 1130.04 1525.05 1129.04 1526.05 1145.04 1526.05 1145.04 1527.05 1153.04 1528.05 1141.04 1528.05 1152.04 1529.05 1147.04 1529.05 1156.04 1530.05 1159.04 1531.05 1110.04 1531.05 1141.04 1532.05 1136.04 1533.05 1133.04 1533.05 1158.04 1534.05 1138.04 1535.05 1153.04 1535.05 1158.04 1536.05 1135.04 1536.05 1135.04 1537.05 1158.04 1538.05 1139.04 1538.05 1152.04 1539.05 1152.04 1540.05 1158.04 1540.05 1135.04 1541.05 1153.04 1541.05 1135.04 1542.05 1139.04 1543.05 1119.04 1543.05 1141.04 1544.05 1147.04 1545.05 1159.04 1545.05 1153.04 1546.05 1145.04 1547.05 1147.04 1547.05 1147.04 1548.05 1149.04 1548.05 1149.04 1549.05 1158.04 1550.05 1155.04 1550.05 1145.04 1551.05 1144.04 1552.05 1156.04 1552.05 1150.04 1553.05 1130.04 1553.05 1152.04 1554.05 1139.04 1555.05 1104.04 1555.05 1153.04 1556.05 1155.04 1557.05 1145.04 1557.05 1155.04 1558.05 1155.04 1559.05 1152.04 1559.05 1144.04 1560.05 1123.04 1560.05 1153.04 1561.05 1136.04 1562.05 1116.04 1562.05 1119.04 1563.05 1145.04 1564.05 1101.04 1564.05 1158.04 1565.05 1139.04 1565.05 1103.04 1566.05 1159.04 1567.05 1153.04 1567.05 1153.04 1568.05 1142.04 1569.05 1158.04 1569.05 1158.04 1570.05 1142.04 1571.05 1155.04 1571.05 1156.04 1572.05 1145.04 1572.05 1141.04 1573.05 1153.04 1574.05 1155.04 1574.05 1145.04 1575.05 1144.04 1576.05 1149.04 1576.05 1147.04 1577.05 1138.04 1577.05 1159.04 1578.05 1149.04 1579.05 1132.04 1579.05 1145.04 1580.05 1159.04 1581.05 1107.04 1581.05 1144.04 1582.05 1113.04 1583.05 1127.04 1583.05 1150.04 1584.05 1158.04 1584.05 1138.04 1585.05 1115.04 1586.05 1141.04 1586.05 1156.04 1587.05 1152.04 1588.05 1159.04 1588.05 1150.04 1589.05 1158.04 1589.05 1156.04 1590.05 1142.04 1591.05 1152.04 1591.05 1139.04 1592.05 1150.04 1593.05 1152.04 1593.05 1156.04 1594.05 1152.04 1595.05 1155.04 1595.05 1118.04 1596.05 1121.04 1596.05 1152.04 1597.05 1158.04 1598.05 1147.04 1598.05 1153.04 1599.05 1138.04 1600.05 1152.04 1600.05 1153.04 1601.05 1145.04 1602.05 1118.04 1602.05 1150.04 1603.05 1139.04 1603.05 1147.04 1604.05 1149.04 1605.05 1159.04 1605.05 1127.04 1606.05 1155.04 1607.05 1153.04 1607.05 1155.04 1608.05 1155.04 1608.05 1139.04 1609.05 1153.04 1610.05 1152.04 1610.05 1126.04 1611.05 1152.04 1612.05 1121.04 1612.05 1132.04 1613.05 1155.04 1614.05 1149.04 1614.05 1153.04 1615.05 1149.04 1615.05 1153.04 1616.05 1142.04 1617.05 1132.04 1617.05 1115.04 1618.05 1142.04 1619.05 1152.04 1619.05 1138.04 1620.05 1135.04 1620.05 1126.04 1621.05 1126.04 1622.05 1144.04 1622.05 1159.04 1623.05 1109.04 1624.05 1158.04 1624.05 1153.04 1625.05 1153.04 1626.05 1152.04 1626.05 1158.04 1627.05 1142.04 1627.05 1159.04 1628.05 1158.04 1629.05 1145.04 1629.05 1136.04 1630.05 1156.04 1631.05 1158.04 1631.05 1133.04 1632.05 1133.04 1632.05 1159.04 1633.05 1158.04 1634.05 1147.04 1634.05 1156.04 1635.05 1133.04 1636.05 1155.04 1636.05 1130.04 1637.05 1156.04 1638.05 1152.04 1638.05 1149.04 1639.05 1123.04 1639.05 1161 1640.05 1150.04 1641.05 1149.04 1641.05 1121.04 1642.05 1144.04 1643.05 1153.04 1643.05 1158.04 1644.05 1156.04 1644.05 1152.04 1645.05 1144.04 1646.05 1155.04 1646.05 1136.04 1647.05 1145.04 1648.05 1159.04 1648.05 1124.04 1649.05 1159.04 1650.05 1150.04 1650.05 1118.04 1651.05 1147.04 1651.05 1129.04 1652.05 1158.04 1653.05 1147.04 1653.05 1149.04 1654.05 1150.04 1655.05 1153.04 1655.05 1158.04 1656.05 1138.04 1657.05 1144.04 1657.05 1150.04 1658.05 1138.04 1658.05 1156.04 1659.05 1150.04 1660.05 1155.04 1660.05 1115.04 1661.05 1135.04 1662.05 1089.04 1662.05 1142.04 1663.05 1126.04 1663.05 1129.04 1664.05 1152.04 1665.05 1159.04 1665.05 1095.04 1666.05 1149.04 1667.05 1144.04 1667.05 1142.04 1668.05 1153.04 1669.05 1142.04 1669.05 1153.04 1670.05 1145.04 1670.05 1150.04 1671.05 1159.04 1672.05 1142.04 1672.05 1153.04 1673.05 1155.04 1674.05 1115.04 1674.05 1158.04 1675.05 1155.04 1675.05 1159.04 1676.06 1145.04 1677.06 1155.04 1677.06 1155.04 1678.06 1158.04 1679.06 1153.04 1679.06 1150.04 1680.06 1153.04 1681.06 1147.04 1681.06 1104.04 1682.06 1132.04 1682.06 1144.04 1683.06 1156.04 1684.06 1135.04 1684.06 1142.04 1685.06 1081.04 1686.06 1139.04 1686.06 1084.04 1687.06 1152.04 1687.06 1156.04 1688.06 1158.04 1689.06 1153.04 1689.06 1155.04 1690.06 1155.04 1691.06 1106.04 1691.06 1150.04 1692.06 1153.04 1693.06 1155.04 1693.06 1139.04 1694.06 1149.04 1694.06 1149.04 1695.06 1149.04 1696.06 1135.04 1696.06 1126.04 1697.06 1061.03 1698.06 1155.04 1698.06 1152.04 1699.06 1159.04 1699.06 1150.04 1700.06 1152.04 1701.06 1153.04 1701.06 1158.04 1702.06 1139.04 1703.06 1152.04 1703.06 1144.04 1704.06 1150.04 1705.06 1138.04 1705.06 1155.04 1706.06 1129.04 1706.06 1126.04 1707.06 1147.04 1708.06 1121.04 1708.06 1072.04 1709.06 1147.04 1710.06 1153.04 1710.06 1152.04 1711.06 1158.04 1711.06 1155.04 1712.06 1141.04 1713.06 1141.04 1713.06 1113.04 1714.06 1144.04 1715.06 1147.04 1715.06 1129.04 1716.06 1149.04 1717.06 1127.04 1717.06 1155.04 1718.06 1153.04 1718.06 1150.04 1719.06 1113.04 1720.06 1141.04 1720.06 1158.04 1721.06 1153.04 1722.06 1150.04 1722.06 1153.04 1723.06 1136.04 1724.06 1156.04 1724.06 1159.04 1725.06 1156.04 1725.06 1141.04 1726.06 1150.04 1727.06 1153.04 1727.06 1138.04 1728.06 1159.04 1729.06 1153.04 1729.06 1155.04 1730.06 1156.04 1730.06 1123.04 1731.06 1150.04 1732.06 1095.04 1732.06 1149.04 1733.06 1156.04 1734.06 1155.04 1734.06 1150.04 1735.06 1142.04 1736.06 1145.04 1736.06 1152.04 1737.06 1145.04 1737.06 1052.03 1738.06 1127.04 1739.06 1156.04 1739.06 1152.04 1740.06 1149.04 1741.06 1144.04 1741.06 1144.04 1742.06 1149.04 1742.06 1132.04 1743.06 1145.04 1744.06 1150.04 1744.06 1144.04 1745.06 1144.04 1746.06 1092.04 1746.06 1155.04 1747.06 1129.04 1748.06 1153.04 1748.06 1101.04 1749.06 1155.04 1749.06 1156.04 1750.06 1119.04 1751.06 1153.04 1751.06 1129.04 1752.06 1150.04 1753.06 1147.04 1753.06 1133.04 1754.06 1153.04 1754.06 1095.04 1755.06 1142.04 1756.06 1139.04 1756.06 1112.04 1757.06 1109.04 1758.06 1150.04 1758.06 1139.04 1759.06 1145.04 1760.06 1145.04 1760.06 1118.04 1761.06 1153.04 1761.06 1155.04 1762.06 1064.03 1763.06 1110.04 1763.06 1116.04 1764.06 1133.04 1765.06 1147.04 1765.06 1147.04 1766.06 1142.04 1766.06 1149.04 1767.06 1119.04 1768.06 1142.04 1768.06 1135.04 1769.06 1147.04 1770.06 1138.04 1770.06 1127.04 1771.06 1153.04 1772.06 1138.04 1772.06 1097.04 1773.06 1153.04 1773.06 1139.04 1774.06 1112.04 1775.06 1130.04 1775.06 1138.04 1776.06 1141.04 1777.06 1138.04 1777.06 1124.04 1778.06 1142.04 1779.06 1153.04 1779.06 1155.04 1780.06 1153.04 1780.06 1139.04 1781.06 1139.04 1782.06 1156.04 1782.06 1144.04 1783.06 1138.04 1784.06 1084.04 1784.06 1132.04 1785.06 1139.04 1785.06 1158.04 1786.06 1092.04 1787.06 1158.04 1787.06 1142.04 1788.06 1080.04 1789.06 1156.04 1789.06 1155.04 1790.06 1150.04 1791.06 1147.04 1791.06 1147.04 1792.06 1115.04 1792.06 1155.04 1793.06 1150.04 1794.06 1097.04 1794.06 1119.04 1795.06 1113.04 1796.06 1121.04 1796.06 1142.04 1797.06 1141.04 1797.06 1153.04 1798.06 1136.04 1799.06 1145.04 1799.06 1116.04 1800.06 1141.04 1801.06 1127.04 1801.06 1158.04 1802.06 1152.04 1803.06 1136.04 1803.06 1141.04 1804.06 1109.04 1804.06 1119.04 1805.06 1153.04 1806.06 1127.04 1806.06 1106.04 1807.06 1104.04 1808.06 1142.04 1808.06 1150.04 1809.06 1133.04 1809.06 1138.04 1810.06 1144.04 1811.06 1153.04 1811.06 1136.04 1812.06 1118.04 1813.06 1112.04 1813.06 1149.04 1814.06 1112.04 1815.06 1127.04 1815.06 1132.04 1816.06 1155.04 1816.06 1089.04 1817.06 1130.04 1818.06 1139.04 1818.06 1149.04 1819.06 1147.04 1820.06 1142.04 1820.06 1159.04 1821.06 1130.04 1821.06 1156.04 1822.06 1139.04 1823.06 1138.04 1823.06 1145.04 1824.06 1152.04 1825.06 1152.04 1825.06 1149.04 1826.06 1032.03 1827.06 1136.04 1827.06 1071.04 1828.06 1141.04 1828.06 1150.04 1829.06 1139.04 1830.06 1116.04 1830.06 1152.04 1831.06 1138.04 1832.06 1155.04 1832.06 1153.04 1833.06 1141.04 1833.06 1087.04 1834.06 1136.04 1835.06 1115.04 1835.06 1141.04 1836.06 1127.04 1837.06 1133.04 1837.06 1135.04 1838.06 1144.04 1839.06 1147.04 1839.06 1098.04 1840.06 1145.04 1840.06 1144.04 1841.06 1124.04 1842.06 1135.04 1842.06 1155.04 1843.06 1127.04 1844.06 1156.04 1844.06 1152.04 1845.06 1149.04 1846.06 1145.04 1846.06 1126.04 1847.06 1112.04 1847.06 1159.04 1848.06 1107.04 1849.06 1150.04 1849.06 1129.04 1850.06 1147.04 1851.06 1138.04 1851.06 1150.04 1852.06 1147.04 1852.06 1141.04 1853.06 1121.04 1854.06 1116.04 1854.06 1145.04 1855.06 1149.04 1856.06 1155.04 1856.06 1150.04 1857.06 1130.04 1858.06 1130.04 1858.06 1124.04 1859.06 1135.04 1859.06 1155.04 1860.06 1138.04 1861.06 1149.04 1861.06 1149.04 1862.06 1152.04 1863.06 1156.04 1863.06 1155.04 1864.06 1145.04 1864.06 1130.04 1865.06 1158.04 1866.06 1127.04 1866.06 1149.04 1867.06 1150.04 1868.06 1155.04 1868.06 1149.04 1869.06 1142.04 1870.06 1156.04 1870.06 1121.04 1871.06 1139.04 1871.06 1138.04 1872.06 1109.04 1873.06 1144.04 1873.06 1136.04 1874.06 1152.04 1875.06 1124.04 1875.06 1153.04 1876.06 1136.04 1876.06 1124.04 1877.06 1138.04 1878.06 1104.04 1878.06 1118.04 1879.06 1158.04 1880.06 1158.04 1880.06 1153.04 1881.06 1144.04 1882.06 1092.04 1882.06 1100.04 1883.06 1153.04 1883.06 1116.04 1884.06 1112.04 1885.06 1149.04 1885.06 1136.04 1886.06 1153.04 1887.06 1124.04 1887.06 1135.04 1888.06 1156.04 1888.06 1133.04 1889.06 1153.04 1890.06 1141.04 1890.06 1129.04 1891.06 1139.04 1892.06 1107.04 1892.06 1136.04 1893.06 1124.04 1894.06 1152.04 1894.06 1144.04 1895.06 1156.04 1895.06 1153.04 1896.06 1155.04 1897.06 1149.04 1897.06 1145.04 1898.06 1126.04 1899.06 1145.04 1899.06 1149.04 1900.06 1153.04 1901.06 1142.04 1901.06 1132.04 1902.06 1161 1902.06 1138.04 1903.06 1135.04 1904.06 1115.04 1904.06 1153.04 1905.06 1158.04 1906.06 1116.04 1906.06 1155.04 1907.06 1155.04 1907.06 1130.04 1908.06 1152.04 1909.06 1142.04 1909.06 1097.04 1910.06 1100.04 1911.06 1149.04 1911.06 1147.04 1912.06 1144.04 1913.06 1051.03 1913.06 1119.04 1914.06 1098.04 1914.06 1142.04 1915.06 1155.04 1916.06 1097.04 1916.06 1145.04 1917.06 1158.04 1918.06 1087.04 1918.06 1156.04 1919.06 1145.04 1919.06 1139.04 1920.06 1133.04 1921.06 1135.04 1921.06 1155.04 1922.06 1141.04 1923.06 1083.04 1923.06 1127.04 1924.06 1133.04 1925.06 1118.04 1925.06 1149.04 1926.06 1159.04 1926.06 1155.04 1927.06 1149.04 1928.06 1153.04 1928.06 1149.04 1929.06 1145.04 1930.06 1153.04 1930.06 1147.04 1931.06 1129.04 1931.06 1158.04 1932.06 1126.04 1933.06 1136.04 1933.06 1144.04 1934.06 1152.04 1935.06 1150.04 1935.06 1156.04 1936.06 1144.04 1937.06 1113.04 1937.06 1116.04 1938.06 1119.04 1938.06 1139.04 1939.06 1147.04 1940.06 1149.04 1940.06 1104.04 1941.06 1147.04 1942.06 1116.04 1942.06 1123.04 1943.06 1144.04 1943.06 1100.04 1944.06 1147.04 1945.06 1127.04 1945.06 1150.04 1946.06 1150.04 1947.06 1145.04 1947.06 1129.04 1948.06 1152.04 1949.06 1145.04 1949.06 1086.04 1950.06 1153.04 1950.06 1133.04 1951.06 1149.04 1952.06 1069.04 1952.06 1127.04 1953.06 1149.04 1954.06 1149.04 1954.06 1092.04 1955.06 1153.04 1955.06 1106.04 1956.06 1155.04 1957.06 1113.04 1957.06 1071.04 1958.06 1100.04 1959.06 1149.04 1959.06 1130.04 1960.06 1153.04 1961.06 1156.04 1961.06 1149.04 1962.06 1100.04 1962.06 1155.04 1963.06 1145.04 1964.06 1153.04 1964.06 1147.04 1965.06 1156.04 1966.06 1150.04 1966.06 1149.04 1967.06 1090.04 1968.06 1147.04 1968.06 1152.04 1969.06 1150.04 1969.06 1159.04 1970.06 1156.04 1971.06 1141.04 1971.06 1130.04 1972.06 1136.04 1973.06 1110.04 1973.06 1156.04 1974.06 1092.04 1974.06 1074.04 1975.06 1123.04 1976.06 1126.04 1976.06 1150.04 1977.06 1101.04 1978.06 1144.04 1978.06 1158.04 1979.06 1136.04 1980.06 1149.04 1980.06 1141.04 1981.07 1150.04 1981.07 1153.04 1982.07 1155.04 1983.07 1145.04 1983.07 1155.04 1984.07 1147.04 1985.07 1124.04 1985.07 1141.04 1986.07 1112.04 1986.07 1135.04 1987.07 1133.04 1988.07 1144.04 1988.07 1132.04 1989.07 1135.04 1990.07 1095.04 1990.07 1112.04 1991.07 1069.04 1992.07 1149.04 1992.07 1153.04 1993.07 1153.04 1993.07 1127.04 1994.07 1112.04 1995.07 1110.04 1995.07 1142.04 1996.07 1141.04 1997.07 1066.03 1997.07 1152.04 1998.07 1150.04 1998.07 1150.04 1999.07 1153.04 2000.07 1152.04 2000.07 1152.04 2001.07 1156.04 2002.07 1136.04 2002.07 1145.04 2003.07 1149.04 2004.07 1153.04 2004.07 1129.04 2005.07 1129.04 2005.07 1149.04 2006.07 1153.04 2007.07 1135.04 2007.07 1139.04 2008.07 1150.04 2009.07 1089.04 2009.07 1156.04 2010.07 1153.04 2010.07 1141.04 2011.07 1093.04 2012.07 1155.04 2012.07 1129.04 2013.07 1092.04 2014.07 1133.04 2014.07 1136.04 2015.07 1147.04 2016.07 1153.04 2016.07 1155.04 2017.07 1156.04 2017.07 1152.04 2018.07 1158.04 2019.07 1130.04 2019.07 1138.04 2020.07 1136.04 2021.07 1153.04 2021.07 1141.04 2022.07 1155.04 2023.07 1132.04 2023.07 1110.04 2024.07 1126.04 2024.07 1141.04 2025.07 1155.04 2026.07 1126.04 2026.07 1136.04 2027.07 1083.04 2028.07 1155.04 2028.07 1132.04 2029.07 1141.04 2029.07 1153.04 2030.07 1147.04 2031.07 1126.04 2031.07 1104.04 2032.07 1127.04 2033.07 1145.04 2033.07 1153.04 2034.07 1136.04 2035.07 1144.04 2035.07 1078.04 2036.07 1136.04 2036.07 1136.04 2037.07 1139.04 2038.07 1147.04 2038.07 1153.04 2039.07 1150.04 2040.07 1144.04 2040.07 1145.04 2041.07 1110.04 2041.07 1145.04 2042.07 1150.04 2043.07 1112.04 2043.07 1147.04 2044.07 1092.04 2045.07 1084.04 2045.07 1051.03 2046.07 1132.04 2047.07 1149.04 2047.07 1142.04 2048.07 1138.04 2048.07 1144.04 2049.07 1133.04 2050.07 1109.04 2050.07 1152.04 2051.07 1121.04 2052.07 1129.04 2052.07 1106.04 2053.07 1150.04 2053.07 1149.04 2054.07 1138.04 2055.07 1135.04 2055.07 1139.04 2056.07 1110.04 2057.07 1038.03 2057.07 1103.04 2058.07 1150.04 2059.07 1153.04 2059.07 1081.04 2060.07 1119.04 2060.07 1090.04 2061.07 1126.04 2062.07 1138.04 2062.07 1138.04 2063.07 1126.04 2064.07 1138.04 2064.07 1159.04 2065.07 1107.04 2065.07 1095.04 2066.07 1115.04 2067.07 1136.04 2067.07 1138.04 2068.07 1135.04 2069.07 1097.04 2069.07 1136.04 2070.07 1153.04 2071.07 1153.04 2071.07 1144.04 2072.07 1153.04 2072.07 1156.04 2073.07 1149.04 2074.07 1147.04 2074.07 1150.04 2075.07 1097.04 2076.07 1153.04 2076.07 1147.04 2077.07 1112.04 2077.07 1139.04 2078.07 1046.03 2079.07 1152.04 2079.07 1046.03 2080.07 1152.04 2081.07 1136.04 2081.07 1155.04 2082.07 1119.04 2083.07 1119.04 2083.07 1145.04 2084.07 1127.04 2084.07 1144.04 2085.07 1144.04 2086.07 1156.04 2086.07 1139.04 2087.07 1118.04 2088.07 1145.04 2088.07 1145.04 2089.07 1101.04 2090.07 1126.04 2090.07 1083.04 2091.07 1153.04 2091.07 1115.04 2092.07 1141.04 2093.07 1119.04 2093.07 1119.04 2094.07 1092.04 2095.07 1155.04 2095.07 1109.04 2096.07 1139.04 2096.07 1153.04 2097.07 1135.04 2098.07 1130.04 2098.07 1116.04 2099.07 1118.04 2100.07 1130.04 2100.07 1132.04 2101.07 1150.04 2102.07 1153.04 2102.07 1126.04 2103.07 1145.04 2103.07 1133.04 2104.07 1077.04 2105.07 1144.04 2105.07 1107.04 2106.07 1155.04 2107.07 1136.04 2107.07 1142.04 2108.07 1138.04 2108.07 1153.04 2109.07 1156.04 2110.07 1132.04 2110.07 1130.04 2111.07 1071.04 2112.07 1136.04 2112.07 1078.04 2113.07 1161 2114.07 1141.04 2114.07 1123.04 2115.07 1110.04 2115.07 1153.04 2116.07 1147.04 2117.07 1083.04 2117.07 1097.04 2118.07 1118.04 2119.07 1139.04 2119.07 1141.04 2120.07 1138.04 2120.07 1127.04 2121.07 1064.03 2122.07 1145.04 2122.07 1129.04 2123.07 1144.04 2124.07 1149.04 2124.07 1153.04 2125.07 1121.04 2126.07 1147.04 2126.07 1150.04 2127.07 1132.04 2127.07 1121.04 2128.07 1110.04 2129.07 1153.04 2129.07 1149.04 2130.07 1145.04 2131.07 1069.04 2131.07 1136.04 2132.07 1066.03 2132.07 1144.04 2133.07 1123.04 2134.07 1127.04 2134.07 1133.04 2135.07 1153.04 2136.07 1141.04 2136.07 1087.04 2137.07 1123.04 2138.07 1123.04 2138.07 1119.04 2139.07 1142.04 2139.07 1152.04 2140.07 1129.04 2141.07 1130.04 2141.07 1142.04 2142.07 1135.04 2143.07 1156.04 2143.07 1152.04 2144.07 1133.04 2145.07 1150.04 2145.07 1158.04 2146.07 1123.04 2146.07 1139.04 2147.07 1124.04 2148.07 1103.04 2148.07 1152.04 2149.07 1152.04 2150.07 1139.04 2150.07 1133.04 2151.07 1141.04 2151.07 1129.04 2152.07 1087.04 2153.07 1139.04 2153.07 1109.04 2154.07 1078.04 2155.07 1098.04 2155.07 1110.04 2156.07 1145.04 2157.07 1138.04 2157.07 1127.04 2158.07 1150.04 2158.07 1127.04 2159.07 1110.04 2160.07 1126.04 2160.07 1135.04 2161.07 1147.04 2162.07 1139.04 2162.07 1132.04 2163.07 1150.04 2163.07 1141.04 2164.07 1119.04 2165.07 1103.04 2165.07 1118.04 2166.07 1116.04 2167.07 1147.04 2167.07 1153.04 2168.07 1145.04 2169.07 1139.04 2169.07 1061.03 2170.07 1129.04 2170.07 1129.04 2171.07 1149.04 2172.07 1136.04 2172.07 1141.04 2173.07 1132.04 2174.07 1129.04 2174.07 1147.04 2175.07 1126.04 2175.07 1150.04 2176.07 1141.04 2177.07 1097.04 2177.07 1129.04 2178.07 1158.04 2179.07 1158.04 2179.07 1144.04 2180.07 1159.04 2181.07 1139.04 2181.07 1136.04 2182.07 1155.04 2182.07 1130.04 2183.07 1144.04 2184.07 1153.04 2184.07 1118.04 2185.07 1124.04 2186.07 1138.04 2186.07 1121.04 2187.07 1152.04 2187.07 1139.04 2188.07 1149.04 2189.07 1152.04 2189.07 1101.04 2190.07 1090.04 2191.07 1132.04 2191.07 1149.04 2192.07 1081.04 2193.07 1147.04 2193.07 1152.04 2194.07 1144.04 2194.07 1144.04 2195.07 1155.04 2196.07 1113.04 2196.07 1032.03 2197.07 1144.04 2198.07 1156.04 2198.07 1097.04 2199.07 1121.04 2199.07 1118.04 2200.07 1132.04 2201.07 1150.04 2201.07 1118.04 2202.07 1075.04 2203.07 1086.04 2203.07 1152.04 2204.07 1138.04 2205.07 1152.04 2205.07 1121.04 2206.07 1130.04 2206.07 1159.04 2207.07 1123.04 2208.07 1124.04 2208.07 1152.04 2209.07 1130.04 2210.07 1133.04 2210.07 1109.04 2211.07 1142.04 2212.07 1098.04 2212.07 1141.04 2213.07 1142.04 2213.07 1139.04 2214.07 1147.04 2215.07 1144.04 2215.07 1132.04 2216.07 1103.04 2217.07 1123.04 2217.07 1109.04 2218.07 1136.04 2218.07 1119.04 2219.07 1150.04 2220.07 1138.04 2220.07 1139.04 2221.07 1123.04 2222.07 1149.04 2222.07 1130.04 2223.07 1118.04 2224.07 1124.04 2224.07 1066.03 2225.07 1138.04 2225.07 1107.04 2226.07 1149.04 2227.07 1109.04 2227.07 1121.04 2228.07 1147.04 2229.07 1118.04 2229.07 1119.04 2230.07 1133.04 2230.07 1078.04 2231.07 1069.04 2232.07 1159.04 2232.07 1127.04 2233.07 1098.04 2234.07 1081.04 2234.07 1132.04 2235.07 1156.04 2236.07 1097.04 2236.07 1115.04 2237.07 1052.03 2237.07 1119.04 2238.07 1145.04 2239.07 1107.04 2239.07 1098.04 2240.07 1109.04 2241.07 1142.04 2241.07 1145.04 2242.07 1098.04 2242.07 1124.04 2243.07 1142.04 2244.07 1092.04 2244.07 1129.04 2245.07 1138.04 2246.07 1147.04 2246.07 1141.04 2247.07 1116.04 2248.07 1138.04 2248.07 1123.04 2249.07 1135.04 2249.07 1126.04 2250.07 1152.04 2251.07 1153.04 2251.07 1144.04 2252.07 1118.04 2253.07 1106.04 2253.07 1124.04 2254.07 1127.04 2254.07 1139.04 2255.07 1138.04 2256.07 1150.04 2256.07 1037.03 2257.07 1101.04 2258.07 1133.04 2258.07 1092.04 2259.07 1133.04 2260.07 1155.04 2260.07 1123.04 2261.07 1127.04 2261.07 1155.04 2262.07 1110.04 2263.07 1132.04 2263.07 1112.04 2264.07 1101.04 2265.07 1119.04 2265.07 1110.04 2266.07 1145.04 2266.07 1147.04 2267.07 1112.04 2268.07 1026.03 2268.07 1113.04 2269.07 1135.04 2270.07 1101.04 2270.07 1149.04 2271.07 1123.04 2272.07 1129.04 2272.07 1109.04 2273.07 1121.04 2273.07 1149.04 2274.07 1141.04 2275.07 1135.04 2275.07 1129.04 2276.07 1074.04 2277.07 1075.04 2277.07 1158.04 2278.07 1141.04 2279.07 1135.04 2279.07 1138.04 2280.07 1100.04 2280.07 1136.04 2281.07 1152.04 2282.07 1121.04 2282.07 1138.04 2283.07 1138.04 2284.07 1113.04 2284.07 1123.04 2285.07 1124.04 2285.07 1103.04 2286.07 1138.04 2287.08 1097.04 2287.08 1142.04 2288.08 1135.04 2289.08 1153.04 2289.08 1104.04 2290.08 1126.04 2291.08 1141.04 2291.08 1152.04 2292.08 1136.04 2292.08 1136.04 2293.08 1084.04 2294.08 1152.04 2294.08 1115.04 2295.08 1089.04 2296.08 1152.04 2296.08 1153.04 2297.08 1074.04 2297.08 1149.04 2298.08 1098.04 2299.08 1142.04 2299.08 1147.04 2300.08 1113.04 2301.08 1142.04 2301.08 1139.04 2302.08 1077.04 2303.08 1145.04 2303.08 1144.04 2304.08 1147.04 2304.08 1092.04 2305.08 1126.04 2306.08 1152.04 2306.08 1115.04 2307.08 1133.04 2308.08 1116.04 2308.08 1083.04 2309.08 1149.04 2309.08 1107.04 2310.08 1101.04 2311.08 1155.04 2311.08 1012.03 2312.08 1135.04 2313.08 1133.04 2313.08 1116.04 2314.08 1130.04 2315.08 1152.04 2315.08 1118.04 2316.08 1149.04 2316.08 1072.04 2317.08 1135.04 2318.08 1084.04 2318.08 1136.04 2319.08 1113.04 2320.08 1124.04 2320.08 1107.04 2321.08 1149.04 2321.08 1139.04 2322.08 1150.04 2323.08 1106.04 2323.08 1149.04 2324.08 1124.04 2325.08 1139.04 2325.08 1139.04 2326.08 1115.04 2327.08 1095.04 2327.08 1153.04 2328.08 1097.04 2328.08 1133.04 2329.08 1144.04 2330.08 1110.04 2330.08 1075.04 2331.08 1119.04 2332.08 1109.04 2332.08 1084.04 2333.08 1144.04 2334.08 1101.04 2334.08 1153.04 2335.08 1141.04 2335.08 1089.04 2336.08 1106.04 2337.08 1127.04 2337.08 1144.04 2338.08 1144.04 2339.08 1129.04 2339.08 1101.04 2340.08 1097.04 2340.08 1093.04 2341.08 1147.04 2342.08 1057.03 2342.08 1121.04 2343.08 1123.04 2344.08 1126.04 2344.08 1129.04 2345.08 1123.04 2346.08 1142.04 2346.08 1084.04 2347.08 1152.04 2347.08 1110.04 2348.08 1022.03 2349.08 1141.04 2349.08 1147.04 2350.08 1090.04 2351.08 1097.04 2351.08 1155.04 2352.08 1095.04 2352.08 1132.04 2353.08 1153.04 2354.08 1121.04 2354.08 1149.04 2355.08 1103.04 2356.08 1098.04 2356.08 1135.04 2357.08 1141.04 2358.08 1147.04 2358.08 1142.04 2359.08 1159.04 2359.08 1147.04 2360.08 1106.04 2361.08 1038.03 2361.08 1142.04 2362.08 1084.04 2363.08 1113.04 2363.08 1132.04 2364.08 1152.04 2364.08 1141.04 2365.08 1155.04 2366.08 1112.04 2366.08 1152.04 2367.08 1138.04 2368.08 1084.04 2368.08 1145.04 2369.08 991.033 2370.08 1046.03 2370.08 1129.04 2371.08 1112.04 2371.08 1116.04 2372.08 1090.04 2373.08 1127.04 2373.08 1121.04 2374.08 1084.04 2375.08 1142.04 2375.08 1129.04 2376.08 1110.04 2376.08 994.033 2377.08 1113.04 2378.08 1142.04 2378.08 1109.04 2379.08 1118.04 2380.08 1138.04 2380.08 1144.04 2381.08 1139.04 2382.08 1141.04 2382.08 1107.04 2383.08 1139.04 2383.08 1038.03 2384.08 1150.04 2385.08 1097.04 2385.08 1118.04 2386.08 1130.04 2387.08 1106.04 2387.08 1142.04 2388.08 1133.04 2388.08 1142.04 2389.08 1132.04 2390.08 1145.04 2390.08 1113.04 2391.08 1101.04 2392.08 1104.04 2392.08 1069.04 2393.08 1136.04 2394.08 1067.03 2394.08 1124.04 2395.08 1107.04 2395.08 1138.04 2396.08 1112.04 2397.08 1130.04 2397.08 1153.04 2398.08 1152.04 2399.08 1061.03 2399.08 1139.04 2400.08 1061.03 2401.08 1119.04 2401.08 1109.04 2402.08 1153.04 2402.08 1119.04 2403.08 1116.04 2404.08 1104.04 2404.08 1152.04 2405.08 1092.04 2406.08 1138.04 2406.08 1141.04 2407.08 1067.03 2407.08 1083.04 2408.08 1124.04 2409.08 1127.04 2409.08 1132.04 2410.08 1130.04 2411.08 1150.04 2411.08 1115.04 2412.08 1107.04 2413.08 1139.04 2413.08 1107.04 2414.08 1093.04 2414.08 1149.04 2415.08 1124.04 2416.08 1109.04 2416.08 1149.04 2417.08 1129.04 2418.08 1121.04 2418.08 1135.04 2419.08 1092.04 2419.08 1115.04 2420.08 1133.04 2421.08 1127.04 2421.08 1127.04 2422.08 1118.04 2423.08 1144.04 2423.08 1090.04 2424.08 1141.04 2425.08 1124.04 2425.08 1124.04 2426.08 1126.04 2426.08 1121.04 2427.08 1138.04 2428.08 1150.04 2428.08 1142.04 2429.08 1139.04 2430.08 1119.04 2430.08 1101.04 2431.08 1145.04 2431.08 1149.04 2432.08 1127.04 2433.08 1109.04 2433.08 1144.04 2434.08 1067.03 2435.08 1126.04 2435.08 1026.03 2436.08 1129.04 2437.08 1132.04 2437.08 1113.04 2438.08 1144.04 2438.08 1100.04 2439.08 1132.04 2440.08 1098.04 2440.08 1127.04 2441.08 1101.04 2442.08 1138.04 2442.08 1136.04 2443.08 1132.04 2443.08 1129.04 2444.08 1092.04 2445.08 1142.04 2445.08 1136.04 2446.08 1119.04 2447.08 1132.04 2447.08 1138.04 2448.08 1142.04 2449.08 1089.04 2449.08 1142.04 2450.08 1115.04 2450.08 1107.04 2451.08 1110.04 2452.08 1095.04 2452.08 1126.04 2453.08 1127.04 2454.08 1121.04 2454.08 1150.04 2455.08 1097.04 2456.08 1121.04 2456.08 1095.04 2457.08 1123.04 2457.08 1123.04 2458.08 1121.04 2459.08 1147.04 2459.08 1100.04 2460.08 1058.03 2461.08 1063.03 2461.08 1119.04 2462.08 1066.03 2462.08 1092.04 2463.08 1129.04 2464.08 1090.04 2464.08 1149.04 2465.08 1067.03 2466.08 1110.04 2466.08 1071.04 2467.08 1135.04 2468.08 1141.04 2468.08 1150.04 2469.08 1100.04 2469.08 1129.04 2470.08 1126.04 2471.08 1152.04 2471.08 1136.04 2472.08 1152.04 2473.08 1066.03 2473.08 1106.04 2474.08 1130.04 2474.08 1123.04 2475.08 1118.04 2476.08 1144.04 2476.08 1138.04 2477.08 1118.04 2478.08 1133.04 2478.08 1100.04 2479.08 1127.04 2480.08 1142.04 2480.08 1124.04 2481.08 1113.04 2481.08 1103.04 2482.08 1072.04 2483.08 1119.04 2483.08 1069.04 2484.08 1100.04 2485.08 1092.04 2485.08 1138.04 2486.08 1132.04 2486.08 1110.04 2487.08 1156.04 2488.08 1138.04 2488.08 1067.03 2489.08 1142.04 2490.08 1074.04 2490.08 1150.04 2491.08 1043.03 2492.08 1149.04 2492.08 1118.04 2493.08 1149.04 2493.08 1066.03 2494.08 1081.04 2495.08 1110.04 2495.08 1035.03 2496.08 1110.04 2497.08 1115.04 2497.08 1124.04 2498.08 1051.03 2498.08 1127.04 2499.08 1071.04 2500.08 1145.04 2500.08 1115.04 2501.08 1097.04 2502.08 1130.04 2502.08 1112.04 2503.08 1136.04 2504.08 1136.04 2504.08 1110.04 2505.08 1115.04 2505.08 1121.04 2506.08 1147.04 2507.08 1089.04 2507.08 1126.04 2508.08 1100.04 2509.08 1116.04 2509.08 1126.04 2510.08 1080.04 2510.08 1139.04 2511.08 1110.04 2512.08 1124.04 2512.08 1141.04 2513.08 1153.04 2514.08 1100.04 2514.08 1149.04 2515.08 1136.04 2516.08 1037.03 2516.08 1098.04 2517.08 1132.04 2517.08 1116.04 2518.08 1106.04 2519.08 1124.04 2519.08 1118.04 2520.08 1129.04 2521.08 1006.03 2521.08 1126.04 2522.08 1083.04 2523.08 1139.04 2523.08 1129.04 2524.08 1124.04 2524.08 1136.04 2525.08 1075.04 2526.08 1116.04 2526.08 1034.03 2527.08 1080.04 2528.08 1078.04 2528.08 1041.03 2529.08 1138.04 2529.08 1118.04 2530.08 1144.04 2531.08 1129.04 2531.08 1141.04 2532.08 1133.04 2533.08 1067.03 2533.08 1090.04 2534.08 1075.04 2535.08 1130.04 2535.08 1107.04 2536.08 1142.04 2536.08 1145.04 2537.08 1037.03 2538.08 1139.04 2538.08 1116.04 2539.08 1130.04 2540.08 1095.04 2540.08 1127.04 2541.08 1086.04 2541.08 1113.04 2542.08 1107.04 2543.08 1121.04 2543.08 1084.04 2544.08 1101.04 2545.08 1000.03 2545.08 1066.03 2546.08 1130.04 2547.08 1149.04 2547.08 1045.03 2548.08 1116.04 2548.08 1121.04 2549.08 1132.04 2550.08 1153.04 2550.08 1112.04 2551.08 1135.04 2552.08 1119.04 2552.08 1116.04 2553.08 1095.04 2553.08 1133.04 2554.08 1156.04 2555.08 1129.04 2555.08 1153.04 2556.08 1064.03 2557.08 1139.04 2557.08 1141.04 2558.08 1077.04 2559.08 1124.04 2559.08 1126.04 2560.08 1130.04 2560.08 1106.04 2561.08 1107.04 2562.08 1130.04 2562.08 1064.03 2563.08 1115.04 2564.08 1092.04 2564.08 1136.04 2565.08 1130.04 2565.08 1028.03 2566.08 1118.04 2567.08 1097.04 2567.08 1087.04 2568.08 1107.04 2569.08 1133.04 2569.08 1127.04 2570.08 1103.04 2571.08 1077.04 2571.08 1052.03 2572.08 1086.04 2572.08 1145.04 2573.08 1080.04 2574.08 1129.04 2574.08 1150.04 2575.08 1132.04 2576.08 1104.04 2576.08 1087.04 2577.08 1066.03 2578.08 1142.04 2578.08 1098.04 2579.08 1121.04 2579.08 1123.04 2580.08 1092.04 2581.08 1135.04 2581.08 1149.04 2582.08 1135.04 2583.08 1101.04 2583.08 1138.04 2584.08 1112.04 2584.08 1116.04 2585.08 1132.04 2586.08 1132.04 2586.08 1133.04 2587.08 1149.04 2588.08 1107.04 2588.08 1126.04 2589.08 1049.03 2590.08 1142.04 2590.08 1116.04 2591.08 1115.04 2591.08 1095.04 2592.08 1107.04 2593.08 1078.04 2593.08 1098.04 2594.08 1130.04 2595.09 1066.03 2595.09 1144.04 2596.09 1136.04 2596.09 1107.04 2597.09 1060.03 2598.09 1098.04 2598.09 1054.03 2599.09 1149.04 2600.09 956.031 2600.09 1141.04 2601.09 1123.04 2602.09 1124.04 2602.09 1104.04 2603.09 1098.04 2603.09 1139.04 2604.09 1112.04 2605.09 1046.03 2605.09 1112.04 2606.09 1123.04 2607.09 1074.04 2607.09 1090.04 2608.09 1095.04 2608.09 1071.04 2609.09 1133.04 2610.09 1136.04 2610.09 1124.04 2611.09 1113.04 2612.09 1116.04 2612.09 1060.03 2613.09 1149.04 2614.09 1040.03 2614.09 1141.04 2615.09 1149.04 2615.09 1107.04 2616.09 1052.03 2617.09 1095.04 2617.09 1103.04 2618.09 1063.03 2619.09 1110.04 2619.09 1123.04 2620.09 1063.03 2620.09 959.031 2621.09 1116.04 2622.09 1090.04 2622.09 996.033 2623.09 1144.04 2624.09 1135.04 2624.09 1107.04 2625.09 1063.03 2626.09 1109.04 2626.09 1072.04 2627.09 1136.04 2627.09 1075.04 2628.09 1063.03 2629.09 1126.04 2629.09 1123.04 2630.09 1132.04 2631.09 1078.04 2631.09 1103.04 2632.09 1130.04 2632.09 1158.04 2633.09 1141.04 2634.09 1083.04 2634.09 1121.04 2635.09 1136.04 2636.09 1046.03 2636.09 1089.04 2637.09 1115.04 2638.09 1037.03 2638.09 1112.04 2639.09 1141.04 2639.09 1139.04 2640.09 1104.04 2641.09 1136.04 2641.09 1135.04 2642.09 1149.04 2643.09 1055.03 2643.09 1121.04 2644.09 948.031 2645.09 1106.04 2645.09 1155.04 2646.09 1104.04 2646.09 1064.03 2647.09 1116.04 2648.09 1104.04 2648.09 1144.04 2649.09 1095.04 2650.09 1075.04 2650.09 1133.04 2651.09 1145.04 2651.09 1046.03 2652.09 1129.04 2653.09 1103.04 2653.09 1145.04 2654.09 1135.04 2655.09 1087.04 2655.09 1133.04 2656.09 1133.04 2657.09 1045.03 2657.09 1129.04 2658.09 1133.04 2658.09 1127.04 2659.09 1084.04 2660.09 1051.03 2660.09 1072.04 2661.09 1135.04 2662.09 1041.03 2662.09 1109.04 2663.09 1150.04 2663.09 993.033 2664.09 1089.04 2665.09 1149.04 2665.09 1093.04 2666.09 1092.04 2667.09 1136.04 2667.09 1138.04 2668.09 1026.03 2669.09 1084.04 2669.09 1136.04 2670.09 1139.04 2670.09 1126.04 2671.09 1101.04 2672.09 1147.04 2672.09 1092.04 2673.09 1109.04 2674.09 1095.04 2674.09 1138.04 2675.09 1118.04 2675.09 1123.04 2676.09 1126.04 2677.09 1040.03 2677.09 1141.04 2678.09 1104.04 2679.09 1112.04 2679.09 1071.04 2680.09 1064.03 2681.09 1121.04 2681.09 1132.04 2682.09 1109.04 2682.09 1103.04 2683.09 1063.03 2684.09 1144.04 2684.09 979.032 2685.09 1129.04 2686.09 1115.04 2686.09 1051.03 2687.09 1126.04 2687.09 1149.04 2688.09 1119.04 2689.09 1103.04 2689.09 1087.04 2690.09 1095.04 2691.09 1135.04 2691.09 1034.03 2692.09 1155.04 2693.09 1123.04 2693.09 1048.03 2694.09 1103.04 2694.09 1022.03 2695.09 1095.04 2696.09 1118.04 2696.09 1124.04 2697.09 1107.04 2698.09 1014.03 2698.09 1123.04 2699.09 1058.03 2700.09 1119.04 2700.09 1090.04 2701.09 1141.04 2701.09 1142.04 2702.09 1077.04 2703.09 1121.04 2703.09 1126.04 2704.09 970.032 2705.09 1127.04 2705.09 1069.04 2706.09 1123.04 2706.09 1121.04 2707.09 1080.04 2708.09 1121.04 2708.09 1092.04 2709.09 1046.03 2710.09 1155.04 2710.09 1141.04 2711.09 1106.04 2712.09 1110.04 2712.09 1144.04 2713.09 1069.04 2713.09 1135.04 2714.09 1142.04 2715.09 1142.04 2715.09 1115.04 2716.09 1019.03 2717.09 1107.04 2717.09 1153.04 2718.09 1145.04 2718.09 1005.03 2719.09 1138.04 2720.09 1097.04 2720.09 1115.04 2721.09 1150.04 2722.09 1097.04 2722.09 1067.03 2723.09 1072.04 2724.09 1058.03 2724.09 1147.04 2725.09 960.031 2725.09 1054.03 2726.09 1110.04 2727.09 1064.03 2727.09 1150.04 2728.09 1139.04 2729.09 1136.04 2729.09 1083.04 2730.09 1092.04 2730.09 1110.04 2731.09 1109.04 2732.09 1071.04 2732.09 1124.04 2733.09 1034.03 2734.09 1138.04 2734.09 1093.04 2735.09 1124.04 2736.09 1123.04 2736.09 1145.04 2737.09 1106.04 2737.09 1092.04 2738.09 1133.04 2739.09 1130.04 2739.09 991.033 2740.09 1139.04 2741.09 1116.04 2741.09 1139.04 2742.09 1113.04 2742.09 997.033 2743.09 1086.04 2744.09 1145.04 2744.09 1141.04 2745.09 1086.04 2746.09 1112.04 2746.09 1104.04 2747.09 1123.04 2748.09 1043.03 2748.09 1139.04 2749.09 1006.03 2749.09 1113.04 2750.09 1133.04 2751.09 1057.03 2751.09 1116.04 2752.09 1112.04 2753.09 977.032 2753.09 1084.04 2754.09 1115.04 2754.09 1034.03 2755.09 1097.04 2756.09 1083.04 2756.09 1092.04 2757.09 1118.04 2758.09 1090.04 2758.09 1113.04 2759.09 1113.04 2760.09 1149.04 2760.09 1112.04 2761.09 1112.04 2761.09 1136.04 2762.09 1127.04 2763.09 1135.04 2763.09 1159.04 2764.09 1112.04 2765.09 1104.04 2765.09 1087.04 2766.09 1098.04 2767.09 1049.03 2767.09 1152.04 2768.09 1119.04 2768.09 1035.03 2769.09 1138.04 2770.09 1048.03 2770.09 1135.04 2771.09 1107.04 2772.09 1029.03 2772.09 1139.04 2773.09 1129.04 2773.09 1002.03 2774.09 983.032 2775.09 1049.03 2775.09 1095.04 2776.09 1089.04 2777.09 1035.03 2777.09 999.033 2778.09 1090.04 2779.09 1135.04 2779.09 1029.03 2780.09 1112.04 2780.09 1038.03 2781.09 1144.04 2782.09 1069.04 2782.09 1139.04 2783.09 1103.04 2784.09 1025.03 2784.09 1116.04 2785.09 1142.04 2785.09 1115.04 2786.09 1095.04 2787.09 1025.03 2787.09 1132.04 2788.09 1029.03 2789.09 901.03 2789.09 1107.04 2790.09 1086.04 2791.09 1072.04 2791.09 1138.04 2792.09 1147.04 2792.09 1130.04 2793.09 1144.04 2794.09 1121.04 2794.09 1101.04 2795.09 1118.04 2796.09 1138.04 2796.09 1145.04 2797.09 1127.04 2797.09 1126.04 2798.09 1129.04 2799.09 1133.04 2799.09 1092.04 2800.09 1087.04 2801.09 1132.04 2801.09 1051.03 2802.09 1093.04 2803.09 1129.04 2803.09 1023.03 2804.09 1081.04 2804.09 1130.04 2805.09 1012.03 2806.09 1150.04 2806.09 1057.03 2807.09 1092.04 2808.09 1000.03 2808.09 1132.04 2809.09 1144.04 2809.09 1112.04 2810.09 1081.04 2811.09 1051.03 2811.09 1124.04 2812.09 1069.04 2813.09 1031.03 2813.09 1041.03 2814.09 1069.04 2815.09 988.032 2815.09 1101.04 2816.09 1141.04 2816.09 1124.04 2817.09 1133.04 2818.09 1147.04 2818.09 1147.04 2819.09 1029.03 2820.09 1089.04 2820.09 1064.03 2821.09 1080.04 2822.09 1063.03 2822.09 1107.04 2823.09 1109.04 2823.09 1130.04 2824.09 1089.04 2825.09 1089.04 2825.09 1116.04 2826.09 1107.04 2827.09 1090.04 2827.09 1145.04 2828.09 1144.04 2828.09 1142.04 2829.09 1149.04 2830.09 1116.04 2830.09 1098.04 2831.09 977.032 2832.09 1061.03 2832.09 1121.04 2833.09 1121.04 2834.09 1009.03 2834.09 1139.04 2835.09 1061.03 2835.09 1133.04 2836.09 1103.04 2837.09 1049.03 2837.09 1145.04 2838.09 1048.03 2839.09 1087.04 2839.09 974.032 2840.09 1150.04 2840.09 1133.04 2841.09 1083.04 2842.09 1123.04 2842.09 1124.04 2843.09 1110.04 2844.09 1081.04 2844.09 1081.04 2845.09 1116.04 2846.09 1101.04 2846.09 1144.04 2847.09 1038.03 2847.09 1123.04 2848.09 1095.04 2849.09 1109.04 2849.09 1138.04 2850.09 885.029 2851.09 1107.04 2851.09 1092.04 2852.09 1063.03 2852.09 1061.03 2853.09 1086.04 2854.09 1142.04 2854.09 1090.04 2855.09 1078.04 2856.09 1020.03 2856.09 1121.04 2857.09 1133.04 2858.09 1119.04 2858.09 1090.04 2859.09 1123.04 2859.09 1092.04 2860.09 1113.04 2861.09 1133.04 2861.09 927.03 2862.09 1060.03 2863.09 1075.04 2863.09 1100.04 2864.09 1038.03 2864.09 1116.04 2865.09 1138.04 2866.09 1097.04 2866.09 1075.04 2867.09 1119.04 2868.09 1124.04 2868.09 1145.04 2869.09 1127.04 2870.09 921.03 2870.09 1113.04 2871.09 1100.04 2871.09 1011.03 2872.09 1054.03 2873.09 1139.04 2873.09 1026.03 2874.09 1106.04 2875.09 1121.04 2875.09 1113.04 2876.09 1078.04 2876.09 1129.04 2877.09 1127.04 2878.09 989.032 2878.09 1017.03 2879.09 904.03 2880.09 784.026 2880.09 1121.04 2881.09 996.033 2882.09 1149.04 2882.09 1109.04 2883.09 1081.04 2883.09 1124.04 2884.09 1081.04 2885.09 963.032 2885.09 1116.04 2886.09 1127.04 2887.09 1124.04 2887.09 1118.04 2888.09 1124.04 2889.09 1139.04 2889.09 1097.04 2890.09 1049.03 2890.09 1011.03 2891.09 1109.04 2892.09 1025.03 2892.09 1049.03 2893.09 1095.04 2894.09 1116.04 2894.09 1008.03 2895.09 973.032 2895.09 1118.04 2896.1 1144.04 2897.1 1142.04 2897.1 1071.04 2898.1 1138.04 2899.1 1127.04 2899.1 1087.04 2900.1 1121.04 2901.1 1119.04 2901.1 1127.04 2902.1 1135.04 2902.1 1031.03 2903.1 1132.04 2904.1 1136.04 2904.1 1149.04 2905.1 1041.03 2906.1 1017.03 2906.1 1074.04 2907.1 1083.04 2907.1 968.032 2908.1 1037.03 2909.1 1132.04 2909.1 956.031 2910.1 1032.03 2911.1 1040.03 2911.1 1124.04 2912.1 960.031 2913.1 1015.03 2913.1 933.031 2914.1 1040.03 2914.1 1045.03 2915.1 1126.04 2916.1 1060.03 2916.1 925.03 2917.1 1138.04 2918.1 1132.04 2918.1 1043.03 2919.1 1072.04 2919.1 963.032 2920.1 1123.04 2921.1 1043.03 2921.1 1142.04 2922.1 1126.04 2923.1 1152.04 2923.1 870.029 2924.1 1035.03 2925.1 1132.04 2925.1 1107.04 2926.1 1100.04 2926.1 1049.03 2927.1 1064.03 2928.1 1051.03 2928.1 1133.04 2929.1 1075.04 2930.1 1069.04 2930.1 1139.04 2931.1 948.031 2931.1 1081.04 2932.1 1072.04 2933.1 954.031 2933.1 1057.03 2934.1 1037.03 2935.1 1129.04 2935.1 988.032 2936.1 1002.03 2937.1 1063.03 2937.1 1109.04 2938.1 1057.03 2938.1 892.029 2939.1 930.031 2940.1 1142.04 2940.1 1119.04 2941.1 1098.04 2942.1 1078.04 2942.1 1136.04 2943.1 1129.04 2943.1 1023.03 2944.1 1029.03 2945.1 1087.04 2945.1 930.031 2946.1 1100.04 2947.1 1141.04 2947.1 1123.04 2948.1 997.033 2949.1 1098.04 2949.1 1106.04 2950.1 1095.04 2950.1 1078.04 2951.1 1075.04 2952.1 1008.03 2952.1 996.033 2953.1 1149.04 2954.1 1072.04 2954.1 1095.04 2955.1 968.032 2956.1 1074.04 2956.1 1003.03 2957.1 1063.03 2957.1 1100.04 2958.1 1133.04 2959.1 1136.04 2959.1 1119.04 2960.1 1022.03 2961.1 1051.03 2961.1 1150.04 2962.1 1150.04 2962.1 1138.04 2963.1 1049.03 2964.1 1142.04 2964.1 1126.04 2965.1 1121.04 2966.1 974.032 2966.1 982.032 2967.1 1144.04 2968.1 1115.04 2968.1 1118.04 2969.1 1045.03 2969.1 1142.04 2970.1 1116.04 2971.1 1090.04 2971.1 1072.04 2972.1 1113.04 2973.1 1123.04 2973.1 974.032 2974.1 934.031 2974.1 1118.04 2975.1 916.03 2976.1 1113.04 2976.1 1135.04 2977.1 1116.04 2978.1 1008.03 2978.1 1043.03 2979.1 1087.04 2980.1 985.032 2980.1 1084.04 2981.1 1132.04 2981.1 1115.04 2982.1 1107.04 2983.1 1098.04 2983.1 954.031 2984.1 1110.04 2985.1 1067.03 2985.1 829.027 2986.1 1072.04 2986.1 1101.04 2987.1 1118.04 2988.1 967.032 2988.1 1136.04 2989.1 1081.04 2990.1 1144.04 2990.1 890.029 2991.1 1084.04 2992.1 1133.04 2992.1 1142.04 2993.1 1121.04 2993.1 1092.04 2994.1 1135.04 2995.1 852.028 2995.1 1014.03 2996.1 1077.04 2997.1 1000.03 2997.1 1130.04 2998.1 1041.03 2998.1 1144.04 2999.1 1055.03 3000.1 1121.04 3000.1 1138.04 3001.1 1002.03 3002.1 1155.04 3002.1 979.032 3003.1 1043.03 3004.1 944.031 3004.1 1133.04 3005.1 1142.04 3005.1 1071.04 3006.1 1130.04 3007.1 1048.03 3007.1 1141.04 3008.1 1093.04 3009.1 1112.04 3009.1 918.03 3010.1 1101.04 3011.1 973.032 3011.1 962.032 3012.1 1009.03 3012.1 1074.04 3013.1 1113.04 3014.1 1025.03 3014.1 954.031 3015.1 1072.04 3016.1 1118.04 3016.1 1149.04 3017.1 1055.03 3017.1 973.032 3018.1 1078.04 3019.1 1015.03 3019.1 1092.04 3020.1 1095.04 3021.1 1020.03 3021.1 1097.04 3022.1 1058.03 3023.1 1119.04 3023.1 1141.04 3024.1 1141.04 3024.1 1032.03 3025.1 971.032 3026.1 1011.03 3026.1 1113.04 3027.1 1139.04 3028.1 1031.03 3028.1 1054.03 3029.1 1095.04 3029.1 1038.03 3030.1 1132.04 3031.1 1045.03 3031.1 1089.04 3032.1 980.032 3033.1 1101.04 3033.1 1115.04 3034.1 1100.04 3035.1 997.033 3035.1 997.033 3036.1 1150.04 3036.1 1118.04 3037.1 956.031 3038.1 1121.04 3038.1 967.032 3039.1 1110.04 3040.1 993.033 3040.1 999.033 3041.1 1060.03 3041.1 1098.04 3042.1 1138.04 3043.1 1141.04 3043.1 989.032 3044.1 1074.04 3045.1 1141.04 3045.1 1119.04 3046.1 1048.03 3047.1 1104.04 3047.1 1127.04 3048.1 853.028 3048.1 1041.03 3049.1 1123.04 3050.1 1107.04 3050.1 1144.04 3051.1 1058.03 3052.1 1060.03 3052.1 1084.04 3053.1 915.03 3053.1 1144.04 3054.1 1087.04 3055.1 1095.04 3055.1 997.033 3056.1 1124.04 3057.1 1109.04 3057.1 1083.04 3058.1 1075.04 3059.1 1057.03 3059.1 1109.04 3060.1 1139.04 3060.1 1015.03 3061.1 1071.04 3062.1 967.032 3062.1 1115.04 3063.1 1138.04 3064.1 1090.04 3064.1 1144.04 3065.1 853.028 3065.1 1008.03 3066.1 1123.04 3067.1 1124.04 3067.1 933.031 3068.1 1119.04 3069.1 1095.04 3069.1 1054.03 3070.1 1092.04 3071.1 1138.04 3071.1 1110.04 3072.1 963.032 3072.1 1087.04 3073.1 1141.04 3074.1 1074.04 3074.1 934.031 3075.1 910.03 3076.1 1077.04 3076.1 1008.03 3077.1 985.032 3078.1 1113.04 3078.1 1098.04 3079.1 1136.04 3079.1 1132.04 3080.1 1066.03 3081.1 1103.04 3081.1 1119.04 3082.1 1106.04 3083.1 1119.04 3083.1 1012.03 3084.1 1084.04 3084.1 1095.04 3085.1 884.029 3086.1 974.032 3086.1 997.033 3087.1 1110.04 3088.1 1115.04 3088.1 989.032 3089.1 1126.04 3090.1 1113.04 3090.1 1103.04 3091.1 941.031 3091.1 1110.04 3092.1 1074.04 3093.1 1025.03 3093.1 1139.04 3094.1 1118.04 3095.1 1025.03 3095.1 1023.03 3096.1 1130.04 3096.1 918.03 3097.1 1101.04 3098.1 988.032 3098.1 1138.04 3099.1 993.033 3100.1 1110.04 3100.1 1129.04 3101.1 1063.03 3102.1 1124.04 3102.1 1014.03 3103.1 1144.04 3103.1 1142.04 3104.1 918.03 3105.1 1130.04 3105.1 1090.04 3106.1 1002.03 3107.1 1051.03 3107.1 1003.03 3108.1 1092.04 3108.1 1130.04 3109.1 976.032 3110.1 941.031 3110.1 948.031 3111.1 1093.04 3112.1 991.033 3112.1 956.031 3113.1 1132.04 3114.1 985.032 3114.1 963.032 3115.1 968.032 3115.1 1113.04 3116.1 934.031 3117.1 1064.03 3117.1 922.03 3118.1 1147.04 3119.1 1045.03 3119.1 887.029 3120.1 1045.03 3120.1 1084.04 3121.1 1005.03 3122.1 751.025 3122.1 1075.04 3123.1 967.032 3124.1 1121.04 3124.1 1066.03 3125.1 1081.04 3126.1 1142.04 3126.1 1126.04 3127.1 1092.04 3127.1 1129.04 3128.1 970.032 3129.1 1005.03 3129.1 1126.04 3130.1 1080.04 3131.1 947.031 3131.1 982.032 3132.1 951.031 3133.1 1098.04 3133.1 1008.03 3134.1 1084.04 3134.1 1046.03 3135.1 988.032 3136.1 1135.04 3136.1 1106.04 3137.1 1138.04 3138.1 1003.03 3138.1 1138.04 3139.1 1133.04 3139.1 1133.04 3140.1 1155.04 3141.1 1118.04 3141.1 1046.03 3142.1 1005.03 3143.1 939.031 3143.1 1145.04 3144.1 1126.04 3145.1 1080.04 3145.1 1112.04 3146.1 1077.04 3146.1 885.029 3147.1 1147.04 3148.1 1110.04 3148.1 1045.03 3149.1 1113.04 3150.1 1115.04 3150.1 1077.04 3151.1 1133.04 3151.1 1138.04 3152.1 1098.04 3153.1 976.032 3153.1 1045.03 3154.1 1133.04 3155.1 1032.03 3155.1 948.031 3156.1 1132.04 3157.1 1107.04 3157.1 1104.04 3158.1 979.032 3158.1 866.028 3159.1 954.031 3160.1 1087.04 3160.1 866.028 3161.1 1124.04 3162.1 976.032 3162.1 861.028 3163.1 1124.04 3163.1 1041.03 3164.1 1103.04 3165.1 965.032 3165.1 887.029 3166.1 1127.04 3167.1 1069.04 3167.1 1136.04 3168.1 1145.04 3169.1 1074.04 3169.1 861.028 3170.1 1126.04 3170.1 1032.03 3171.1 1118.04 3172.1 1133.04 3172.1 973.032 3173.1 1158.04 3174.1 922.03 3174.1 1095.04 3175.1 1112.04 3175.1 881.029 3176.1 668.022 3177.1 1138.04 3177.1 1034.03 3178.1 876.029 3179.1 993.033 3179.1 1092.04 3180.1 1116.04 3181.1 1029.03 3181.1 985.032 3182.1 1101.04 3182.1 859.028 3183.1 1113.04 3184.1 1132.04 3184.1 997.033 3185.1 913.03 3186.1 1147.04 3186.1 1009.03 3187.1 1115.04 3187.1 922.03 3188.1 1097.04 3189.1 1038.03 3189.1 959.031 3190.1 1142.04 3191.1 800.026 3191.1 1104.04 3192.1 1052.03 3193.1 881.029 3193.1 999.033 3194.1 1032.03 3194.1 1126.04 3195.1 1123.04 3196.1 1152.04 3196.1 1097.04 3197.1 1124.04 3198.1 1126.04 3198.1 1009.03 3199.1 890.029 3200.1 1100.04 3200.1 1077.04 3201.1 1077.04 3201.1 1074.04 3202.1 1119.04 3203.1 1019.03 3203.1 1121.04 3204.1 1133.04 3205.11 933.031 3205.11 1138.04 3206.11 976.032 3206.11 1052.03 3207.11 1123.04 3208.11 959.031 3208.11 1127.04 3209.11 956.031 3210.11 924.03 3210.11 1003.03 3211.11 1034.03 3212.11 941.031 3212.11 1090.04 3213.11 1121.04 3213.11 1095.04 3214.11 983.032 3215.11 852.028 3215.11 1126.04 3216.11 989.032 3217.11 1119.04 3217.11 945.031 3218.11 1112.04 3218.11 960.031 3219.11 1057.03 3220.11 970.032 3220.11 1107.04 3221.11 941.031 3222.11 1095.04 3222.11 1133.04 3223.11 951.031 3224.11 1067.03 3224.11 1138.04 3225.11 951.031 3225.11 986.032 3226.11 1064.03 3227.11 1092.04 3227.11 979.032 3228.11 1038.03 3229.11 968.032 3229.11 1095.04 3230.11 1110.04 3230.11 1069.04 3231.11 1136.04 3232.11 982.032 3232.11 1048.03 3233.11 986.032 3234.11 1119.04 3234.11 1008.03 3235.11 1100.04 3236.11 1130.04 3236.11 1020.03 3237.11 962.032 3237.11 980.032 3238.11 1100.04 3239.11 1061.03 3239.11 1083.04 3240.11 910.03 3241.11 1003.03 3241.11 1145.04 3242.11 818.027 3242.11 786.026 3243.11 942.031 3244.11 930.031 3244.11 967.032 3245.11 1097.04 3246.11 1103.04 3246.11 1084.04 3247.11 968.032 3248.11 1026.03 3248.11 1144.04 3249.11 931.031 3249.11 1147.04 3250.11 1136.04 3251.11 1106.04 3251.11 997.033 3252.11 954.031 3253.11 1139.04 3253.11 869.029 3254.11 1127.04 3255.11 1025.03 3255.11 1115.04 3256.11 1038.03 3256.11 1095.04 3257.11 862.028 3258.11 1141.04 3258.11 1124.04 3259.11 1106.04 3260.11 1031.03 3260.11 1116.04 3261.11 1133.04 3261.11 928.03 3262.11 1124.04 3263.11 930.031 3263.11 1153.04 3264.11 1064.03 3265.11 982.032 3265.11 1116.04 3266.11 989.032 3267.11 1109.04 3267.11 869.029 3268.11 1055.03 3268.11 1116.04 3269.11 991.033 3270.11 1023.03 3270.11 1066.03 3271.11 1035.03 3272.11 1048.03 3272.11 1019.03 3273.11 1156.04 3273.11 1029.03 3274.11 1107.04 3275.11 994.033 3275.11 1098.04 3276.11 944.031 3277.11 915.03 3277.11 993.033 3278.11 1141.04 3279.11 979.032 3279.11 997.033 3280.11 989.032 3280.11 1045.03 3281.11 927.03 3282.11 947.031 3282.11 985.032 3283.11 997.033 3284.11 971.032 3284.11 999.033 3285.11 1104.04 3285.11 1103.04 3286.11 1123.04 3287.11 1081.04 3287.11 902.03 3288.11 1119.04 3289.11 1032.03 3289.11 882.029 3290.11 922.03 3291.11 881.029 3291.11 979.032 3292.11 1077.04 3292.11 1014.03 3293.11 1041.03 3294.11 1060.03 3294.11 1132.04 3295.11 1063.03 3296.11 947.031 3296.11 1081.04 3297.11 1037.03 3297.11 1100.04 3298.11 1127.04 3299.11 1037.03 3299.11 1126.04 3300.11 1101.04 3301.11 937.031 3301.11 982.032 3302.11 1109.04 3303.11 963.032 3303.11 1133.04 3304.11 1006.03 3304.11 915.03 3305.11 963.032 3306.11 1116.04 3306.11 1126.04 3307.11 803.026 3308.11 931.031 3308.11 1080.04 3309.11 959.031 3309.11 1032.03 3310.11 944.031 3311.11 1133.04 3311.11 1112.04 3312.11 830.027 3313.11 1078.04 3313.11 1132.04 3314.11 1136.04 3315.11 1104.04 3315.11 989.032 3316.11 1000.03 3316.11 847.028 3317.11 1133.04 3318.11 907.03 3318.11 1035.03 3319.11 1129.04 3320.11 1106.04 3320.11 915.03 3321.11 1116.04 3322.11 1132.04 3322.11 1107.04 3323.11 1087.04 3323.11 927.03 3324.11 1043.03 3325.11 945.031 3325.11 1069.04 3326.11 1092.04 3327.11 1103.04 3327.11 1115.04 3328.11 967.032 3328.11 1066.03 3329.11 934.031 3330.11 994.033 3330.11 930.031 3331.11 950.031 3332.11 1008.03 3332.11 1142.04 3333.11 931.031 3334.11 1109.04 3334.11 1008.03 3335.11 985.032 3335.11 847.028 3336.11 1090.04 3337.11 1153.04 3337.11 896.029 3338.11 1136.04 3339.11 908.03 3339.11 913.03 3340.11 1107.04 3340.11 1101.04 3341.11 777.026 3342.11 1116.04 3342.11 1087.04 3343.11 833.027 3344.11 1106.04 3344.11 1092.04 3345.11 970.032 3346.11 1023.03 3346.11 1014.03 3347.11 1015.03 3347.11 1069.04 3348.11 1112.04 3349.11 875.029 3349.11 1138.04 3350.11 1127.04 3351.11 1072.04 3351.11 1119.04 3352.11 965.032 3352.11 951.031 3353.11 1145.04 3354.11 1032.03 3354.11 1139.04 3355.11 1002.03 3356.11 934.031 3356.11 951.031 3357.11 1032.03 3358.11 1058.03 3358.11 970.032 3359.11 760.025 3359.11 1005.03 3360.11 957.031 3361.11 1132.04 3361.11 840.028 3362.11 1135.04 3363.11 864.028 3363.11 1113.04 3364.11 1136.04 3364.11 1002.03 3365.11 916.03 3366.11 1093.04 3366.11 1142.04 3367.11 887.029 3368.11 1112.04 3368.11 904.03 3369.11 1048.03 3370.11 1028.03 3370.11 878.029 3371.11 1084.04 3371.11 1008.03 3372.11 985.032 3373.11 901.03 3373.11 1119.04 3374.11 904.03 3375.11 1149.04 3375.11 991.033 3376.11 934.031 3377.11 1067.03 3377.11 1002.03 3378.11 1084.04 3378.11 988.032 3379.11 1107.04 3380.11 887.029 3380.11 968.032 3381.11 948.031 3382.11 1104.04 3382.11 960.031 3383.11 1127.04 3383.11 1083.04 3384.11 931.031 3385.11 999.033 3385.11 1083.04 3386.11 1093.04 3387.11 956.031 3387.11 1144.04 3388.11 988.032 3389.11 1017.03 3389.11 1127.04 3390.11 1112.04 3390.11 933.031 3391.11 1152.04 3392.11 915.03 3392.11 1145.04 3393.11 864.028 3394.11 1130.04 3394.11 904.03 3395.11 893.029 3395.11 1066.03 3396.11 1023.03 3397.11 976.032 3397.11 1012.03 3398.11 1087.04 3399.11 974.032 3399.11 908.03 3400.11 853.028 3401.11 1112.04 3401.11 965.032 3402.11 1139.04 3402.11 1011.03 3403.11 976.032 3404.11 1127.04 3404.11 1025.03 3405.11 1098.04 3406.11 1118.04 3406.11 1012.03 3407.11 944.031 3407.11 1133.04 3408.11 1066.03 3409.11 1077.04 3409.11 988.032 3410.11 1121.04 3411.11 924.03 3411.11 1110.04 3412.11 1034.03 3413.11 1129.04 3413.11 884.029 3414.11 888.029 3414.11 919.03 3415.11 951.031 3416.11 1112.04 3416.11 1060.03 3417.11 1130.04 3418.11 1026.03 3418.11 988.032 3419.11 1110.04 3419.11 1008.03 3420.11 973.032 3421.11 959.031 3421.11 852.028 3422.11 1106.04 3423.11 1037.03 3423.11 876.029 3424.11 922.03 3425.11 994.033 3425.11 1147.04 3426.11 1133.04 3426.11 921.03 3427.11 988.032 3428.11 982.032 3428.11 986.032 3429.11 1015.03 3430.11 925.03 3430.11 1104.04 3431.11 921.03 3431.11 974.032 3432.11 973.032 3433.11 973.032 3433.11 1029.03 3434.11 994.033 3435.11 1127.04 3435.11 930.031 3436.11 936.031 3437.11 934.031 3437.11 1149.04 3438.11 1017.03 3438.11 896.029 3439.11 970.032 3440.11 918.03 3440.11 1129.04 3441.11 1126.04 3442.11 1051.03 3442.11 982.032 3443.11 1092.04 3444.11 982.032 3444.11 1035.03 3445.11 960.031 3445.11 1129.04 3446.11 1121.04 3447.11 1123.04 3447.11 1017.03 3448.11 927.03 3449.11 895.029 3449.11 1051.03 3450.11 901.03 3450.11 817.027 3451.11 1113.04 3452.11 1118.04 3452.11 882.029 3453.11 999.033 3454.11 1031.03 3454.11 1075.04 3455.11 1048.03 3456.11 937.031 3456.11 1116.04 3457.11 890.029 3457.11 800.026 3458.11 1116.04 3459.11 1138.04 3459.11 953.031 3460.11 852.028 3461.11 1008.03 3461.11 931.031 3462.11 1023.03 3462.11 928.03 3463.11 1003.03 3464.11 1126.04 3464.11 1123.04 3465.11 910.03 3466.11 878.029 3466.11 939.031 3467.11 991.033 3468.11 902.03 3468.11 1069.04 3469.11 924.03 3469.11 876.029 3470.11 999.033 3471.11 928.03 3471.11 1037.03 3472.11 898.029 3473.11 941.031 3473.11 1031.03 3474.11 1029.03 3474.11 1115.04 3475.11 922.03 3476.11 806.026 3476.11 1104.04 3477.11 1009.03 3478.11 1095.04 3478.11 1138.04 3479.11 1109.04 3480.11 1119.04 3480.11 971.032 3481.11 1003.03 3481.11 1116.04 3482.11 1118.04 3483.11 1123.04 3483.11 1012.03 3484.11 1095.04 3485.11 803.026 3485.11 1106.04 3486.11 1002.03 3486.11 1086.04 3487.11 824.027 3488.11 999.033 3488.11 1112.04 3489.11 905.03 3490.11 948.031 3490.11 1124.04 3491.11 1100.04 3492.11 1060.03 3492.11 1075.04 3493.11 853.028 3493.11 1051.03 3494.11 893.029 3495.11 930.031 3495.11 950.031 3496.11 913.03 3497.11 918.03 3497.11 1029.03 3498.11 1061.03 3498.11 583.019 3499.11 1112.04 3500.11 1066.03 3500.11 815.027 3501.11 885.029 3502.11 1110.04 3502.11 835.027 3503.11 1078.04 3504.12 893.029 3504.12 1126.04 3505.12 1023.03 3505.12 1133.04 3506.12 1019.03 3507.12 859.028 3507.12 797.026 3508.12 994.033 3509.12 1109.04 3509.12 888.029 3510.12 1109.04 3511.12 841.028 3511.12 996.033 3512.12 885.029 3512.12 911.03 3513.12 991.033 3514.12 1087.04 3514.12 1098.04 3515.12 1098.04 3516.12 910.03 3516.12 927.03 3517.12 971.032 3517.12 928.03 3518.12 1136.04 3519.12 827.027 3519.12 752.025 3520.12 1116.04 3521.12 1142.04 3521.12 965.032 3522.12 1129.04 3523.12 988.032 3523.12 910.03 3524.12 986.032 3524.12 1086.04 3525.12 941.031 3526.12 820.027 3526.12 915.03 3527.12 1061.03 3528.12 1090.04 3528.12 1115.04 3529.12 928.03 3529.12 1106.04 3530.12 989.032 3531.12 1118.04 3531.12 1061.03 3532.12 835.027 3533.12 1023.03 3533.12 967.032 3534.12 832.027 3535.12 948.031 3535.12 1138.04 3536.12 762.025 3536.12 936.031 3537.12 1106.04 3538.12 1110.04 3538.12 953.031 3539.12 988.032 3540.12 993.033 3540.12 1127.04 3541.12 1095.04 3541.12 1145.04 3542.12 1000.03 3543.12 876.029 3543.12 927.03 3544.12 1048.03 3545.12 921.03 3545.12 1123.04 3546.12 918.03 3547.12 1130.04 3547.12 993.033 3548.12 931.031 3548.12 1118.04 3549.12 1011.03 3550.12 1118.04 3550.12 1127.04 3551.12 939.031 3552.12 1103.04 3552.12 1052.03 3553.12 963.032 3553.12 942.031 3554.12 700.023 3555.12 1020.03 3555.12 1064.03 3556.12 1135.04 3557.12 1011.03 3557.12 921.03 3558.12 899.029 3559.12 960.031 3559.12 988.032 3560.12 1126.04 3560.12 1121.04 3561.12 930.031 3562.12 706.023 3562.12 814.027 3563.12 882.029 3564.12 904.03 3564.12 1000.03 3565.12 974.032 3566.12 1135.04 3566.12 936.031 3567.12 1069.04 3567.12 1061.03 3568.12 1124.04 3569.12 919.03 3569.12 922.03 3570.12 1109.04 3571.12 974.032 3571.12 1002.03 3572.12 1023.03 3572.12 928.03 3573.12 1100.04 3574.12 774.025 3574.12 925.03 3575.12 1093.04 3576.12 1075.04 3576.12 941.031 3577.12 882.029 3578.12 930.031 3578.12 950.031 3579.12 1139.04 3579.12 1135.04 3580.12 971.032 3581.12 867.028 3581.12 977.032 3582.12 953.031 3583.12 869.029 3583.12 1052.03 3584.12 968.032 3584.12 1139.04 3585.12 1113.04 3586.12 1041.03 3586.12 1124.04 3587.12 986.032 3588.12 1135.04 3588.12 941.031 3589.12 1083.04 3590.12 934.031 3590.12 1145.04 3591.12 862.028 3591.12 963.032 3592.12 1026.03 3593.12 1015.03 3593.12 888.029 3594.12 918.03 3595.12 1020.03 3595.12 982.032 3596.12 916.03 3596.12 1034.03 3597.12 798.026 3598.12 951.031 3598.12 1015.03 3599.12 1144.04 3600.12 982.032 3600.12 1135.04 3601.12 947.031 3602.12 1011.03 3602.12 947.031 3603.12 985.032 3603.12 853.028 3604.12 1133.04 3605.12 1072.04 3605.12 1000.03 3606.12 922.03 3607.12 872.029 3607.12 581.019 3608.12 988.032 3608.12 965.032 3609.12 1107.04 3610.12 908.03 3610.12 1126.04 3611.12 1092.04 3612.12 956.031 3612.12 980.032 3613.12 967.032 3614.12 908.03 3614.12 892.029 3615.12 922.03 3615.12 922.03 3616.12 967.032 3617.12 866.028 3617.12 1032.03 3618.12 1138.04 3619.12 1034.03 3619.12 954.031 3620.12 836.027 3620.12 1118.04 3621.12 983.032 3622.12 997.033 3622.12 1126.04 3623.12 1063.03 3624.12 1127.04 3624.12 1071.04 3625.12 1064.03 3626.12 1025.03 3626.12 910.03 3627.12 1121.04 3627.12 950.031 3628.12 1141.04 3629.12 922.03 3629.12 965.032 3630.12 927.03 3631.12 1084.04 3631.12 1104.04 3632.12 1130.04 3633.12 918.03 3633.12 939.031 3634.12 797.026 3634.12 887.029 3635.12 875.029 3636.12 1116.04 3636.12 875.029 3637.12 1141.04 3638.12 862.028 3638.12 1095.04 3639.12 942.031 3639.12 931.031 3640.12 1107.04 3641.12 1115.04 3641.12 1080.04 3642.12 976.032 3643.12 1130.04 3643.12 833.027 3644.12 1142.04 3645.12 1067.03 3645.12 838.027 3646.12 878.029 3646.12 1133.04 3647.12 944.031 3648.12 847.028 3648.12 960.031 3649.12 907.03 3650.12 924.03 3650.12 1087.04 3651.12 941.031 3651.12 971.032 3652.12 1054.03 3653.12 442 3653.12 930.031 3654.12 1093.04 3655.12 939.031 3655.12 882.029 3656.12 905.03 3657.12 945.031 3657.12 1097.04 3658.12 1130.04 3658.12 1139.04 3659.12 936.031 3660.12 1032.03 3660.12 915.03 3661.12 1115.04 3662.12 968.032 3662.12 1113.04 3663.12 872.029 3663.12 904.03 3664.12 986.032 3665.12 989.032 3665.12 1104.04 3666.12 973.032 3667.12 1145.04 3667.12 991.033 3668.12 945.031 3669.12 1123.04 3669.12 982.032 3670.12 1087.04 3670.12 928.03 3671.12 944.031 3672.12 1077.04 3672.12 1060.03 3673.12 890.029 3674.12 1006.03 3674.12 988.032 3675.12 1135.04 3675.12 1041.03 3676.12 976.032 3677.12 1129.04 3677.12 862.028 3678.12 928.03 3679.12 1067.03 3679.12 904.03 3680.12 1116.04 3681.12 1136.04 3681.12 847.028 3682.12 832.027 3682.12 899.029 3683.12 902.03 3684.12 905.03 3684.12 1008.03 3685.12 1048.03 3686.12 921.03 3686.12 895.029 3687.12 971.032 3688.12 1064.03 3688.12 939.031 3689.12 977.032 3689.12 994.033 3690.12 1006.03 3691.12 777.026 3691.12 954.031 3692.12 941.031 3693.12 988.032 3693.12 1133.04 3694.12 1020.03 3694.12 921.03 3695.12 1109.04 3696.12 994.033 3696.12 1089.04 3697.12 1071.04 3698.12 1098.04 3698.12 1020.03 3699.12 942.031 3700.12 973.032 3700 1097.04" stroke="#4472C4" stroke-width="10.3125" stroke-linecap="round" stroke-linejoin="round" stroke-miterlimit="10" fill="none"/></g><g><text fill="#595959" font-family="Calibri,Calibri_MSFontService,sans-serif" font-weight="400" font-size="41" transform="matrix(1 0 0 1 1266.47 1185)">0</text></g><g><text fill="#595959" font-family="Calibri,Calibri_MSFontService,sans-serif" font-weight="400" font-size="41" transform="matrix(1 0 0 1 1224.67 1032)">100</text></g><g><text fill="#595959" font-family="Calibri,Calibri_MSFontService,sans-serif" font-weight="400" font-size="41" transform="matrix(1 0 0 1 1224.67 879)">200</text></g><g><text fill="#595959" font-family="Calibri,Calibri_MSFontService,sans-serif" font-weight="400" font-size="41" transform="matrix(1 0 0 1 1224.67 726)">300</text></g><g><text fill="#595959" font-family="Calibri,Calibri_MSFontService,sans-serif" font-weight="400" font-size="41" transform="matrix(1 0 0 1 1224.67 573)">400</text></g><g><text fill="#595959" font-family="Calibri,Calibri_MSFontService,sans-serif" font-weight="400" font-size="41" transform="matrix(1 0 0 1 1224.67 420)">500</text></g><g><text fill="#595959" font-family="Calibri,Calibri_MSFontService,sans-serif" font-weight="400" font-size="41" transform="matrix(1 0 0 1 1224.67 267)">600</text></g><g><text fill="#595959" font-family="Calibri,Calibri_MSFontService,sans-serif" font-weight="400" font-size="41" transform="matrix(6.12323e-17 -1 1 6.12323e-17 1339.78 1241)">39</text></g><g><text fill="#595959" font-family="Calibri,Calibri_MSFontService,sans-serif" font-weight="400" font-size="41" transform="matrix(6.12323e-17 -1 1 6.12323e-17 1390.35 1283)">1733</text></g><g><text fill="#595959" font-family="Calibri,Calibri_MSFontService,sans-serif" font-weight="400" font-size="41" transform="matrix(6.12323e-17 -1 1 6.12323e-17 1440.92 1283)">3340</text></g><g><text fill="#595959" font-family="Calibri,Calibri_MSFontService,sans-serif" font-weight="400" font-size="41" transform="matrix(6.12323e-17 -1 1 6.12323e-17 1491.49 1283)">5193</text></g><g><text fill="#595959" font-family="Calibri,Calibri_MSFontService,sans-serif" font-weight="400" font-size="41" transform="matrix(6.12323e-17 -1 1 6.12323e-17 1542.06 1283)">7002</text></g><g><text fill="#595959" font-family="Calibri,Calibri_MSFontService,sans-serif" font-weight="400" font-size="41" transform="matrix(6.12323e-17 -1 1 6.12323e-17 1592.63 1283)">8484</text></g><g><text fill="#595959" font-family="Calibri,Calibri_MSFontService,sans-serif" font-weight="400" font-size="41" transform="matrix(6.12323e-17 -1 1 6.12323e-17 1643.2 1283)">9995</text></g><g><text fill="#595959" font-family="Calibri,Calibri_MSFontService,sans-serif" font-weight="400" font-size="41" transform="matrix(6.12323e-17 -1 1 6.12323e-17 1693.77 1304)">11447</text></g><g><text fill="#595959" font-family="Calibri,Calibri_MSFontService,sans-serif" font-weight="400" font-size="41" transform="matrix(6.12323e-17 -1 1 6.12323e-17 1744.35 1304)">13069</text></g><g><text fill="#595959" font-family="Calibri,Calibri_MSFontService,sans-serif" font-weight="400" font-size="41" transform="matrix(6.12323e-17 -1 1 6.12323e-17 1794.92 1304)">14991</text></g><g><text fill="#595959" font-family="Calibri,Calibri_MSFontService,sans-serif" font-weight="400" font-size="41" transform="matrix(6.12323e-17 -1 1 6.12323e-17 1845.49 1304)">17053</text></g><g><text fill="#595959" font-family="Calibri,Calibri_MSFontService,sans-serif" font-weight="400" font-size="41" transform="matrix(6.12323e-17 -1 1 6.12323e-17 1896.06 1304)">18872</text></g><g><text fill="#595959" font-family="Calibri,Calibri_MSFontService,sans-serif" font-weight="400" font-size="41" transform="matrix(6.12323e-17 -1 1 6.12323e-17 1946.63 1304)">20775</text></g><g><text fill="#595959" font-family="Calibri,Calibri_MSFontService,sans-serif" font-weight="400" font-size="41" transform="matrix(6.12323e-17 -1 1 6.12323e-17 1997.2 1304)">22787</text></g><g><text fill="#595959" font-family="Calibri,Calibri_MSFontService,sans-serif" font-weight="400" font-size="41" transform="matrix(6.12323e-17 -1 1 6.12323e-17 2047.77 1304)">24737</text></g><g><text fill="#595959" font-family="Calibri,Calibri_MSFontService,sans-serif" font-weight="400" font-size="41" transform="matrix(6.12323e-17 -1 1 6.12323e-17 2098.34 1304)">27088</text></g><g><text fill="#595959" font-family="Calibri,Calibri_MSFontService,sans-serif" font-weight="400" font-size="41" transform="matrix(6.12323e-17 -1 1 6.12323e-17 2148.91 1304)">29397</text></g><g><text fill="#595959" font-family="Calibri,Calibri_MSFontService,sans-serif" font-weight="400" font-size="41" transform="matrix(6.12323e-17 -1 1 6.12323e-17 2199.49 1304)">31515</text></g><g><text fill="#595959" font-family="Calibri,Calibri_MSFontService,sans-serif" font-weight="400" font-size="41" transform="matrix(6.12323e-17 -1 1 6.12323e-17 2250.06 1304)">33988</text></g><g><text fill="#595959" font-family="Calibri,Calibri_MSFontService,sans-serif" font-weight="400" font-size="41" transform="matrix(6.12323e-17 -1 1 6.12323e-17 2300.63 1304)">36604</text></g><g><text fill="#595959" font-family="Calibri,Calibri_MSFontService,sans-serif" font-weight="400" font-size="41" transform="matrix(6.12323e-17 -1 1 6.12323e-17 2351.2 1304)">39233</text></g><g><text fill="#595959" font-family="Calibri,Calibri_MSFontService,sans-serif" font-weight="400" font-size="41" transform="matrix(6.12323e-17 -1 1 6.12323e-17 2401.77 1304)">42168</text></g><g><text fill="#595959" font-family="Calibri,Calibri_MSFontService,sans-serif" font-weight="400" font-size="41" transform="matrix(6.12323e-17 -1 1 6.12323e-17 2452.34 1304)">44915</text></g><g><text fill="#595959" font-family="Calibri,Calibri_MSFontService,sans-serif" font-weight="400" font-size="41" transform="matrix(6.12323e-17 -1 1 6.12323e-17 2502.91 1304)">47875</text></g><g><text fill="#595959" font-family="Calibri,Calibri_MSFontService,sans-serif" font-weight="400" font-size="41" transform="matrix(6.12323e-17 -1 1 6.12323e-17 2553.48 1304)">51185</text></g><g><text fill="#595959" font-family="Calibri,Calibri_MSFontService,sans-serif" font-weight="400" font-size="41" transform="matrix(6.12323e-17 -1 1 6.12323e-17 2604.06 1304)">54405</text></g><g><text fill="#595959" font-family="Calibri,Calibri_MSFontService,sans-serif" font-weight="400" font-size="41" transform="matrix(6.12323e-17 -1 1 6.12323e-17 2654.63 1304)">58214</text></g><g><text fill="#595959" font-family="Calibri,Calibri_MSFontService,sans-serif" font-weight="400" font-size="41" transform="matrix(6.12323e-17 -1 1 6.12323e-17 2705.2 1304)">61829</text></g><g><text fill="#595959" font-family="Calibri,Calibri_MSFontService,sans-serif" font-weight="400" font-size="41" transform="matrix(6.12323e-17 -1 1 6.12323e-17 2755.77 1304)">65633</text></g><g><text fill="#595959" font-family="Calibri,Calibri_MSFontService,sans-serif" font-weight="400" font-size="41" transform="matrix(6.12323e-17 -1 1 6.12323e-17 2806.34 1304)">69977</text></g><g><text fill="#595959" font-family="Calibri,Calibri_MSFontService,sans-serif" font-weight="400" font-size="41" transform="matrix(6.12323e-17 -1 1 6.12323e-17 2856.91 1304)">73941</text></g><g><text fill="#595959" font-family="Calibri,Calibri_MSFontService,sans-serif" font-weight="400" font-size="41" transform="matrix(6.12323e-17 -1 1 6.12323e-17 2907.48 1304)">78826</text></g><g><text fill="#595959" font-family="Calibri,Calibri_MSFontService,sans-serif" font-weight="400" font-size="41" transform="matrix(6.12323e-17 -1 1 6.12323e-17 2958.05 1304)">84421</text></g><g><text fill="#595959" font-family="Calibri,Calibri_MSFontService,sans-serif" font-weight="400" font-size="41" transform="matrix(6.12323e-17 -1 1 6.12323e-17 3008.62 1304)">89612</text></g><g><text fill="#595959" font-family="Calibri,Calibri_MSFontService,sans-serif" font-weight="400" font-size="41" transform="matrix(6.12323e-17 -1 1 6.12323e-17 3059.2 1304)">95386</text></g><g><text fill="#595959" font-family="Calibri,Calibri_MSFontService,sans-serif" font-weight="400" font-size="41" transform="matrix(6.12323e-17 -1 1 6.12323e-17 3109.77 1325)">101022</text></g><g><text fill="#595959" font-family="Calibri,Calibri_MSFontService,sans-serif" font-weight="400" font-size="41" transform="matrix(6.12323e-17 -1 1 6.12323e-17 3160.34 1325)">107437</text></g><g><text fill="#595959" font-family="Calibri,Calibri_MSFontService,sans-serif" font-weight="400" font-size="41" transform="matrix(6.12323e-17 -1 1 6.12323e-17 3210.91 1325)">114542</text></g><g><text fill="#595959" font-family="Calibri,Calibri_MSFontService,sans-serif" font-weight="400" font-size="41" transform="matrix(6.12323e-17 -1 1 6.12323e-17 3261.48 1325)">121822</text></g><g><text fill="#595959" font-family="Calibri,Calibri_MSFontService,sans-serif" font-weight="400" font-size="41" transform="matrix(6.12323e-17 -1 1 6.12323e-17 3312.05 1325)">128993</text></g><g><text fill="#595959" font-family="Calibri,Calibri_MSFontService,sans-serif" font-weight="400" font-size="41" transform="matrix(6.12323e-17 -1 1 6.12323e-17 3362.62 1325)">136666</text></g><g><text fill="#595959" font-family="Calibri,Calibri_MSFontService,sans-serif" font-weight="400" font-size="41" transform="matrix(6.12323e-17 -1 1 6.12323e-17 3413.19 1325)">144807</text></g><g><text fill="#595959" font-family="Calibri,Calibri_MSFontService,sans-serif" font-weight="400" font-size="41" transform="matrix(6.12323e-17 -1 1 6.12323e-17 3463.77 1325)">153056</text></g><g><text fill="#595959" font-family="Calibri,Calibri_MSFontService,sans-serif" font-weight="400" font-size="41" transform="matrix(6.12323e-17 -1 1 6.12323e-17 3514.34 1325)">162343</text></g><g><text fill="#595959" font-family="Calibri,Calibri_MSFontService,sans-serif" font-weight="400" font-size="41" transform="matrix(6.12323e-17 -1 1 6.12323e-17 3564.91 1325)">171590</text></g><g><text fill="#595959" font-family="Calibri,Calibri_MSFontService,sans-serif" font-weight="400" font-size="41" transform="matrix(6.12323e-17 -1 1 6.12323e-17 3615.48 1325)">181163</text></g><g><text fill="#595959" font-family="Calibri,Calibri_MSFontService,sans-serif" font-weight="400" font-size="41" transform="matrix(6.12323e-17 -1 1 6.12323e-17 3666.05 1325)">190851</text></g><g><text fill="#595959" font-family="Calibri,Calibri_MSFontService,sans-serif" font-weight="400" font-size="64" transform="matrix(1 0 0 1 2393.1 1399)">Timestep</text></g><g><text fill="#595959" font-family="Calibri,Calibri_MSFontService,sans-serif" font-weight="400" font-size="64" transform="matrix(1 0 0 1 2380.82 181)">reward</text></g><rect x="1195.5" y="85.5001" width="2556" height="1389" stroke="#D9D9D9" stroke-width="3.4375" stroke-linejoin="round" stroke-miterlimit="10" fill="none"/></g></svg>