<svg width="1921" height="1177" xmlns="http://www.w3.org/2000/svg" xmlns:xlink="http://www.w3.org/1999/xlink" xml:space="preserve" overflow="hidden"><defs><clipPath id="clip0"><rect x="1620" y="205" width="1921" height="1177"/></clipPath></defs><g clip-path="url(#clip0)" transform="translate(-1620 -205)"><rect x="1621" y="206" width="1918" height="1174" fill="#FFFFFF"/><g><path d="M1772.5 1114.54 3488.5 1114.54M1772.5 966.532 3488.5 966.532M1772.5 819.527 3488.5 819.527M1772.5 671.522 3488.5 671.522M1772.5 523.517 3488.5 523.517M1772.5 376.5 3488.5 376.5" stroke="#D9D9D9" stroke-width="3.4375" stroke-linejoin="round" stroke-miterlimit="10" fill="none"/></g><g><path d="M1772.5 1261.5 3488.5 1261.5" stroke="#D9D9D9" stroke-width="3.4375" stroke-linejoin="round" stroke-miterlimit="10" fill="none" fill-rule="evenodd"/></g><g><path d="M1774 1250.04 1778.06 1246.04 1781.06 1251.04 1785.06 1254.04 1788.06 1251.04 1792.06 1248.04 1795.06 1248.04 1798.06 1248.04 1802.06 1240.04 1805.06 1220.04 1809.06 1244.04 1812.06 1247.04 1816.06 1245.04 1819.06 1240.04 1822.06 1215.04 1826.06 1230.04 1829.06 1237.04 1833.06 1234.04 1836.06 1213.04 1840.06 1242.04 1843.06 1255 1847.06 1243.04 1850.06 1234.04 1853.06 1231.04 1857.06 1249.04 1860.06 1248.04 1864.06 1233.04 1867.06 1250.04 1871.06 1218.04 1874.06 1243.04 1877.06 1248.04 1881.06 1237.04 1884.06 1231.04 1888.06 1251.04 1891.06 1242.04 1895.06 1251.04 1898.06 1247.04 1901.06 1232.04 1905.06 1254.04 1908.06 1246.04 1912.06 1241.04 1915.06 1243.04 1919.06 1197.04 1922.06 1248.04 1925.06 1248.04 1929.06 1244.04 1932.06 1250.04 1936.06 1222.04 1939.06 1248.04 1943.06 1212.04 1946.06 1249.04 1949.06 1246.04 1953.06 1252.04 1956.06 1250.04 1960.06 1241.04 1963.06 1248.04 1967.06 1242.04 1970.06 1248.04 1973.06 1241.04 1977.06 1254.04 1980.06 1254.04 1984.07 1254.04 1987.07 1247.04 1991.07 1254.04 1994.07 1246.04 1998.07 1232.04 2001.07 1220.04 2004.07 1246.04 2008.07 1253.04 2011.07 1251.04 2015.07 1247.04 2018.07 1175.04 2022.07 1244.04 2025.07 1235.04 2028.07 1236.04 2032.07 1218.04 2035.07 1238.04 2039.07 1241.04 2042.07 1229.04 2046.07 1249.04 2049.07 1224.04 2052.07 1230.04 2056.07 1233.04 2059.07 1237.04 2063.07 1240.04 2066.07 1239.04 2070.07 1212.04 2073.07 1247.04 2076.07 1249.04 2080.07 1251.04 2083.07 1248.04 2087.07 1219.04 2090.07 1237.04 2094.07 1237.04 2097.07 1236.04 2100.07 1220.04 2104.07 1234.04 2107.07 1167.04 2111.07 1224.04 2114.07 1228.04 2118.07 1215.04 2121.07 1212.04 2125.07 1234.04 2128.07 1230.04 2131.07 1208.04 2135.07 1240.04 2138.07 1226.04 2142.07 1223.04 2145.07 1240.04 2149.07 1230.04 2152.07 1136.04 2155.07 1223.04 2159.07 1193.04 2162.07 1232.04 2166.07 1104.04 2169.07 1232.04 2173.07 1220.04 2176.07 1215.04 2179.07 1222.04 2183.07 1212.04 2186.07 1178.04 2190.07 1214.04 2193.07 1141.04 2197.07 1187.04 2200.07 1229.04 2203.07 1182.04 2207.07 1174.04 2210.07 1167.04 2214.07 1195.04 2217.07 1197.04 2221.07 1205.04 2224.07 1234.04 2227.07 1160.04 2231.07 1215.04 2234.07 1170.04 2238.07 1143.04 2241.07 1166.04 2245.07 1180.04 2248.07 1137.04 2251.07 1125.04 2255.07 1172.04 2258.07 1185.04 2262.07 1128.04 2265.07 1146.04 2269.07 1149.04 2272.07 1198.04 2276.07 1174.04 2279.07 1180.04 2282.07 1107.04 2286.07 1149.04 2289.08 1012.03 2293.08 1144.04 2296.08 1175.04 2300.08 954.031 2303.08 1091.04 2306.08 1073.04 2310.08 1106.04 2313.08 1085.04 2317.08 1046.03 2320.08 1018.03 2324.08 958.031 2327.08 735.024 2330.08 1064.03 2334.08 1072.04 2337.08 890.029 2341.08 838.027 2344.08 901.03 2348.08 932.031 2351.08 1024.03 2354.08 1019.03 2358.08 1171.04 2361.08 1112.04 2365.08 1041.03 2368.08 1098.04 2372.08 1135.04 2375.08 1165.04 2378.08 1018.03 2382.08 1063.03 2385.08 832.027 2389.08 677.022 2392.08 815.027 2396.08 603.02 2399.08 868.028 2402.08 928.03 2406.08 778.026 2409.08 1107.04 2413.08 1011.03 2416.08 941.031 2420.08 1040.03 2423.08 1037.03 2427.08 813.027 2430.08 910.03 2433.08 855.028 2437.08 524 2440.08 1041.03 2444.08 928.03 2447.08 843.028 2451.08 1049.03 2454.08 993.033 2457.08 1084.04 2461.08 1092.04 2464.08 1085.04 2468.08 1022.03 2471.08 820.027 2475.08 1054.03 2478.08 716.023 2481.08 1065.03 2485.08 1055.03 2488.08 867.028 2492.08 1107.04 2495.08 1071.04 2499.08 967.032 2502.08 973.032 2505.08 580.019 2509.08 1025.03 2512.08 1051.03 2516.08 1032.03 2519.08 788.026 2523.08 1049.03 2526.08 1083.04 2529.08 1087.04 2533.08 1074.04 2536.08 928.03 2540.08 841.028 2543.08 820.027 2547.08 1112.04 2550.08 1005.03 2554.08 842.028 2557.08 1091.04 2560.08 768.025 2564.08 1125.04 2567.08 903.03 2571.08 1093.04 2574.08 976.032 2578.08 970.032 2581.08 1096.04 2584.08 978.032 2588.08 829.027 2591.08 1015.03 2595.09 911.03 2598.09 1059.03 2602.09 1093.04 2605.09 818.027 2608.09 1105.04 2612.09 1022.03 2615.09 1068.04 2619.09 728.024 2622.09 818.027 2626.09 1004.03 2629.09 1099.04 2632.09 603.02 2636.09 688.023 2639.09 923.03 2643.09 524 2646.09 945.031 2650.09 688.023 2653.09 749.025 2656.09 524 2660.09 524 2663.09 809.027 2667.09 571.019 2670.09 873.029 2674.09 524 2677.09 1085.04 2680.09 524 2684.09 671.022 2687.09 958.031 2691.09 524 2694.09 842.028 2698.09 524 2701.09 1015.03 2705.09 567.019 2708.09 810.027 2711.09 649.021 2715.09 1057.03 2718.09 863.028 2722.09 789.026 2725.09 1136.04 2729.09 1068.04 2732.09 524 2735.09 818.027 2739.09 758.025 2742.09 945.031 2746.09 811.027 2749.09 1034.03 2753.09 952.031 2756.09 1125.04 2759.09 899.03 2763.09 1020.03 2766.09 773.025 2770.09 995.033 2773.09 950.031 2777.09 1085.04 2780.09 977.032 2783.09 1033.03 2787.09 1096.04 2790.09 1126.04 2794.09 1058.03 2797.09 1153.04 2801.09 1117.04 2804.09 1141.04 2807.09 1166.04 2811.09 1150.04 2814.09 1105.04 2818.09 1189.04 2821.09 1181.04 2825.09 1187.04 2828.09 1226.04 2831.09 1220.04 2835.09 1157.04 2838.09 1218.04 2842.09 1173.04 2845.09 1221.04 2849.09 1224.04 2852.09 1167.04 2856.09 1191.04 2859.09 1192.04 2862.09 1190.04 2866.09 1171.04 2869.09 1190.04 2873.09 1217.04 2876.09 1156.04 2880.09 1160.04 2883.09 1156.04 2886.09 1121.04 2890.09 1127.04 2893.09 1118.04 2897.1 1120.04 2900.1 1068.04 2904.1 1062.03 2907.1 1123.04 2910.1 951.031 2914.1 1060.03 2917.1 956.031 2921.1 1022.03 2924.1 878.029 2928.1 875.029 2931.1 1051.03 2934.1 675.022 2938.1 905.03 2941.1 524 2945.1 854.028 2948.1 524 2952.1 793.026 2955.1 778.026 2958.1 826.027 2962.1 794.026 2965.1 873.029 2969.1 614.02 2972.1 708.023 2976.1 775.025 2979.1 625.021 2983.1 705.023 2986.1 892.029 2989.1 789.026 2993.1 834.027 2996.1 524 3000.1 716.023 3003.1 618.02 3007.1 911.03 3010.1 694.023 3013.1 524 3017.1 592.019 3020.1 734.024 3024.1 739.024 3027.1 913.03 3031.1 713.023 3034.1 524 3037.1 822.027 3041.1 775.025 3044.1 865.028 3048.1 650.021 3051.1 524 3055.1 530.017 3058.1 645.021 3061.1 873.029 3065.1 524 3068.1 609.02 3072.1 699.023 3075.1 1229.04 3079.1 524 3082.1 708.023 3085.1 628.021 3089.1 657.022 3092.1 524 3096.1 524 3099.1 524 3103.1 939.031 3106.1 706.023 3109.1 752.025 3113.1 535.018 3116.1 639.021 3120.1 564.018 3123.1 960.031 3127.1 902.03 3130.1 778.026 3134.1 913.03 3137.1 524 3140.1 860.028 3144.1 742.024 3147.1 524 3151.1 967.032 3154.1 860.028 3158.1 899.03 3161.1 823.027 3164.1 563.018 3168.1 931.031 3171.1 748.025 3175.1 1020.03 3178.1 950.031 3182.1 524 3185.1 1027.03 3188.1 647.021 3192.1 939.031 3195.1 962.032 3199.1 884.029 3202.1 734.024 3206.11 974.032 3209.11 888.029 3212.11 815.027 3216.11 624.021 3219.11 933.031 3223.11 524 3226.11 744.024 3230.11 524 3233.11 885.029 3236.11 854.028 3240.11 975.032 3243.11 933.031 3247.11 880.029 3250.11 880.029 3254.11 941.031 3257.11 716.023 3260.11 847.028 3264.11 790.026 3267.11 849.028 3271.11 524 3274.11 524 3278.11 524 3281.11 524 3285.11 524 3288.11 524 3291.11 524 3295.11 524 3298.11 524 3302.11 524 3305.11 524 3309.11 524 3312.11 524 3315.11 524 3319.11 524 3322.11 524 3326.11 524 3329.11 524 3333.11 524 3336.11 524 3339.11 524 3343.11 524 3346.11 524 3350.11 524 3353.11 524 3357.11 524 3360.11 524 3363.11 524 3367.11 524 3370.11 524 3374.11 524 3377.11 524 3381.11 524 3384.11 524 3387.11 524 3391.11 524 3394.11 524 3398.11 524 3401.11 524 3405.11 524 3408.11 524 3411.11 524 3415.11 524 3418.11 524 3422.11 524 3425.11 524 3429.11 524 3432.11 524 3436.11 524 3439.11 524 3442.11 524 3446.11 524 3449.11 524 3453.11 524 3456.11 524 3460.11 524 3463.11 524 3466.11 524 3470.11 524 3473.11 524 3477.11 524 3480.11 524 3484.11 524 3487 524" stroke="#4472C4" stroke-width="10.3125" stroke-linecap="round" stroke-linejoin="round" stroke-miterlimit="10" fill="none"/></g><g><text fill="#595959" font-family="Calibri,Calibri_MSFontService,sans-serif" font-weight="400" font-size="41" transform="matrix(1 0 0 1 1713.62 1273)">0</text></g><g><text fill="#595959" font-family="Calibri,Calibri_MSFontService,sans-serif" font-weight="400" font-size="41" transform="matrix(1 0 0 1 1671.82 1126)">200</text></g><g><text fill="#595959" font-family="Calibri,Calibri_MSFontService,sans-serif" font-weight="400" font-size="41" transform="matrix(1 0 0 1 1671.82 978)">400</text></g><g><text fill="#595959" font-family="Calibri,Calibri_MSFontService,sans-serif" font-weight="400" font-size="41" transform="matrix(1 0 0 1 1671.82 831)">600</text></g><g><text fill="#595959" font-family="Calibri,Calibri_MSFontService,sans-serif" font-weight="400" font-size="41" transform="matrix(1 0 0 1 1671.82 683)">800</text></g><g><text fill="#595959" font-family="Calibri,Calibri_MSFontService,sans-serif" font-weight="400" font-size="41" transform="matrix(1 0 0 1 1650.92 535)">1000</text></g><g><text fill="#595959" font-family="Calibri,Calibri_MSFontService,sans-serif" font-weight="400" font-size="41" transform="matrix(1 0 0 1 1650.92 388)">1200</text></g><g><text fill="#595959" font-family="Calibri,Calibri_MSFontService,sans-serif" font-weight="400" font-size="41" transform="matrix(6.12323e-17 -1 1 6.12323e-17 1788.33 1309)">1</text></g><g><text fill="#595959" font-family="Calibri,Calibri_MSFontService,sans-serif" font-weight="400" font-size="41" transform="matrix(6.12323e-17 -1 1 6.12323e-17 1839.81 1330)">16</text></g><g><text fill="#595959" font-family="Calibri,Calibri_MSFontService,sans-serif" font-weight="400" font-size="41" transform="matrix(6.12323e-17 -1 1 6.12323e-17 1891.29 1330)">31</text></g><g><text fill="#595959" font-family="Calibri,Calibri_MSFontService,sans-serif" font-weight="400" font-size="41" transform="matrix(6.12323e-17 -1 1 6.12323e-17 1942.77 1330)">46</text></g><g><text fill="#595959" font-family="Calibri,Calibri_MSFontService,sans-serif" font-weight="400" font-size="41" transform="matrix(6.12323e-17 -1 1 6.12323e-17 1994.25 1330)">61</text></g><g><text fill="#595959" font-family="Calibri,Calibri_MSFontService,sans-serif" font-weight="400" font-size="41" transform="matrix(6.12323e-17 -1 1 6.12323e-17 2045.73 1330)">76</text></g><g><text fill="#595959" font-family="Calibri,Calibri_MSFontService,sans-serif" font-weight="400" font-size="41" transform="matrix(6.12323e-17 -1 1 6.12323e-17 2097.21 1330)">91</text></g><g><text fill="#595959" font-family="Calibri,Calibri_MSFontService,sans-serif" font-weight="400" font-size="41" transform="matrix(6.12323e-17 -1 1 6.12323e-17 2148.7 1351)">106</text></g><g><text fill="#595959" font-family="Calibri,Calibri_MSFontService,sans-serif" font-weight="400" font-size="41" transform="matrix(6.12323e-17 -1 1 6.12323e-17 2200.18 1351)">121</text></g><g><text fill="#595959" font-family="Calibri,Calibri_MSFontService,sans-serif" font-weight="400" font-size="41" transform="matrix(6.12323e-17 -1 1 6.12323e-17 2251.66 1351)">136</text></g><g><text fill="#595959" font-family="Calibri,Calibri_MSFontService,sans-serif" font-weight="400" font-size="41" transform="matrix(6.12323e-17 -1 1 6.12323e-17 2303.14 1351)">151</text></g><g><text fill="#595959" font-family="Calibri,Calibri_MSFontService,sans-serif" font-weight="400" font-size="41" transform="matrix(6.12323e-17 -1 1 6.12323e-17 2354.62 1351)">166</text></g><g><text fill="#595959" font-family="Calibri,Calibri_MSFontService,sans-serif" font-weight="400" font-size="41" transform="matrix(6.12323e-17 -1 1 6.12323e-17 2406.1 1351)">181</text></g><g><text fill="#595959" font-family="Calibri,Calibri_MSFontService,sans-serif" font-weight="400" font-size="41" transform="matrix(6.12323e-17 -1 1 6.12323e-17 2457.58 1351)">196</text></g><g><text fill="#595959" font-family="Calibri,Calibri_MSFontService,sans-serif" font-weight="400" font-size="41" transform="matrix(6.12323e-17 -1 1 6.12323e-17 2509.07 1351)">211</text></g><g><text fill="#595959" font-family="Calibri,Calibri_MSFontService,sans-serif" font-weight="400" font-size="41" transform="matrix(6.12323e-17 -1 1 6.12323e-17 2560.55 1351)">226</text></g><g><text fill="#595959" font-family="Calibri,Calibri_MSFontService,sans-serif" font-weight="400" font-size="41" transform="matrix(6.12323e-17 -1 1 6.12323e-17 2612.03 1351)">241</text></g><g><text fill="#595959" font-family="Calibri,Calibri_MSFontService,sans-serif" font-weight="400" font-size="41" transform="matrix(6.12323e-17 -1 1 6.12323e-17 2663.51 1351)">256</text></g><g><text fill="#595959" font-family="Calibri,Calibri_MSFontService,sans-serif" font-weight="400" font-size="41" transform="matrix(6.12323e-17 -1 1 6.12323e-17 2714.99 1351)">271</text></g><g><text fill="#595959" font-family="Calibri,Calibri_MSFontService,sans-serif" font-weight="400" font-size="41" transform="matrix(6.12323e-17 -1 1 6.12323e-17 2766.47 1351)">286</text></g><g><text fill="#595959" font-family="Calibri,Calibri_MSFontService,sans-serif" font-weight="400" font-size="41" transform="matrix(6.12323e-17 -1 1 6.12323e-17 2817.96 1351)">301</text></g><g><text fill="#595959" font-family="Calibri,Calibri_MSFontService,sans-serif" font-weight="400" font-size="41" transform="matrix(6.12323e-17 -1 1 6.12323e-17 2869.44 1351)">316</text></g><g><text fill="#595959" font-family="Calibri,Calibri_MSFontService,sans-serif" font-weight="400" font-size="41" transform="matrix(6.12323e-17 -1 1 6.12323e-17 2920.92 1351)">331</text></g><g><text fill="#595959" font-family="Calibri,Calibri_MSFontService,sans-serif" font-weight="400" font-size="41" transform="matrix(6.12323e-17 -1 1 6.12323e-17 2972.4 1351)">346</text></g><g><text fill="#595959" font-family="Calibri,Calibri_MSFontService,sans-serif" font-weight="400" font-size="41" transform="matrix(6.12323e-17 -1 1 6.12323e-17 3023.88 1351)">361</text></g><g><text fill="#595959" font-family="Calibri,Calibri_MSFontService,sans-serif" font-weight="400" font-size="41" transform="matrix(6.12323e-17 -1 1 6.12323e-17 3075.36 1351)">376</text></g><g><text fill="#595959" font-family="Calibri,Calibri_MSFontService,sans-serif" font-weight="400" font-size="41" transform="matrix(6.12323e-17 -1 1 6.12323e-17 3126.84 1351)">391</text></g><g><text fill="#595959" font-family="Calibri,Calibri_MSFontService,sans-serif" font-weight="400" font-size="41" transform="matrix(6.12323e-17 -1 1 6.12323e-17 3178.33 1351)">406</text></g><g><text fill="#595959" font-family="Calibri,Calibri_MSFontService,sans-serif" font-weight="400" font-size="41" transform="matrix(6.12323e-17 -1 1 6.12323e-17 3229.81 1351)">421</text></g><g><text fill="#595959" font-family="Calibri,Calibri_MSFontService,sans-serif" font-weight="400" font-size="41" transform="matrix(6.12323e-17 -1 1 6.12323e-17 3281.29 1351)">436</text></g><g><text fill="#595959" font-family="Calibri,Calibri_MSFontService,sans-serif" font-weight="400" font-size="41" transform="matrix(6.12323e-17 -1 1 6.12323e-17 3332.77 1351)">451</text></g><g><text fill="#595959" font-family="Calibri,Calibri_MSFontService,sans-serif" font-weight="400" font-size="41" transform="matrix(6.12323e-17 -1 1 6.12323e-17 3384.25 1351)">466</text></g><g><text fill="#595959" font-family="Calibri,Calibri_MSFontService,sans-serif" font-weight="400" font-size="41" transform="matrix(6.12323e-17 -1 1 6.12323e-17 3435.73 1351)">481</text></g><g><text fill="#595959" font-family="Calibri,Calibri_MSFontService,sans-serif" font-weight="400" font-size="41" transform="matrix(6.12323e-17 -1 1 6.12323e-17 3487.21 1351)">496</text></g><g><text fill="#595959" font-family="Calibri,Calibri_MSFontService,sans-serif" font-weight="400" font-size="64" transform="matrix(1 0 0 1 2488.07 302)">reward</text></g><rect x="1621.5" y="206.5" width="1918" height="1174" stroke="#D9D9D9" stroke-width="3.4375" stroke-linejoin="round" stroke-miterlimit="10" fill="none"/></g></svg>