<svg width="2097" height="1295" xmlns="http://www.w3.org/2000/svg" xmlns:xlink="http://www.w3.org/1999/xlink" xml:space="preserve" overflow="hidden"><defs><clipPath id="clip0"><rect x="1318" y="200" width="2097" height="1295"/></clipPath></defs><g clip-path="url(#clip0)" transform="translate(-1318 -200)"><rect x="1319" y="201" width="2094" height="1292" fill="#FFFFFF"/><g><path d="M1470.5 1207.54 3362.5 1207.54M1470.5 1039.53 3362.5 1039.53M1470.5 872.529 3362.5 872.529M1470.5 705.523 3362.5 705.523M1470.5 538.518 3362.5 538.518M1470.5 370.5 3362.5 370.5" stroke="#D9D9D9" stroke-width="3.4375" stroke-linejoin="round" stroke-miterlimit="10" fill="none"/></g><g><path d="M1470.5 1374.5 3362.5 1374.5" stroke="#D9D9D9" stroke-width="3.4375" stroke-linejoin="round" stroke-miterlimit="10" fill="none" fill-rule="evenodd"/></g><g><path d="M1471 1347.04 1473.05 1366 1475.05 1364.04 1477.05 1352.04 1479.05 1344.04 1481.05 1361.04 1483.05 1359.04 1484.05 1355.04 1486.05 1350.04 1488.05 1356.04 1490.05 1354.04 1492.05 1353.04 1494.05 1336.04 1496.05 1339.04 1498.05 1352.04 1500.05 1361.04 1501.05 1333.04 1503.05 1356.04 1505.05 1359.04 1507.05 1362.04 1509.05 1337.04 1511.05 1364.04 1513.05 1348.04 1515.05 1338.04 1517.05 1358.04 1518.05 1359.04 1520.05 1355.04 1522.05 1353.04 1524.05 1364.04 1526.05 1359.04 1528.05 1358.04 1530.05 1344.04 1532.05 1355.04 1534.05 1359.04 1536.05 1362.04 1537.05 1364.04 1539.05 1353.04 1541.05 1357.04 1543.05 1340.04 1545.05 1356.04 1547.05 1365.04 1549.05 1347.04 1551.05 1334.04 1553.05 1354.04 1554.05 1344.04 1556.05 1358.04 1558.05 1358.04 1560.05 1353.04 1562.05 1364.04 1564.05 1364.04 1566.05 1340.04 1568.05 1364.04 1570.05 1343.04 1571.05 1358.04 1573.05 1358.04 1575.05 1354.04 1577.05 1339.04 1579.05 1355.04 1581.05 1340.04 1583.05 1362.04 1585.05 1340.04 1587.05 1343.04 1588.05 1352.04 1590.05 1344.04 1592.05 1355.04 1594.05 1344.04 1596.05 1354.04 1598.05 1363.04 1600.05 1315.04 1602.05 1361.04 1604.05 1361.04 1606.05 1342.04 1607.05 1339.04 1609.05 1360.04 1611.05 1330.04 1613.05 1343.04 1615.05 1351.04 1617.05 1347.04 1619.05 1354.04 1621.05 1355.04 1623.05 1300.04 1624.05 1349.04 1626.05 1356.04 1628.05 1349.04 1630.05 1354.04 1632.05 1293.04 1634.05 1341.04 1636.05 1364.04 1638.05 1354.04 1640.05 1353.04 1641.05 1360.04 1643.05 1356.04 1645.05 1360.04 1647.05 1355.04 1649.05 1364.04 1651.05 1355.04 1653.05 1312.04 1655.05 1354.04 1657.05 1364.04 1658.05 1344.04 1660.05 1303.04 1662.05 1329.04 1664.05 1354.04 1666.05 1364.04 1668.05 1364.04 1670.05 1341.04 1672.05 1356.04 1674.05 1346.04 1676.05 1354.04 1677.05 1344.04 1679.06 1349.04 1681.06 1329.04 1683.06 1361.04 1685.06 1279.04 1687.06 1356.04 1689.06 1302.04 1691.06 1306.04 1693.06 1354.04 1694.06 1356.04 1696.06 1331.04 1698.06 1344.04 1700.06 1342.04 1702.06 1316.04 1704.06 1360.04 1706.06 1252.04 1708.06 1325.04 1710.06 1312.04 1711.06 1317.04 1713.06 1317.04 1715.06 1297.04 1717.06 1338.04 1719.06 1337.04 1721.06 1350.04 1723.06 1243.04 1725.06 1343.04 1727.06 1280.04 1728.06 1280.04 1730.06 1290.04 1732.06 1230.04 1734.06 1222.04 1736.06 893.029 1738.06 1302.04 1740.06 1257.04 1742.06 1262.04 1744.06 1098.04 1746.06 1279.04 1747.06 1281.04 1749.06 1226.04 1751.06 791.026 1753.06 1141.04 1755.06 1206.04 1757.06 1226.04 1759.06 1236.04 1761.06 1189.04 1763.06 1039.03 1764.06 1160.04 1766.06 1216.04 1768.06 1334.04 1770.06 1250.04 1772.06 1124.04 1774.06 1215.04 1776.06 1164.04 1778.06 1109.04 1780.06 1170.04 1781.06 1132.04 1783.06 1132.04 1785.06 1224.04 1787.06 1047.03 1789.06 1114.04 1791.06 1197.04 1793.06 973.032 1795.06 1186.04 1797.06 1081.04 1798.06 1183.04 1800.06 1187.04 1802.06 1134.04 1804.06 1198.04 1806.06 908.03 1808.06 1121.04 1810.06 1035.03 1812.06 1190.04 1814.06 1313.04 1816.06 1221.04 1817.06 1114.04 1819.06 1176.04 1821.06 1054.03 1823.06 1128.04 1825.06 1096.04 1827.06 1142.04 1829.06 1179.04 1831.06 1170.04 1833.06 1013.03 1834.06 1108.04 1836.06 1161.04 1838.06 942.031 1840.06 849.028 1842.06 1042.03 1844.06 538 1846.06 1066.03 1848.06 1002.03 1850.06 1291.04 1851.06 538 1853.06 797.026 1855.06 538 1857.06 1060.03 1859.06 761.025 1861.06 836.027 1863.06 538 1865.06 1216.04 1867.06 643.021 1868.06 917.03 1870.06 900.03 1872.06 1053.03 1874.06 1114.04 1876.06 1124.04 1878.06 760.025 1880.06 1153.04 1882.06 852.028 1884.06 971.032 1886.06 984.032 1887.06 1040.03 1889.06 1122.04 1891.06 603.02 1893.06 970.032 1895.06 653.021 1897.06 954.031 1899.06 846.028 1901.06 538 1903.06 1142.04 1904.06 1049.03 1906.06 766.025 1908.06 835.027 1910.06 1160.04 1912.06 1004.03 1914.06 1229.04 1916.06 990.032 1918.06 1188.04 1920.06 1048.03 1921.06 1069.04 1923.06 1168.04 1925.06 1155.04 1927.06 900.03 1929.06 1126.04 1931.06 1160.04 1933.06 1134.04 1935.06 1212.04 1937.06 1120.04 1939.06 1215.04 1940.06 1154.04 1942.06 1226.04 1944.06 1171.04 1946.06 930.031 1948.06 1063.03 1950.06 1217.04 1952.06 1234.04 1954.06 1258.04 1956.06 1272.04 1957.06 1271.04 1959.06 1271.04 1961.06 1290.04 1963.06 1234.04 1965.06 1279.04 1967.06 1263.04 1969.06 1302.04 1971.06 1271.04 1973.06 1283.04 1974.06 1287.04 1976.06 1309.04 1978.06 1294.04 1980.06 1314.04 1982.06 1288.04 1984.07 1261.04 1986.07 1329.04 1988.07 1267.04 1990.07 1258.04 1991.07 1261.04 1993.07 1267.04 1995.07 1241.04 1997.07 1262.04 1999.07 1155.04 2001.07 1233.04 2003.07 1197.04 2005.07 1262.04 2007.07 1215.04 2009.07 1178.04 2010.07 1193.04 2012.07 1223.04 2014.07 1130.04 2016.07 1087.04 2018.07 1196.04 2020.07 1182.04 2022.07 1227.04 2024.07 1129.04 2026.07 1248.04 2027.07 1141.04 2029.07 1221.04 2031.07 1067.03 2033.07 1223.04 2035.07 1087.04 2037.07 1222.04 2039.07 1194.04 2041.07 1186.04 2043.07 1203.04 2044.07 1105.04 2046.07 1119.04 2048.07 1205.04 2050.07 1134.04 2052.07 1148.04 2054.07 1180.04 2056.07 1113.04 2058.07 1201.04 2060.07 883.029 2061.07 1186.04 2063.07 1025.03 2065.07 1062.03 2067.07 896.029 2069.07 1102.04 2071.07 1038.03 2073.07 1061.03 2075.07 1122.04 2077.07 1080.04 2079.07 817.027 2080.07 951.031 2082.07 1098.04 2084.07 892.029 2086.07 921.03 2088.07 1067.03 2090.07 926.03 2092.07 1044.03 2094.07 952.031 2096.07 962.031 2097.07 745.024 2099.07 866.028 2101.07 538 2103.07 814.027 2105.07 1010.03 2107.07 991.032 2109.07 1036.03 2111.07 1100.04 2113.07 1008.03 2114.07 1044.03 2116.07 1020.03 2118.07 1200.04 2120.07 835.027 2122.07 991.032 2124.07 975.032 2126.07 995.033 2128.07 990.032 2130.07 1057.03 2131.07 961.031 2133.07 1182.04 2135.07 1101.04 2137.07 973.032 2139.07 1033.03 2141.07 785.026 2143.07 1116.04 2145.07 945.031 2147.07 949.031 2149.07 837.027 2150.07 1072.04 2152.07 538 2154.07 1109.04 2156.07 966.032 2158.07 940.031 2160.07 894.029 2162.07 538 2164.07 933.031 2166.07 657.022 2167.07 787.026 2169.07 766.025 2171.07 694.023 2173.07 923.03 2175.07 538 2177.07 739.024 2179.07 538 2181.07 538 2183.07 679.022 2184.07 890.029 2186.07 544.018 2188.07 565.018 2190.07 538 2192.07 538 2194.07 538 2196.07 538 2198.07 538 2200.07 538 2201.07 853.028 2203.07 767.025 2205.07 538 2207.07 538 2209.07 538 2211.07 538 2213.07 538 2215.07 538 2217.07 538 2219.07 538 2220.07 538 2222.07 538 2224.07 551.018 2226.07 538 2228.07 538 2230.07 538 2232.07 538 2234.07 538 2236.07 745.024 2237.07 538 2239.07 538 2241.07 538 2243.07 538 2245.07 538 2247.07 685.022 2249.07 538 2251.07 538 2253.07 538 2254.07 538 2256.07 548.018 2258.07 538 2260.07 538 2262.07 538 2264.07 538 2266.07 538 2268.07 538 2270.07 538 2271.07 785.026 2273.07 538 2275.07 538 2277.07 538 2279.07 538 2281.07 538 2283.07 538 2285.07 538 2287.07 538 2289.08 538 2290.08 538 2292.08 538 2294.08 538 2296.08 538 2298.08 538 2300.08 1073.04 2302.08 538 2304.08 538 2306.08 624.02 2307.08 538 2309.08 538 2311.08 538 2313.08 538 2315.08 922.03 2317.08 538 2319.08 538 2321.08 601.02 2323.08 538 2324.08 538 2326.08 917.03 2328.08 763.025 2330.08 799.026 2332.08 1014.03 2334.08 923.03 2336.08 925.03 2338.08 538 2340.08 996.033 2341.08 1058.03 2343.08 991.032 2345.08 941.031 2347.08 1003.03 2349.08 1099.04 2351.08 1154.04 2353.08 1114.04 2355.08 1133.04 2357.08 1132.04 2359.08 1132.04 2360.08 987.032 2362.08 1038.03 2364.08 1167.04 2366.08 1104.04 2368.08 1118.04 2370.08 1125.04 2372.08 1116.04 2374.08 1104.04 2376.08 1151.04 2377.08 1047.03 2379.08 973.032 2381.08 1020.03 2383.08 831.027 2385.08 1052.03 2387.08 909.03 2389.08 538 2391.08 797.026 2393.08 756.025 2394.08 761.025 2396.08 599.02 2398.08 961.031 2400.08 538 2402.08 538 2404.08 538 2406.08 538 2408.08 538 2410.08 538 2411.08 538 2413.08 781.026 2415.08 538 2417.08 538 2419.08 538 2421.08 538 2423.08 538 2425.08 538 2427.08 538 2429.08 538 2430.08 538 2432.08 538 2434.08 538 2436.08 598.02 2438.08 538 2440.08 538 2442.08 538 2444.08 538 2446.08 538 2447.08 538 2449.08 538 2451.08 743.024 2453.08 703.023 2455.08 752.025 2457.08 538 2459.08 674.022 2461.08 942.031 2463.08 749.025 2464.08 817.027 2466.08 538 2468.08 538 2470.08 538 2472.08 655.021 2474.08 606.02 2476.08 862.028 2478.08 1004.03 2480.08 999.033 2482.08 943.031 2483.08 1115.04 2485.08 1063.03 2487.08 756.025 2489.08 661.022 2491.08 1045.03 2493.08 977.032 2495.08 1088.04 2497.08 988.032 2499.08 1012.03 2500.08 1045.03 2502.08 1011.03 2504.08 1104.04 2506.08 1100.04 2508.08 1198.04 2510.08 1141.04 2512.08 1094.04 2514.08 1189.04 2516.08 1136.04 2517.08 1129.04 2519.08 1173.04 2521.08 1208.04 2523.08 1175.04 2525.08 1155.04 2527.08 1138.04 2529.08 1201.04 2531.08 1150.04 2533.08 1127.04 2534.08 1166.04 2536.08 1162.04 2538.08 1101.04 2540.08 932.031 2542.08 984.032 2544.08 887.029 2546.08 538 2548.08 538 2550.08 538 2552.08 538 2553.08 538 2555.08 538 2557.08 538 2559.08 538 2561.08 538 2563.08 538 2565.08 538 2567.08 538 2569.08 538 2570.08 538 2572.08 538 2574.08 538 2576.08 538 2578.08 538 2580.08 538 2582.08 538 2584.08 538 2586.08 538 2587.08 538 2589.08 538 2591.08 538 2593.08 538 2595.08 538 2597.09 538 2599.09 538 2601.09 538 2603.09 538 2604.09 538 2606.09 538 2608.09 538 2610.09 538 2612.09 538 2614.09 538 2616.09 538 2618.09 538 2620.09 538 2622.09 1033.03 2623.09 538 2625.09 538 2627.09 538 2629.09 538 2631.09 538 2633.09 538 2635.09 538 2637.09 538 2639.09 538 2640.09 878.029 2642.09 538 2644.09 538 2646.09 538 2648.09 538 2650.09 538 2652.09 538 2654.09 538 2656.09 538 2657.09 538 2659.09 538 2661.09 538 2663.09 538 2665.09 538 2667.09 538 2669.09 538 2671.09 538 2673.09 538 2674.09 538 2676.09 538 2678.09 538 2680.09 538 2682.09 538 2684.09 538 2686.09 538 2688.09 538 2690.09 538 2692.09 538 2693.09 538 2695.09 538 2697.09 538 2699.09 720.024 2701.09 538 2703.09 990.032 2705.09 538 2707.09 538 2709.09 538 2710.09 538 2712.09 538 2714.09 538 2716.09 538 2718.09 538 2720.09 538 2722.09 538 2724.09 538 2726.09 538 2727.09 538 2729.09 538 2731.09 538 2733.09 538 2735.09 538 2737.09 538 2739.09 538 2741.09 744.024 2743.09 538 2744.09 538 2746.09 538 2748.09 538 2750.09 538 2752.09 538 2754.09 538 2756.09 538 2758.09 538 2760.09 538 2762.09 538 2763.09 538 2765.09 538 2767.09 538 2769.09 538 2771.09 538 2773.09 538 2775.09 538 2777.09 538 2779.09 538 2780.09 538 2782.09 538 2784.09 538 2786.09 538 2788.09 538 2790.09 823.027 2792.09 538 2794.09 538 2796.09 538 2797.09 538 2799.09 971.032 2801.09 538 2803.09 538 2805.09 602.02 2807.09 538 2809.09 764.025 2811.09 724.024 2813.09 538 2814.09 538 2816.09 626.021 2818.09 538 2820.09 658.022 2822.09 927.03 2824.09 842.028 2826.09 1024.03 2828.09 1037.03 2830.09 878.029 2832.09 1030.03 2833.09 924.03 2835.09 849.028 2837.09 689.023 2839.09 538 2841.09 867.028 2843.09 798.026 2845.09 942.031 2847.09 971.032 2849.09 890.029 2850.09 538 2852.09 538 2854.09 538 2856.09 625.021 2858.09 538 2860.09 653.021 2862.09 538 2864.09 538 2866.09 538 2867.09 538 2869.09 538 2871.09 538 2873.09 712.023 2875.09 538 2877.09 538 2879.09 786.026 2881.09 911.03 2883.09 538 2884.09 705.023 2886.09 760.025 2888.09 891.029 2890.09 843.028 2892.09 538 2894.09 538 2896.09 1001.03 2898.1 910.03 2900.1 821.027 2902.1 1269.04 2903.1 1051.03 2905.1 1017.03 2907.1 1092.04 2909.1 1184.04 2911.1 1129.04 2913.1 1213.04 2915.1 1146.04 2917.1 1220.04 2919.1 1241.04 2920.1 1201.04 2922.1 1191.04 2924.1 1224.04 2926.1 1189.04 2928.1 1179.04 2930.1 1158.04 2932.1 1216.04 2934.1 1185.04 2936.1 1177.04 2937.1 1236.04 2939.1 1237.04 2941.1 1172.04 2943.1 1204.04 2945.1 1170.04 2947.1 1253.04 2949.1 1223.04 2951.1 1177.04 2953.1 1171.04 2954.1 1100.04 2956.1 1150.04 2958.1 1200.04 2960.1 1123.04 2962.1 1096.04 2964.1 1104.04 2966.1 991.032 2968.1 1068.04 2970.1 735.024 2972.1 1074.04 2973.1 589.019 2975.1 538 2977.1 538 2979.1 538 2981.1 538 2983.1 538 2985.1 538 2987.1 708.023 2989.1 538 2990.1 538 2992.1 538 2994.1 538 2996.1 538 2998.1 538 3000.1 538 3002.1 538 3004.1 538 3006.1 538 3007.1 538 3009.1 538 3011.1 538 3013.1 538 3015.1 538 3017.1 538 3019.1 538 3021.1 538 3023.1 538 3025.1 538 3026.1 538 3028.1 538 3030.1 538 3032.1 538 3034.1 538 3036.1 538 3038.1 538 3040.1 538 3042.1 538 3043.1 538 3045.1 538 3047.1 538 3049.1 538 3051.1 538 3053.1 538 3055.1 538 3057.1 538 3059.1 538 3060.1 538 3062.1 538 3064.1 538 3066.1 538 3068.1 538 3070.1 538 3072.1 538 3074.1 538 3076.1 538 3077.1 538 3079.1 538 3081.1 538 3083.1 538 3085.1 538 3087.1 538 3089.1 538 3091.1 538 3093.1 538 3095.1 538 3096.1 538 3098.1 538 3100.1 538 3102.1 538 3104.1 538 3106.1 538 3108.1 538 3110.1 538 3112.1 538 3113.1 538 3115.1 538 3117.1 538 3119.1 538 3121.1 538 3123.1 538 3125.1 538 3127.1 538 3129.1 538 3130.1 1178.04 3132.1 538 3134.1 538 3136.1 538 3138.1 538 3140.1 538 3142.1 872.029 3144.1 538 3146.1 538 3147.1 538 3149.1 538 3151.1 538 3153.1 538 3155.1 538 3157.1 538 3159.1 538 3161.1 538 3163.1 538 3165.1 538 3166.1 538 3168.1 538 3170.1 538 3172.1 538 3174.1 538 3176.1 538 3178.1 538 3180.1 538 3182.1 538 3183.1 538 3185.1 538 3187.1 538 3189.1 538 3191.1 538 3193.1 538 3195.1 538 3197.1 538 3199.1 538 3200.1 538 3202.1 538 3204.1 538 3206.1 538 3208.11 538 3210.11 538 3212.11 538 3214.11 538 3216.11 538 3217.11 538 3219.11 538 3221.11 538 3223.11 538 3225.11 538 3227.11 538 3229.11 538 3231.11 538 3233.11 538 3235.11 538 3236.11 538 3238.11 538 3240.11 538 3242.11 538 3244.11 538 3246.11 538 3248.11 538 3250.11 538 3252.11 538 3253.11 538 3255.11 538 3257.11 538 3259.11 538 3261.11 538 3263.11 538 3265.11 538 3267.11 538 3269.11 538 3270.11 538 3272.11 538 3274.11 538 3276.11 538 3278.11 538 3280.11 538 3282.11 538 3284.11 538 3286.11 538 3287.11 538 3289.11 538 3291.11 538 3293.11 538 3295.11 538 3297.11 538 3299.11 538 3301.11 538 3303.11 538 3305.11 538 3306.11 538 3308.11 538 3310.11 538 3312.11 538 3314.11 538 3316.11 538 3318.11 538 3320.11 538 3322.11 538 3323.11 538 3325.11 538 3327.11 538 3329.11 538 3331.11 538 3333.11 538 3335.11 538 3337.11 538 3339.11 538 3340.11 538 3342.11 538 3344.11 538 3346.11 538 3348.11 538 3350.11 538 3352.11 538 3354.11 538 3356.11 538 3357.11 538 3359.11 538 3361 538" stroke="#4472C4" stroke-width="10.3125" stroke-linecap="round" stroke-linejoin="round" stroke-miterlimit="10" fill="none"/></g><g><text fill="#595959" font-family="Calibri,Calibri_MSFontService,sans-serif" font-weight="400" font-size="41" transform="matrix(1 0 0 1 1411.12 1386)">0</text></g><g><text fill="#595959" font-family="Calibri,Calibri_MSFontService,sans-serif" font-weight="400" font-size="41" transform="matrix(1 0 0 1 1369.32 1219)">200</text></g><g><text fill="#595959" font-family="Calibri,Calibri_MSFontService,sans-serif" font-weight="400" font-size="41" transform="matrix(1 0 0 1 1369.32 1052)">400</text></g><g><text fill="#595959" font-family="Calibri,Calibri_MSFontService,sans-serif" font-weight="400" font-size="41" transform="matrix(1 0 0 1 1369.32 884)">600</text></g><g><text fill="#595959" font-family="Calibri,Calibri_MSFontService,sans-serif" font-weight="400" font-size="41" transform="matrix(1 0 0 1 1369.32 717)">800</text></g><g><text fill="#595959" font-family="Calibri,Calibri_MSFontService,sans-serif" font-weight="400" font-size="41" transform="matrix(1 0 0 1 1348.42 550)">1000</text></g><g><text fill="#595959" font-family="Calibri,Calibri_MSFontService,sans-serif" font-weight="400" font-size="41" transform="matrix(1 0 0 1 1348.42 382)">1200</text></g><g><text fill="#595959" font-family="Calibri,Calibri_MSFontService,sans-serif" font-weight="400" font-size="41" transform="matrix(6.12323e-17 -1 1 6.12323e-17 1485.06 1422)">1</text></g><g><text fill="#595959" font-family="Calibri,Calibri_MSFontService,sans-serif" font-weight="400" font-size="41" transform="matrix(6.12323e-17 -1 1 6.12323e-17 1538.03 1443)">29</text></g><g><text fill="#595959" font-family="Calibri,Calibri_MSFontService,sans-serif" font-weight="400" font-size="41" transform="matrix(6.12323e-17 -1 1 6.12323e-17 1591.01 1443)">57</text></g><g><text fill="#595959" font-family="Calibri,Calibri_MSFontService,sans-serif" font-weight="400" font-size="41" transform="matrix(6.12323e-17 -1 1 6.12323e-17 1643.99 1443)">85</text></g><g><text fill="#595959" font-family="Calibri,Calibri_MSFontService,sans-serif" font-weight="400" font-size="41" transform="matrix(6.12323e-17 -1 1 6.12323e-17 1696.97 1463)">113</text></g><g><text fill="#595959" font-family="Calibri,Calibri_MSFontService,sans-serif" font-weight="400" font-size="41" transform="matrix(6.12323e-17 -1 1 6.12323e-17 1749.94 1463)">141</text></g><g><text fill="#595959" font-family="Calibri,Calibri_MSFontService,sans-serif" font-weight="400" font-size="41" transform="matrix(6.12323e-17 -1 1 6.12323e-17 1802.92 1463)">169</text></g><g><text fill="#595959" font-family="Calibri,Calibri_MSFontService,sans-serif" font-weight="400" font-size="41" transform="matrix(6.12323e-17 -1 1 6.12323e-17 1855.9 1463)">197</text></g><g><text fill="#595959" font-family="Calibri,Calibri_MSFontService,sans-serif" font-weight="400" font-size="41" transform="matrix(6.12323e-17 -1 1 6.12323e-17 1908.87 1463)">225</text></g><g><text fill="#595959" font-family="Calibri,Calibri_MSFontService,sans-serif" font-weight="400" font-size="41" transform="matrix(6.12323e-17 -1 1 6.12323e-17 1961.85 1463)">253</text></g><g><text fill="#595959" font-family="Calibri,Calibri_MSFontService,sans-serif" font-weight="400" font-size="41" transform="matrix(6.12323e-17 -1 1 6.12323e-17 2014.83 1463)">281</text></g><g><text fill="#595959" font-family="Calibri,Calibri_MSFontService,sans-serif" font-weight="400" font-size="41" transform="matrix(6.12323e-17 -1 1 6.12323e-17 2067.81 1463)">309</text></g><g><text fill="#595959" font-family="Calibri,Calibri_MSFontService,sans-serif" font-weight="400" font-size="41" transform="matrix(6.12323e-17 -1 1 6.12323e-17 2120.78 1463)">337</text></g><g><text fill="#595959" font-family="Calibri,Calibri_MSFontService,sans-serif" font-weight="400" font-size="41" transform="matrix(6.12323e-17 -1 1 6.12323e-17 2173.76 1463)">365</text></g><g><text fill="#595959" font-family="Calibri,Calibri_MSFontService,sans-serif" font-weight="400" font-size="41" transform="matrix(6.12323e-17 -1 1 6.12323e-17 2226.74 1463)">393</text></g><g><text fill="#595959" font-family="Calibri,Calibri_MSFontService,sans-serif" font-weight="400" font-size="41" transform="matrix(6.12323e-17 -1 1 6.12323e-17 2279.72 1463)">421</text></g><g><text fill="#595959" font-family="Calibri,Calibri_MSFontService,sans-serif" font-weight="400" font-size="41" transform="matrix(6.12323e-17 -1 1 6.12323e-17 2332.69 1463)">449</text></g><g><text fill="#595959" font-family="Calibri,Calibri_MSFontService,sans-serif" font-weight="400" font-size="41" transform="matrix(6.12323e-17 -1 1 6.12323e-17 2385.67 1463)">477</text></g><g><text fill="#595959" font-family="Calibri,Calibri_MSFontService,sans-serif" font-weight="400" font-size="41" transform="matrix(6.12323e-17 -1 1 6.12323e-17 2438.65 1463)">505</text></g><g><text fill="#595959" font-family="Calibri,Calibri_MSFontService,sans-serif" font-weight="400" font-size="41" transform="matrix(6.12323e-17 -1 1 6.12323e-17 2491.63 1463)">533</text></g><g><text fill="#595959" font-family="Calibri,Calibri_MSFontService,sans-serif" font-weight="400" font-size="41" transform="matrix(6.12323e-17 -1 1 6.12323e-17 2544.6 1463)">561</text></g><g><text fill="#595959" font-family="Calibri,Calibri_MSFontService,sans-serif" font-weight="400" font-size="41" transform="matrix(6.12323e-17 -1 1 6.12323e-17 2597.58 1463)">589</text></g><g><text fill="#595959" font-family="Calibri,Calibri_MSFontService,sans-serif" font-weight="400" font-size="41" transform="matrix(6.12323e-17 -1 1 6.12323e-17 2650.56 1463)">617</text></g><g><text fill="#595959" font-family="Calibri,Calibri_MSFontService,sans-serif" font-weight="400" font-size="41" transform="matrix(6.12323e-17 -1 1 6.12323e-17 2703.54 1463)">645</text></g><g><text fill="#595959" font-family="Calibri,Calibri_MSFontService,sans-serif" font-weight="400" font-size="41" transform="matrix(6.12323e-17 -1 1 6.12323e-17 2756.51 1463)">673</text></g><g><text fill="#595959" font-family="Calibri,Calibri_MSFontService,sans-serif" font-weight="400" font-size="41" transform="matrix(6.12323e-17 -1 1 6.12323e-17 2809.49 1463)">701</text></g><g><text fill="#595959" font-family="Calibri,Calibri_MSFontService,sans-serif" font-weight="400" font-size="41" transform="matrix(6.12323e-17 -1 1 6.12323e-17 2862.47 1463)">729</text></g><g><text fill="#595959" font-family="Calibri,Calibri_MSFontService,sans-serif" font-weight="400" font-size="41" transform="matrix(6.12323e-17 -1 1 6.12323e-17 2915.45 1463)">757</text></g><g><text fill="#595959" font-family="Calibri,Calibri_MSFontService,sans-serif" font-weight="400" font-size="41" transform="matrix(6.12323e-17 -1 1 6.12323e-17 2968.42 1463)">785</text></g><g><text fill="#595959" font-family="Calibri,Calibri_MSFontService,sans-serif" font-weight="400" font-size="41" transform="matrix(6.12323e-17 -1 1 6.12323e-17 3021.4 1463)">813</text></g><g><text fill="#595959" font-family="Calibri,Calibri_MSFontService,sans-serif" font-weight="400" font-size="41" transform="matrix(6.12323e-17 -1 1 6.12323e-17 3074.38 1463)">841</text></g><g><text fill="#595959" font-family="Calibri,Calibri_MSFontService,sans-serif" font-weight="400" font-size="41" transform="matrix(6.12323e-17 -1 1 6.12323e-17 3127.35 1463)">869</text></g><g><text fill="#595959" font-family="Calibri,Calibri_MSFontService,sans-serif" font-weight="400" font-size="41" transform="matrix(6.12323e-17 -1 1 6.12323e-17 3180.33 1463)">897</text></g><g><text fill="#595959" font-family="Calibri,Calibri_MSFontService,sans-serif" font-weight="400" font-size="41" transform="matrix(6.12323e-17 -1 1 6.12323e-17 3233.31 1463)">925</text></g><g><text fill="#595959" font-family="Calibri,Calibri_MSFontService,sans-serif" font-weight="400" font-size="41" transform="matrix(6.12323e-17 -1 1 6.12323e-17 3286.29 1463)">953</text></g><g><text fill="#595959" font-family="Calibri,Calibri_MSFontService,sans-serif" font-weight="400" font-size="41" transform="matrix(6.12323e-17 -1 1 6.12323e-17 3339.26 1463)">981</text></g><g><text fill="#595959" font-family="Calibri,Calibri_MSFontService,sans-serif" font-weight="400" font-size="64" transform="matrix(1 0 0 1 2273.57 296)">reward</text></g><rect x="1319.5" y="201.5" width="2094" height="1292" stroke="#D9D9D9" stroke-width="3.4375" stroke-linejoin="round" stroke-miterlimit="10" fill="none"/></g></svg>