<svg width="2257" height="1323" xmlns="http://www.w3.org/2000/svg" xmlns:xlink="http://www.w3.org/1999/xlink" xml:space="preserve" overflow="hidden"><defs><clipPath id="clip0"><rect x="935" y="117" width="2257" height="1323"/></clipPath></defs><g clip-path="url(#clip0)" transform="translate(-935 -117)"><rect x="936" y="118" width="2254" height="1320" fill="#FFFFFF"/><g><path d="M1088.5 1147.54 3139.5 1147.54M1088.5 975.532 3139.5 975.532M1088.5 803.526 3139.5 803.526M1088.5 632.521 3139.5 632.521M1088.5 460.515 3139.5 460.515M1088.5 288.5 3139.5 288.5" stroke="#D9D9D9" stroke-width="3.4375" stroke-linejoin="round" stroke-miterlimit="10" fill="none"/></g><g><path d="M1088.5 1319.5 3139.5 1319.5" stroke="#D9D9D9" stroke-width="3.4375" stroke-linejoin="round" stroke-miterlimit="10" fill="none" fill-rule="evenodd"/></g><g><path d="M1089 1300.04 1091.04 1306.04 1093.04 1293.04 1095.04 1305.04 1097.04 1304.04 1099.04 1308.04 1101.04 1310.04 1103.04 1298.04 1105.04 1300.04 1107.04 1302.04 1110.04 1294.04 1112.04 1301.04 1114.04 1291.04 1116.04 1309.04 1118.04 1303.04 1120.04 1301.04 1122.04 1303.04 1124.04 1252.04 1126.04 1288.04 1128.04 1307.04 1130.04 1302.04 1132.04 1289.04 1134.04 1305.04 1136.04 1301.04 1138.04 1284.04 1140.04 1289.04 1142.04 1291.04 1144.04 1295.04 1146.04 1301.04 1149.04 1306.04 1151.04 1299.04 1153.04 1294.04 1155.04 1303.04 1157.04 1310.04 1159.04 1304.04 1161.04 1308.04 1163.04 1289.04 1165.04 1277.04 1167.04 1287.04 1169.04 1279.04 1171.04 1289.04 1173.04 1274.04 1175.04 1307.04 1177.04 1263.04 1179.04 1303.04 1181.04 1305.04 1183.04 1294.04 1185.04 1303.04 1187.04 1299.04 1190.04 1290.04 1192.04 1307.04 1194.04 1290.04 1196.04 1305.04 1198.04 1296.04 1200.04 1283.04 1202.04 1307.04 1204.04 1303.04 1206.04 1305.04 1208.04 1301.04 1210.04 1300.04 1212.04 1307.04 1214.04 1293.04 1216.04 1299.04 1218.04 1288.04 1220.04 1285.04 1222.04 1305.04 1224.04 1306.04 1226.04 1301.04 1229.04 1290.04 1231.04 1297.04 1233.04 1299.04 1235.04 1305.04 1237.04 1293.04 1239.04 1303.04 1241.04 1294.04 1243.04 1307.04 1245.04 1296.04 1247.04 1264.04 1249.04 1306.04 1251.04 1306.04 1253.04 1288.04 1255.04 1271.04 1257.04 1271.04 1259.04 1307.04 1261.04 1305.04 1263.04 1302.04 1265.04 1305.04 1268.04 1298.04 1270.04 1295.04 1272.04 1296.04 1274.04 1299.04 1276.04 1292.04 1278.04 1311.04 1280.04 1285.04 1282.04 1262.04 1284.04 1282.04 1286.04 1306.04 1288.04 1286.04 1290.04 1277.04 1292.04 1292.04 1294.04 1255.04 1296.04 1304.04 1298.04 1306.04 1300.04 1298.04 1302.04 1290.04 1304.04 1302.04 1306.04 1295.04 1309.04 1305.04 1311.04 1310.04 1313.04 1290.04 1315.04 1295.04 1317.04 1295.04 1319.04 1307.04 1321.04 1302.04 1323.04 1261.04 1325.04 1238.04 1327.04 1248.04 1329.04 1301.04 1331.04 1300.04 1333.04 1298.04 1335.04 1309.04 1337.04 1301.04 1339.04 1299.04 1341.04 1295.04 1343.04 1303.04 1345.04 1283.04 1348.04 1312 1350.04 1301.04 1352.04 1288.04 1354.04 1264.04 1356.04 1307.04 1358.04 1283.04 1360.04 1255.04 1362.04 1292.04 1364.04 1301.04 1366.04 1259.04 1368.04 1294.04 1370.04 1278.04 1372.05 1304.04 1374.05 1307.04 1376.05 1302.04 1378.05 1297.04 1380.05 1297.04 1382.05 1298.04 1384.05 1291.04 1386.05 1301.04 1389.05 1242.04 1391.05 1283.04 1393.05 1289.04 1395.05 1304.04 1397.05 1286.04 1399.05 1280.04 1401.05 1307.04 1403.05 1303.04 1405.05 1296.04 1407.05 1289.04 1409.05 1297.04 1411.05 1293.04 1413.05 1271.04 1415.05 1289.04 1417.05 1295.04 1419.05 1290.04 1421.05 1260.04 1423.05 1289.04 1425.05 1298.04 1428.05 1296.04 1430.05 1289.04 1432.05 1301.04 1434.05 1296.04 1436.05 1288.04 1438.05 1307.04 1440.05 1286.04 1442.05 1267.04 1444.05 1298.04 1446.05 1310.04 1448.05 1306.04 1450.05 1301.04 1452.05 1259.04 1454.05 1302.04 1456.05 1304.04 1458.05 1302.04 1460.05 1299.04 1462.05 1289.04 1464.05 1305.04 1466.05 1282.04 1469.05 1279.04 1471.05 1293.04 1473.05 1293.04 1475.05 1283.04 1477.05 1309.04 1479.05 1287.04 1481.05 1294.04 1483.05 1296.04 1485.05 1264.04 1487.05 1303.04 1489.05 1300.04 1491.05 1244.04 1493.05 1279.04 1495.05 1295.04 1497.05 1261.04 1499.05 1294.04 1501.05 1295.04 1503.05 1311.04 1505.05 1293.04 1508.05 1285.04 1510.05 1256.04 1512.05 1288.04 1514.05 1256.04 1516.05 1303.04 1518.05 1269.04 1520.05 1282.04 1522.05 1301.04 1524.05 1299.04 1526.05 1273.04 1528.05 1303.04 1530.05 1301.04 1532.05 1301.04 1534.05 1283.04 1536.05 1272.04 1538.05 1286.04 1540.05 1306.04 1542.05 1299.04 1544.05 1271.04 1547.05 1306.04 1549.05 1259.04 1551.05 1296.04 1553.05 1305.04 1555.05 1285.04 1557.05 1307.04 1559.05 1243.04 1561.05 1283.04 1563.05 1272.04 1565.05 1258.04 1567.05 1265.04 1569.05 1298.04 1571.05 1277.04 1573.05 1254.04 1575.05 1312 1577.05 1265.04 1579.05 1265.04 1581.05 1264.04 1583.05 1298.04 1585.05 1278.04 1588.05 1303.04 1590.05 1295.04 1592.05 1291.04 1594.05 1277.04 1596.05 1276.04 1598.05 1296.04 1600.05 1292.04 1602.05 1275.04 1604.05 1285.04 1606.05 1286.04 1608.05 1264.04 1610.05 1275.04 1612.05 1289.04 1614.05 1279.04 1616.05 1292.04 1618.05 1269.04 1620.05 1292.04 1622.05 1266.04 1624.05 1286.04 1627.05 1270.04 1629.05 1238.04 1631.05 1299.04 1633.05 1299.04 1635.05 1277.04 1637.05 1265.04 1639.05 1295.04 1641.05 1273.04 1643.05 1287.04 1645.05 1272.04 1647.05 1300.04 1649.05 1291.04 1651.05 1293.04 1653.05 1303.04 1655.05 1209.04 1657.05 1295.04 1659.05 1252.04 1661.05 1288.04 1663.05 1267.04 1665.05 1283.04 1668.05 1278.04 1670.05 1300.04 1672.05 1281.04 1674.05 1286.04 1676.05 1246.04 1678.06 1225.04 1680.06 1285.04 1682.06 1259.04 1684.06 1288.04 1686.06 1277.04 1688.06 1245.04 1690.06 1298.04 1692.06 1256.04 1694.06 1292.04 1696.06 1251.04 1698.06 1289.04 1700.06 1272.04 1702.06 1277.04 1704.06 1295.04 1707.06 1293.04 1709.06 1273.04 1711.06 1289.04 1713.06 1282.04 1715.06 1290.04 1717.06 1283.04 1719.06 1271.04 1721.06 1250.04 1723.06 1234.04 1725.06 1278.04 1727.06 1250.04 1729.06 1254.04 1731.06 1279.04 1733.06 1275.04 1735.06 1295.04 1737.06 1301.04 1739.06 1216.04 1741.06 1270.04 1743.06 1292.04 1745.06 1256.04 1748.06 1229.04 1750.06 1276.04 1752.06 1254.04 1754.06 1259.04 1756.06 1255.04 1758.06 1274.04 1760.06 1238.04 1762.06 1257.04 1764.06 1226.04 1766.06 1272.04 1768.06 1286.04 1770.06 1250.04 1772.06 1289.04 1774.06 1281.04 1776.06 1274.04 1778.06 1225.04 1780.06 1294.04 1782.06 1283.04 1784.06 1308.04 1787.06 1289.04 1789.06 1264.04 1791.06 1236.04 1793.06 1285.04 1795.06 1284.04 1797.06 1273.04 1799.06 1281.04 1801.06 1172.04 1803.06 1265.04 1805.06 1162.04 1807.06 1270.04 1809.06 1285.04 1811.06 1283.04 1813.06 1284.04 1815.06 1253.04 1817.06 1270.04 1819.06 1272.04 1821.06 1302.04 1823.06 1210.04 1826.06 1295.04 1828.06 1250.04 1830.06 1245.04 1832.06 1271.04 1834.06 1282.04 1836.06 1242.04 1838.06 1219.04 1840.06 1271.04 1842.06 1266.04 1844.06 1271.04 1846.06 1290.04 1848.06 1197.04 1850.06 1254.04 1852.06 1243.04 1854.06 1274.04 1856.06 1234.04 1858.06 1239.04 1860.06 1273.04 1862.06 1283.04 1864.06 1267.04 1867.06 1253.04 1869.06 1161.04 1871.06 1192.04 1873.06 1239.04 1875.06 1176.04 1877.06 1232.04 1879.06 1248.04 1881.06 1245.04 1883.06 1169.04 1885.06 1238.04 1887.06 1205.04 1889.06 1226.04 1891.06 1178.04 1893.06 1283.04 1895.06 1166.04 1897.06 1286.04 1899.06 1268.04 1901.06 1259.04 1903.06 1243.04 1906.06 1279.04 1908.06 1268.04 1910.06 1271.04 1912.06 1225.04 1914.06 1263.04 1916.06 1269.04 1918.06 1235.04 1920.06 1097.04 1922.06 1122.04 1924.06 1281.04 1926.06 1204.04 1928.06 1234.04 1930.06 1072.04 1932.06 1228.04 1934.06 1229.04 1936.06 1243.04 1938.06 1219.04 1940.06 1215.04 1942.06 1295.04 1944.06 1094.04 1947.06 1204.04 1949.06 1123.04 1951.06 1278.04 1953.06 1210.04 1955.06 1224.04 1957.06 1171.04 1959.06 1288.04 1961.06 1200.04 1963.06 1223.04 1965.06 1102.04 1967.06 1117.04 1969.06 1296.04 1971.06 1207.04 1973.06 1264.04 1975.06 1075.04 1977.06 1184.04 1979.06 1171.04 1981.06 1177.04 1983.07 1273.04 1986.07 1254.04 1988.07 1229.04 1990.07 1211.04 1992.07 1207.04 1994.07 1161.04 1996.07 1221.04 1998.07 1179.04 2000.07 1182.04 2002.07 1047.03 2004.07 1130.04 2006.07 1142.04 2008.07 1262.04 2010.07 1197.04 2012.07 1195.04 2014.07 1035.03 2016.07 1146.04 2018.07 1283.04 2020.07 1132.04 2022.07 1160.04 2024.07 1133.04 2027.07 1156.04 2029.07 1239.04 2031.07 1040.03 2033.07 992.033 2035.07 1160.04 2037.07 1191.04 2039.07 1198.04 2041.07 1173.04 2043.07 1273.04 2045.07 1101.04 2047.07 1105.04 2049.07 991.033 2051.07 941.031 2053.07 1151.04 2055.07 598.02 2057.07 1190.04 2059.07 1079.04 2061.07 1197.04 2063.07 1238.04 2066.07 1214.04 2068.07 1110.04 2070.07 982.032 2072.07 1071.04 2074.07 1145.04 2076.07 780.026 2078.07 1153.04 2080.07 1219.04 2082.07 1107.04 2084.07 1188.04 2086.07 1114.04 2088.07 1145.04 2090.07 979.032 2092.07 1142.04 2094.07 1083.04 2096.07 1081.04 2098.07 1128.04 2100.07 864.028 2102.07 1130.04 2105.07 970.032 2107.07 1018.03 2109.07 1185.04 2111.07 1150.04 2113.07 1173.04 2115.07 1131.04 2117.07 1034.03 2119.07 1179.04 2121.07 1133.04 2123.07 693.023 2125.07 1202.04 2127.07 946.031 2129.07 1089.04 2131.07 846.028 2133.07 1213.04 2135.07 941.031 2137.07 1155.04 2139.07 1075.04 2141.07 919.03 2143.07 1153.04 2146.07 1155.04 2148.07 842.028 2150.07 933.031 2152.07 978.032 2154.07 1128.04 2156.07 1000.03 2158.07 1100.04 2160.07 761.025 2162.07 1133.04 2164.07 1051.03 2166.07 987.032 2168.07 1101.04 2170.07 1026.03 2172.07 1134.04 2174.07 1009.03 2176.07 1148.04 2178.07 1163.04 2180.07 1051.03 2182.07 1032.03 2185.07 1148.04 2187.07 1040.03 2189.07 516.017 2191.07 748.025 2193.07 1177.04 2195.07 832.027 2197.07 1044.03 2199.07 994.033 2201.07 1096.04 2203.07 992.033 2205.07 1041.03 2207.07 1084.04 2209.07 876.029 2211.07 1068.04 2213.07 1198.04 2215.07 1084.04 2217.07 604.02 2219.07 1130.04 2221.07 1151.04 2223.07 1142.04 2226.07 947.031 2228.07 1247.04 2230.07 890.029 2232.07 460 2234.07 1180.04 2236.07 697.023 2238.07 923.03 2240.07 1063.03 2242.07 460 2244.07 1054.03 2246.07 724.024 2248.07 1124.04 2250.07 955.031 2252.07 1171.04 2254.07 641.021 2256.07 937.031 2258.07 813.027 2260.07 836.027 2262.07 745.024 2265.07 835.027 2267.07 460 2269.07 460 2271.07 715.023 2273.07 910.03 2275.07 1047.03 2277.07 460 2279.07 460 2281.07 460 2283.07 1185.04 2285.07 1070.04 2287.08 460 2289.08 621.02 2291.08 814.027 2293.08 1107.04 2295.08 460 2297.08 996.033 2299.08 784.026 2301.08 1201.04 2304.08 770.025 2306.08 460 2308.08 460 2310.08 796.026 2312.08 460 2314.08 525.017 2316.08 460 2318.08 1064.03 2320.08 1198.04 2322.08 561.018 2324.08 764.025 2326.08 1035.03 2328.08 1004.03 2330.08 460 2332.08 460 2334.08 1052.03 2336.08 1179.04 2338.08 901.03 2340.08 597.02 2342.08 937.031 2345.08 460 2347.08 778.026 2349.08 780.026 2351.08 917.03 2353.08 460 2355.08 757.025 2357.08 952.031 2359.08 460 2361.08 692.023 2363.08 809.027 2365.08 460 2367.08 462.015 2369.08 460 2371.08 857.028 2373.08 460 2375.08 835.027 2377.08 1001.03 2379.08 510.017 2381.08 916.03 2384.08 460 2386.08 460 2388.08 460 2390.08 460 2392.08 460 2394.08 460 2396.08 460 2398.08 460 2400.08 460 2402.08 614.02 2404.08 460 2406.08 460 2408.08 460 2410.08 460 2412.08 460 2414.08 460 2416.08 460 2418.08 460 2420.08 460 2422.08 460 2425.08 514.017 2427.08 460 2429.08 460 2431.08 460 2433.08 758.025 2435.08 460 2437.08 460 2439.08 460 2441.08 460 2443.08 460 2445.08 460 2447.08 460 2449.08 460 2451.08 460 2453.08 460 2455.08 460 2457.08 460 2459.08 460 2461.08 460 2464.08 1181.04 2466.08 460 2468.08 745.024 2470.08 460 2472.08 460 2474.08 966.032 2476.08 460 2478.08 460 2480.08 460 2482.08 460 2484.08 1189.04 2486.08 460 2488.08 460 2490.08 460 2492.08 460 2494.08 460 2496.08 460 2498.08 460 2500.08 460 2502.08 460 2505.08 460 2507.08 511.017 2509.08 460 2511.08 460 2513.08 460 2515.08 460 2517.08 460 2519.08 460 2521.08 861.028 2523.08 460 2525.08 580.019 2527.08 479.016 2529.08 491.016 2531.08 541.018 2533.08 460 2535.08 782.026 2537.08 460 2539.08 460 2541.08 715.023 2544.08 464.015 2546.08 460 2548.08 460 2550.08 460 2552.08 460 2554.08 460 2556.08 460 2558.08 697.023 2560.08 460 2562.08 460 2564.08 460 2566.08 460 2568.08 460 2570.08 460 2572.08 460 2574.08 460 2576.08 460 2578.08 460 2580.08 460 2583.08 460 2585.08 460 2587.08 460 2589.08 460 2591.08 460 2593.08 460 2595.08 460 2597.09 460 2599.09 460 2601.09 460 2603.09 460 2605.09 460 2607.09 460 2609.09 460 2611.09 460 2613.09 460 2615.09 1139.04 2617.09 460 2619.09 460 2621.09 460 2624.09 460 2626.09 460 2628.09 460 2630.09 966.032 2632.09 460 2634.09 460 2636.09 460 2638.09 460 2640.09 622.02 2642.09 460 2644.09 460 2646.09 745.024 2648.09 460 2650.09 482.016 2652.09 460 2654.09 460 2656.09 460 2658.09 460 2660.09 460 2663.09 460 2665.09 460 2667.09 460 2669.09 460 2671.09 460 2673.09 460 2675.09 460 2677.09 460 2679.09 460 2681.09 460 2683.09 699.023 2685.09 460 2687.09 1082.04 2689.09 460 2691.09 460 2693.09 460 2695.09 460 2697.09 460 2699.09 460 2701.09 460 2704.09 460 2706.09 460 2708.09 460 2710.09 477.016 2712.09 460 2714.09 460 2716.09 460 2718.09 460 2720.09 460 2722.09 460 2724.09 460 2726.09 468.015 2728.09 460 2730.09 460 2732.09 846.028 2734.09 460 2736.09 460 2738.09 473.016 2740.09 460 2743.09 460 2745.09 460 2747.09 460 2749.09 460 2751.09 460 2753.09 460 2755.09 460 2757.09 460 2759.09 859.028 2761.09 460 2763.09 460 2765.09 460 2767.09 460 2769.09 460 2771.09 460 2773.09 460 2775.09 460 2777.09 460 2779.09 460 2781.09 460 2784.09 460 2786.09 460 2788.09 460 2790.09 460 2792.09 460 2794.09 460 2796.09 460 2798.09 460 2800.09 460 2802.09 460 2804.09 460 2806.09 460 2808.09 460 2810.09 460 2812.09 460 2814.09 460 2816.09 460 2818.09 460 2820.09 1041.03 2823.09 460 2825.09 460 2827.09 460 2829.09 460 2831.09 460 2833.09 460 2835.09 460 2837.09 460 2839.09 460 2841.09 460 2843.09 460 2845.09 881.029 2847.09 460 2849.09 460 2851.09 460 2853.09 460 2855.09 460 2857.09 460 2859.09 825.027 2862.09 460 2864.09 460 2866.09 460 2868.09 460 2870.09 460 2872.09 460 2874.09 460 2876.09 460 2878.09 460 2880.09 460 2882.09 460 2884.09 460 2886.09 460 2888.09 460 2890.09 460 2892.09 460 2894.09 460 2896.09 460 2898.1 460 2900.1 460 2903.1 1015.03 2905.1 460 2907.1 460 2909.1 460 2911.1 460 2913.1 460 2915.1 460 2917.1 460 2919.1 460 2921.1 460 2923.1 880.029 2925.1 460 2927.1 460 2929.1 460 2931.1 460 2933.1 460 2935.1 460 2937.1 460 2939.1 460 2942.1 460 2944.1 460 2946.1 460 2948.1 460 2950.1 460 2952.1 460 2954.1 460 2956.1 460 2958.1 460 2960.1 460 2962.1 460 2964.1 460 2966.1 460 2968.1 1070.04 2970.1 460 2972.1 460 2974.1 460 2976.1 460 2978.1 460 2980.1 460 2983.1 460 2985.1 460 2987.1 460 2989.1 460 2991.1 460 2993.1 460 2995.1 460 2997.1 460 2999.1 460 3001.1 460 3003.1 460 3005.1 460 3007.1 460 3009.1 460 3011.1 460 3013.1 460 3015.1 460 3017.1 460 3019.1 460 3022.1 460 3024.1 880.029 3026.1 460 3028.1 460 3030.1 460 3032.1 460 3034.1 460 3036.1 460 3038.1 460 3040.1 460 3042.1 460 3044.1 460 3046.1 460 3048.1 460 3050.1 460 3052.1 460 3054.1 460 3056.1 460 3058.1 460 3060.1 460 3063.1 710.023 3065.1 460 3067.1 460 3069.1 460 3071.1 460 3073.1 460 3075.1 460 3077.1 460 3079.1 460 3081.1 460 3083.1 460 3085.1 460 3087.1 460 3089.1 460 3091.1 460 3093.1 460 3095.1 460 3097.1 460 3099.1 460 3102.1 460 3104.1 460 3106.1 460 3108.1 460 3110.1 845.028 3112.1 460 3114.1 460 3116.1 460 3118.1 460 3120.1 460 3122.1 460 3124.1 460 3126.1 460 3128.1 460 3130.1 460 3132.1 460 3134.1 460 3136.1 460 3139 460" stroke="#4472C4" stroke-width="10.3125" stroke-linecap="round" stroke-linejoin="round" stroke-miterlimit="10" fill="none"/></g><g><text fill="#595959" font-family="Calibri,Calibri_MSFontService,sans-serif" font-weight="400" font-size="41" transform="matrix(1 0 0 1 1028.87 1331)">0</text></g><g><text fill="#595959" font-family="Calibri,Calibri_MSFontService,sans-serif" font-weight="400" font-size="41" transform="matrix(1 0 0 1 987.067 1159)">200</text></g><g><text fill="#595959" font-family="Calibri,Calibri_MSFontService,sans-serif" font-weight="400" font-size="41" transform="matrix(1 0 0 1 987.067 987)">400</text></g><g><text fill="#595959" font-family="Calibri,Calibri_MSFontService,sans-serif" font-weight="400" font-size="41" transform="matrix(1 0 0 1 987.067 815)">600</text></g><g><text fill="#595959" font-family="Calibri,Calibri_MSFontService,sans-serif" font-weight="400" font-size="41" transform="matrix(1 0 0 1 987.067 644)">800</text></g><g><text fill="#595959" font-family="Calibri,Calibri_MSFontService,sans-serif" font-weight="400" font-size="41" transform="matrix(1 0 0 1 966.167 472)">1000</text></g><g><text fill="#595959" font-family="Calibri,Calibri_MSFontService,sans-serif" font-weight="400" font-size="41" transform="matrix(1 0 0 1 966.167 300)">1200</text></g><g><text fill="#595959" font-family="Calibri,Calibri_MSFontService,sans-serif" font-weight="400" font-size="41" transform="matrix(6.12323e-17 -1 1 6.12323e-17 1102.89 1367)">1</text></g><g><text fill="#595959" font-family="Calibri,Calibri_MSFontService,sans-serif" font-weight="400" font-size="41" transform="matrix(6.12323e-17 -1 1 6.12323e-17 1154.17 1388)">26</text></g><g><text fill="#595959" font-family="Calibri,Calibri_MSFontService,sans-serif" font-weight="400" font-size="41" transform="matrix(6.12323e-17 -1 1 6.12323e-17 1205.46 1388)">51</text></g><g><text fill="#595959" font-family="Calibri,Calibri_MSFontService,sans-serif" font-weight="400" font-size="41" transform="matrix(6.12323e-17 -1 1 6.12323e-17 1256.75 1388)">76</text></g><g><text fill="#595959" font-family="Calibri,Calibri_MSFontService,sans-serif" font-weight="400" font-size="41" transform="matrix(6.12323e-17 -1 1 6.12323e-17 1308.04 1408)">101</text></g><g><text fill="#595959" font-family="Calibri,Calibri_MSFontService,sans-serif" font-weight="400" font-size="41" transform="matrix(6.12323e-17 -1 1 6.12323e-17 1359.33 1408)">126</text></g><g><text fill="#595959" font-family="Calibri,Calibri_MSFontService,sans-serif" font-weight="400" font-size="41" transform="matrix(6.12323e-17 -1 1 6.12323e-17 1410.62 1408)">151</text></g><g><text fill="#595959" font-family="Calibri,Calibri_MSFontService,sans-serif" font-weight="400" font-size="41" transform="matrix(6.12323e-17 -1 1 6.12323e-17 1461.91 1408)">176</text></g><g><text fill="#595959" font-family="Calibri,Calibri_MSFontService,sans-serif" font-weight="400" font-size="41" transform="matrix(6.12323e-17 -1 1 6.12323e-17 1513.2 1408)">201</text></g><g><text fill="#595959" font-family="Calibri,Calibri_MSFontService,sans-serif" font-weight="400" font-size="41" transform="matrix(6.12323e-17 -1 1 6.12323e-17 1564.48 1408)">226</text></g><g><text fill="#595959" font-family="Calibri,Calibri_MSFontService,sans-serif" font-weight="400" font-size="41" transform="matrix(6.12323e-17 -1 1 6.12323e-17 1615.77 1408)">251</text></g><g><text fill="#595959" font-family="Calibri,Calibri_MSFontService,sans-serif" font-weight="400" font-size="41" transform="matrix(6.12323e-17 -1 1 6.12323e-17 1667.06 1408)">276</text></g><g><text fill="#595959" font-family="Calibri,Calibri_MSFontService,sans-serif" font-weight="400" font-size="41" transform="matrix(6.12323e-17 -1 1 6.12323e-17 1718.35 1408)">301</text></g><g><text fill="#595959" font-family="Calibri,Calibri_MSFontService,sans-serif" font-weight="400" font-size="41" transform="matrix(6.12323e-17 -1 1 6.12323e-17 1769.64 1408)">326</text></g><g><text fill="#595959" font-family="Calibri,Calibri_MSFontService,sans-serif" font-weight="400" font-size="41" transform="matrix(6.12323e-17 -1 1 6.12323e-17 1820.93 1408)">351</text></g><g><text fill="#595959" font-family="Calibri,Calibri_MSFontService,sans-serif" font-weight="400" font-size="41" transform="matrix(6.12323e-17 -1 1 6.12323e-17 1872.22 1408)">376</text></g><g><text fill="#595959" font-family="Calibri,Calibri_MSFontService,sans-serif" font-weight="400" font-size="41" transform="matrix(6.12323e-17 -1 1 6.12323e-17 1923.51 1408)">401</text></g><g><text fill="#595959" font-family="Calibri,Calibri_MSFontService,sans-serif" font-weight="400" font-size="41" transform="matrix(6.12323e-17 -1 1 6.12323e-17 1974.79 1408)">426</text></g><g><text fill="#595959" font-family="Calibri,Calibri_MSFontService,sans-serif" font-weight="400" font-size="41" transform="matrix(6.12323e-17 -1 1 6.12323e-17 2026.08 1408)">451</text></g><g><text fill="#595959" font-family="Calibri,Calibri_MSFontService,sans-serif" font-weight="400" font-size="41" transform="matrix(6.12323e-17 -1 1 6.12323e-17 2077.37 1408)">476</text></g><g><text fill="#595959" font-family="Calibri,Calibri_MSFontService,sans-serif" font-weight="400" font-size="41" transform="matrix(6.12323e-17 -1 1 6.12323e-17 2128.66 1408)">501</text></g><g><text fill="#595959" font-family="Calibri,Calibri_MSFontService,sans-serif" font-weight="400" font-size="41" transform="matrix(6.12323e-17 -1 1 6.12323e-17 2179.95 1408)">526</text></g><g><text fill="#595959" font-family="Calibri,Calibri_MSFontService,sans-serif" font-weight="400" font-size="41" transform="matrix(6.12323e-17 -1 1 6.12323e-17 2231.24 1408)">551</text></g><g><text fill="#595959" font-family="Calibri,Calibri_MSFontService,sans-serif" font-weight="400" font-size="41" transform="matrix(6.12323e-17 -1 1 6.12323e-17 2282.53 1408)">576</text></g><g><text fill="#595959" font-family="Calibri,Calibri_MSFontService,sans-serif" font-weight="400" font-size="41" transform="matrix(6.12323e-17 -1 1 6.12323e-17 2333.81 1408)">601</text></g><g><text fill="#595959" font-family="Calibri,Calibri_MSFontService,sans-serif" font-weight="400" font-size="41" transform="matrix(6.12323e-17 -1 1 6.12323e-17 2385.1 1408)">626</text></g><g><text fill="#595959" font-family="Calibri,Calibri_MSFontService,sans-serif" font-weight="400" font-size="41" transform="matrix(6.12323e-17 -1 1 6.12323e-17 2436.39 1408)">651</text></g><g><text fill="#595959" font-family="Calibri,Calibri_MSFontService,sans-serif" font-weight="400" font-size="41" transform="matrix(6.12323e-17 -1 1 6.12323e-17 2487.68 1408)">676</text></g><g><text fill="#595959" font-family="Calibri,Calibri_MSFontService,sans-serif" font-weight="400" font-size="41" transform="matrix(6.12323e-17 -1 1 6.12323e-17 2538.97 1408)">701</text></g><g><text fill="#595959" font-family="Calibri,Calibri_MSFontService,sans-serif" font-weight="400" font-size="41" transform="matrix(6.12323e-17 -1 1 6.12323e-17 2590.26 1408)">726</text></g><g><text fill="#595959" font-family="Calibri,Calibri_MSFontService,sans-serif" font-weight="400" font-size="41" transform="matrix(6.12323e-17 -1 1 6.12323e-17 2641.55 1408)">751</text></g><g><text fill="#595959" font-family="Calibri,Calibri_MSFontService,sans-serif" font-weight="400" font-size="41" transform="matrix(6.12323e-17 -1 1 6.12323e-17 2692.84 1408)">776</text></g><g><text fill="#595959" font-family="Calibri,Calibri_MSFontService,sans-serif" font-weight="400" font-size="41" transform="matrix(6.12323e-17 -1 1 6.12323e-17 2744.12 1408)">801</text></g><g><text fill="#595959" font-family="Calibri,Calibri_MSFontService,sans-serif" font-weight="400" font-size="41" transform="matrix(6.12323e-17 -1 1 6.12323e-17 2795.41 1408)">826</text></g><g><text fill="#595959" font-family="Calibri,Calibri_MSFontService,sans-serif" font-weight="400" font-size="41" transform="matrix(6.12323e-17 -1 1 6.12323e-17 2846.7 1408)">851</text></g><g><text fill="#595959" font-family="Calibri,Calibri_MSFontService,sans-serif" font-weight="400" font-size="41" transform="matrix(6.12323e-17 -1 1 6.12323e-17 2897.99 1408)">876</text></g><g><text fill="#595959" font-family="Calibri,Calibri_MSFontService,sans-serif" font-weight="400" font-size="41" transform="matrix(6.12323e-17 -1 1 6.12323e-17 2949.28 1408)">901</text></g><g><text fill="#595959" font-family="Calibri,Calibri_MSFontService,sans-serif" font-weight="400" font-size="41" transform="matrix(6.12323e-17 -1 1 6.12323e-17 3000.57 1408)">926</text></g><g><text fill="#595959" font-family="Calibri,Calibri_MSFontService,sans-serif" font-weight="400" font-size="41" transform="matrix(6.12323e-17 -1 1 6.12323e-17 3051.86 1408)">951</text></g><g><text fill="#595959" font-family="Calibri,Calibri_MSFontService,sans-serif" font-weight="400" font-size="41" transform="matrix(6.12323e-17 -1 1 6.12323e-17 3103.15 1408)">976</text></g><g><text fill="#595959" font-family="Calibri,Calibri_MSFontService,sans-serif" font-weight="400" font-size="64" transform="matrix(1 0 0 1 1971.07 214)">reward</text></g><rect x="936.5" y="118.5" width="2254" height="1320" stroke="#D9D9D9" stroke-width="3.4375" stroke-linejoin="round" stroke-miterlimit="10" fill="none"/></g></svg>