<svg width="2328" height="1312" xmlns="http://www.w3.org/2000/svg" xmlns:xlink="http://www.w3.org/1999/xlink" xml:space="preserve" overflow="hidden"><defs><clipPath id="clip0"><rect x="999" y="87" width="2328" height="1312"/></clipPath></defs><g clip-path="url(#clip0)" transform="translate(-999 -87)"><rect x="1000" y="88" width="2325" height="1309" fill="#FFFFFF"/><g><path d="M1151.5 1108.54 3274.5 1108.54M1151.5 938.531 3274.5 938.531M1151.5 768.525 3274.5 768.525M1151.5 598.52 3274.5 598.52M1151.5 428.514 3274.5 428.514M1151.5 257.5 3274.5 257.5" stroke="#D9D9D9" stroke-width="3.4375" stroke-linejoin="round" stroke-miterlimit="10" fill="none"/></g><g><path d="M1151.5 1278.5 3274.5 1278.5" stroke="#D9D9D9" stroke-width="3.4375" stroke-linejoin="round" stroke-miterlimit="10" fill="none" fill-rule="evenodd"/></g><g><path d="M1154 1266.04 1159.04 1247.04 1165.04 1251.04 1170.04 1265.04 1175.04 1265.04 1180.04 1268.04 1186.04 1270.04 1191.04 1266.04 1196.04 1263.04 1202.04 1256.04 1207.04 1248.04 1212.04 1229.04 1218.04 1261.04 1223.04 1264.04 1228.04 1249.04 1234.04 1160.04 1239.04 1266.04 1244.04 1266.04 1249.04 1253.04 1255.04 1266.04 1260.04 1249.04 1265.04 1271 1271.04 1246.04 1276.04 1260.04 1281.04 1258.04 1287.04 1266.04 1292.04 1260.04 1297.04 1248.04 1303.04 1253.04 1308.04 1265.04 1313.04 1267.04 1318.04 1263.04 1324.04 1266.04 1329.04 1269.04 1334.04 1261.04 1340.04 1263.04 1345.04 1262.04 1350.04 1263.04 1356.04 1263.04 1361.04 1253.04 1366.04 1247.04 1372.05 1271 1377.05 1264.04 1382.05 1248.04 1387.05 1271 1393.05 1254.04 1398.05 1269.04 1403.05 1268.04 1409.05 1261.04 1414.05 1261.04 1419.05 1266.04 1425.05 1262.04 1430.05 1267.04 1435.05 1265.04 1441.05 1257.04 1446.05 1259.04 1451.05 1243.04 1456.05 1271 1462.05 1265.04 1467.05 1259.04 1472.05 1251.04 1478.05 1258.04 1483.05 1263.04 1488.05 1267.04 1494.05 1266.04 1499.05 1249.04 1504.05 1266.04 1509.05 1267.04 1515.05 1237.04 1520.05 1264.04 1525.05 1245.04 1531.05 1262.04 1536.05 1266.04 1541.05 1267.04 1547.05 1257.04 1552.05 1266.04 1557.05 1269.04 1563.05 1268.04 1568.05 1262.04 1573.05 1258.04 1578.05 1265.04 1584.05 1260.04 1589.05 1266.04 1594.05 1261.04 1600.05 1266.04 1605.05 1255.04 1610.05 1251.04 1616.05 1249.04 1621.05 1260.04 1626.05 1262.04 1632.05 1260.04 1637.05 1259.04 1642.05 1265.04 1647.05 1243.04 1653.05 1266.04 1658.05 1252.04 1663.05 1266.04 1669.05 1234.04 1674.05 1262.04 1679.06 1252.04 1685.06 1267.04 1690.06 1242.04 1695.06 1262.04 1701.06 1267.04 1706.06 1259.04 1711.06 1254.04 1716.06 1266.04 1722.06 1248.04 1727.06 1254.04 1732.06 1268.04 1738.06 1263.04 1743.06 1248.04 1748.06 1255.04 1754.06 1226.04 1759.06 1240.04 1764.06 1236.04 1770.06 1237.04 1775.06 1260.04 1780.06 1224.04 1785.06 1264.04 1791.06 1268.04 1796.06 1265.04 1801.06 1256.04 1807.06 1261.04 1812.06 1210.04 1817.06 1267.04 1823.06 1254.04 1828.06 1260.04 1833.06 1232.04 1839.06 1237.04 1844.06 1245.04 1849.06 1267.04 1854.06 1258.04 1860.06 1256.04 1865.06 1267.04 1870.06 1258.04 1876.06 1258.04 1881.06 1264.04 1886.06 1256.04 1892.06 1260.04 1897.06 1249.04 1902.06 1265.04 1908.06 1266.04 1913.06 1253.04 1918.06 1247.04 1923.06 1258.04 1929.06 1265.04 1934.06 1228.04 1939.06 1262.04 1945.06 1248.04 1950.06 1254.04 1955.06 1254.04 1961.06 1254.04 1966.06 1253.04 1971.06 1266.04 1977.06 1263.04 1982.07 1243.04 1987.07 1262.04 1992.07 1258.04 1998.07 1259.04 2003.07 1250.04 2008.07 1201.04 2014.07 1249.04 2019.07 1264.04 2024.07 1258.04 2030.07 1248.04 2035.07 1259.04 2040.07 1255.04 2046.07 1267.04 2051.07 1263.04 2056.07 1254.04 2061.07 1240.04 2067.07 1238.04 2072.07 1190.04 2077.07 1260.04 2083.07 1242.04 2088.07 1261.04 2093.07 1251.04 2099.07 1237.04 2104.07 1263.04 2109.07 1256.04 2115.07 1238.04 2120.07 1186.04 2125.07 1257.04 2130.07 1250.04 2136.07 1242.04 2141.07 1259.04 2146.07 1265.04 2152.07 1248.04 2157.07 1254.04 2162.07 1259.04 2168.07 1269.04 2173.07 1243.04 2178.07 1266.04 2184.07 1252.04 2189.07 1259.04 2194.07 1233.04 2199.07 1219.04 2205.07 1267.04 2210.07 1260.04 2215.07 1236.04 2221.07 1193.04 2226.07 1244.04 2231.07 1232.04 2237.07 1243.04 2242.07 1270.04 2247.07 1204.04 2253.07 1249.04 2258.07 1242.04 2263.07 1253.04 2268.07 1267.04 2274.07 1243.04 2279.07 1203.04 2284.07 1253.04 2290.08 1246.04 2295.08 1260.04 2300.08 1266.04 2306.08 1252.04 2311.08 1239.04 2316.08 1215.04 2322.08 1178.04 2327.08 1237.04 2332.08 1225.04 2337.08 1207.04 2343.08 1254.04 2348.08 1239.04 2353.08 1222.04 2359.08 1207.04 2364.08 1199.04 2369.08 1222.04 2375.08 1243.04 2380.08 1242.04 2385.08 1222.04 2391.08 1263.04 2396.08 1223.04 2401.08 1196.04 2406.08 1245.04 2412.08 1181.04 2417.08 1237.04 2422.08 1235.04 2428.08 1249.04 2433.08 1246.04 2438.08 1224.04 2444.08 1254.04 2449.08 1220.04 2454.08 1214.04 2460.08 1220.04 2465.08 1264.04 2470.08 1194.04 2475.08 1246.04 2481.08 1253.04 2486.08 1170.04 2491.08 980.032 2497.08 1169.04 2502.08 1168.04 2507.08 1225.04 2513.08 1240.04 2518.08 1156.04 2523.08 1175.04 2529.08 1167.04 2534.08 1189.04 2539.08 1220.04 2544.08 1220.04 2550.08 1202.04 2555.08 1226.04 2560.08 1236.04 2566.08 1186.04 2571.08 1175.04 2576.08 1178.04 2582.08 1111.04 2587.08 1056.03 2592.08 1157.04 2598.09 1173.04 2603.09 1163.04 2608.09 1084.04 2613.09 1178.04 2619.09 1149.04 2624.09 930.031 2629.09 1114.04 2635.09 986.032 2640.09 1135.04 2645.09 1100.04 2651.09 979.032 2656.09 1112.04 2661.09 1078.04 2667.09 1128.04 2672.09 1141.04 2677.09 1102.04 2682.09 1142.04 2688.09 1171.04 2693.09 1103.04 2698.09 1168.04 2704.09 1067.04 2709.09 1093.04 2714.09 1058.03 2720.09 1086.04 2725.09 1056.03 2730.09 949.031 2736.09 1080.04 2741.09 1134.04 2746.09 811.027 2751.09 1111.04 2757.09 1089.04 2762.09 1125.04 2767.09 1165.04 2773.09 1098.04 2778.09 1095.04 2783.09 898.029 2789.09 1001.03 2794.09 1035.03 2799.09 1111.04 2805.09 1081.04 2810.09 913.03 2815.09 1030.03 2820.09 1008.03 2826.09 974.032 2831.09 999.033 2836.09 894.029 2842.09 1039.03 2847.09 1141.04 2852.09 891.029 2858.09 909.03 2863.09 974.032 2868.09 408 2874.09 854.028 2879.09 408 2884.09 408 2889.09 408 2895.09 408 2900.1 408 2905.1 408 2911.1 408 2916.1 408 2921.1 408 2927.1 408 2932.1 408 2937.1 408 2943.1 408 2948.1 408 2953.1 408 2958.1 408 2964.1 408 2969.1 408 2974.1 408 2980.1 408 2985.1 408 2990.1 408 2996.1 408 3001.1 408 3006.1 408 3012.1 408 3017.1 408 3022.1 408 3027.1 408 3033.1 408 3038.1 408 3043.1 408 3049.1 408 3054.1 408 3059.1 408 3065.1 408 3070.1 408 3075.1 408 3081.1 408 3086.1 408 3091.1 408 3096.1 408 3102.1 408 3107.1 408 3112.1 408 3118.1 408 3123.1 408 3128.1 408 3134.1 408 3139.1 408 3144.1 408 3150.1 408 3155.1 408 3160.1 408 3165.1 408 3171.1 408 3176.1 408 3181.1 408 3187.1 408 3192.1 408 3197.1 408 3203.11 408 3208.11 408 3213.11 408 3218.11 408 3224.11 408 3229.11 408 3234.11 408 3240.11 408 3245.11 408 3250.11 408 3256.11 408 3261.11 408 3266.11 408 3272 408" stroke="#4472C4" stroke-width="10.3125" stroke-linecap="round" stroke-linejoin="round" stroke-miterlimit="10" fill="none"/></g><g><text fill="#595959" font-family="Calibri,Calibri_MSFontService,sans-serif" font-weight="400" font-size="41" transform="matrix(1 0 0 1 1092.12 1290)">0</text></g><g><text fill="#595959" font-family="Calibri,Calibri_MSFontService,sans-serif" font-weight="400" font-size="41" transform="matrix(1 0 0 1 1050.32 1120)">200</text></g><g><text fill="#595959" font-family="Calibri,Calibri_MSFontService,sans-serif" font-weight="400" font-size="41" transform="matrix(1 0 0 1 1050.32 950)">400</text></g><g><text fill="#595959" font-family="Calibri,Calibri_MSFontService,sans-serif" font-weight="400" font-size="41" transform="matrix(1 0 0 1 1050.32 780)">600</text></g><g><text fill="#595959" font-family="Calibri,Calibri_MSFontService,sans-serif" font-weight="400" font-size="41" transform="matrix(1 0 0 1 1050.32 610)">800</text></g><g><text fill="#595959" font-family="Calibri,Calibri_MSFontService,sans-serif" font-weight="400" font-size="41" transform="matrix(1 0 0 1 1029.42 440)">1000</text></g><g><text fill="#595959" font-family="Calibri,Calibri_MSFontService,sans-serif" font-weight="400" font-size="41" transform="matrix(1 0 0 1 1029.42 270)">1200</text></g><g><text fill="#595959" font-family="Calibri,Calibri_MSFontService,sans-serif" font-weight="400" font-size="41" transform="matrix(6.12323e-17 -1 1 6.12323e-17 1167.76 1325)">1</text></g><g><text fill="#595959" font-family="Calibri,Calibri_MSFontService,sans-serif" font-weight="400" font-size="41" transform="matrix(6.12323e-17 -1 1 6.12323e-17 1220.84 1346)">11</text></g><g><text fill="#595959" font-family="Calibri,Calibri_MSFontService,sans-serif" font-weight="400" font-size="41" transform="matrix(6.12323e-17 -1 1 6.12323e-17 1273.92 1346)">21</text></g><g><text fill="#595959" font-family="Calibri,Calibri_MSFontService,sans-serif" font-weight="400" font-size="41" transform="matrix(6.12323e-17 -1 1 6.12323e-17 1326.99 1346)">31</text></g><g><text fill="#595959" font-family="Calibri,Calibri_MSFontService,sans-serif" font-weight="400" font-size="41" transform="matrix(6.12323e-17 -1 1 6.12323e-17 1380.07 1346)">41</text></g><g><text fill="#595959" font-family="Calibri,Calibri_MSFontService,sans-serif" font-weight="400" font-size="41" transform="matrix(6.12323e-17 -1 1 6.12323e-17 1433.14 1346)">51</text></g><g><text fill="#595959" font-family="Calibri,Calibri_MSFontService,sans-serif" font-weight="400" font-size="41" transform="matrix(6.12323e-17 -1 1 6.12323e-17 1486.22 1346)">61</text></g><g><text fill="#595959" font-family="Calibri,Calibri_MSFontService,sans-serif" font-weight="400" font-size="41" transform="matrix(6.12323e-17 -1 1 6.12323e-17 1539.3 1346)">71</text></g><g><text fill="#595959" font-family="Calibri,Calibri_MSFontService,sans-serif" font-weight="400" font-size="41" transform="matrix(6.12323e-17 -1 1 6.12323e-17 1592.37 1346)">81</text></g><g><text fill="#595959" font-family="Calibri,Calibri_MSFontService,sans-serif" font-weight="400" font-size="41" transform="matrix(6.12323e-17 -1 1 6.12323e-17 1645.45 1346)">91</text></g><g><text fill="#595959" font-family="Calibri,Calibri_MSFontService,sans-serif" font-weight="400" font-size="41" transform="matrix(6.12323e-17 -1 1 6.12323e-17 1698.53 1367)">101</text></g><g><text fill="#595959" font-family="Calibri,Calibri_MSFontService,sans-serif" font-weight="400" font-size="41" transform="matrix(6.12323e-17 -1 1 6.12323e-17 1751.6 1367)">111</text></g><g><text fill="#595959" font-family="Calibri,Calibri_MSFontService,sans-serif" font-weight="400" font-size="41" transform="matrix(6.12323e-17 -1 1 6.12323e-17 1804.68 1367)">121</text></g><g><text fill="#595959" font-family="Calibri,Calibri_MSFontService,sans-serif" font-weight="400" font-size="41" transform="matrix(6.12323e-17 -1 1 6.12323e-17 1857.75 1367)">131</text></g><g><text fill="#595959" font-family="Calibri,Calibri_MSFontService,sans-serif" font-weight="400" font-size="41" transform="matrix(6.12323e-17 -1 1 6.12323e-17 1910.83 1367)">141</text></g><g><text fill="#595959" font-family="Calibri,Calibri_MSFontService,sans-serif" font-weight="400" font-size="41" transform="matrix(6.12323e-17 -1 1 6.12323e-17 1963.91 1367)">151</text></g><g><text fill="#595959" font-family="Calibri,Calibri_MSFontService,sans-serif" font-weight="400" font-size="41" transform="matrix(6.12323e-17 -1 1 6.12323e-17 2016.98 1367)">161</text></g><g><text fill="#595959" font-family="Calibri,Calibri_MSFontService,sans-serif" font-weight="400" font-size="41" transform="matrix(6.12323e-17 -1 1 6.12323e-17 2070.06 1367)">171</text></g><g><text fill="#595959" font-family="Calibri,Calibri_MSFontService,sans-serif" font-weight="400" font-size="41" transform="matrix(6.12323e-17 -1 1 6.12323e-17 2123.14 1367)">181</text></g><g><text fill="#595959" font-family="Calibri,Calibri_MSFontService,sans-serif" font-weight="400" font-size="41" transform="matrix(6.12323e-17 -1 1 6.12323e-17 2176.21 1367)">191</text></g><g><text fill="#595959" font-family="Calibri,Calibri_MSFontService,sans-serif" font-weight="400" font-size="41" transform="matrix(6.12323e-17 -1 1 6.12323e-17 2229.29 1367)">201</text></g><g><text fill="#595959" font-family="Calibri,Calibri_MSFontService,sans-serif" font-weight="400" font-size="41" transform="matrix(6.12323e-17 -1 1 6.12323e-17 2282.36 1367)">211</text></g><g><text fill="#595959" font-family="Calibri,Calibri_MSFontService,sans-serif" font-weight="400" font-size="41" transform="matrix(6.12323e-17 -1 1 6.12323e-17 2335.44 1367)">221</text></g><g><text fill="#595959" font-family="Calibri,Calibri_MSFontService,sans-serif" font-weight="400" font-size="41" transform="matrix(6.12323e-17 -1 1 6.12323e-17 2388.52 1367)">231</text></g><g><text fill="#595959" font-family="Calibri,Calibri_MSFontService,sans-serif" font-weight="400" font-size="41" transform="matrix(6.12323e-17 -1 1 6.12323e-17 2441.59 1367)">241</text></g><g><text fill="#595959" font-family="Calibri,Calibri_MSFontService,sans-serif" font-weight="400" font-size="41" transform="matrix(6.12323e-17 -1 1 6.12323e-17 2494.67 1367)">251</text></g><g><text fill="#595959" font-family="Calibri,Calibri_MSFontService,sans-serif" font-weight="400" font-size="41" transform="matrix(6.12323e-17 -1 1 6.12323e-17 2547.75 1367)">261</text></g><g><text fill="#595959" font-family="Calibri,Calibri_MSFontService,sans-serif" font-weight="400" font-size="41" transform="matrix(6.12323e-17 -1 1 6.12323e-17 2600.82 1367)">271</text></g><g><text fill="#595959" font-family="Calibri,Calibri_MSFontService,sans-serif" font-weight="400" font-size="41" transform="matrix(6.12323e-17 -1 1 6.12323e-17 2653.9 1367)">281</text></g><g><text fill="#595959" font-family="Calibri,Calibri_MSFontService,sans-serif" font-weight="400" font-size="41" transform="matrix(6.12323e-17 -1 1 6.12323e-17 2706.97 1367)">291</text></g><g><text fill="#595959" font-family="Calibri,Calibri_MSFontService,sans-serif" font-weight="400" font-size="41" transform="matrix(6.12323e-17 -1 1 6.12323e-17 2760.05 1367)">301</text></g><g><text fill="#595959" font-family="Calibri,Calibri_MSFontService,sans-serif" font-weight="400" font-size="41" transform="matrix(6.12323e-17 -1 1 6.12323e-17 2813.13 1367)">311</text></g><g><text fill="#595959" font-family="Calibri,Calibri_MSFontService,sans-serif" font-weight="400" font-size="41" transform="matrix(6.12323e-17 -1 1 6.12323e-17 2866.2 1367)">321</text></g><g><text fill="#595959" font-family="Calibri,Calibri_MSFontService,sans-serif" font-weight="400" font-size="41" transform="matrix(6.12323e-17 -1 1 6.12323e-17 2919.28 1367)">331</text></g><g><text fill="#595959" font-family="Calibri,Calibri_MSFontService,sans-serif" font-weight="400" font-size="41" transform="matrix(6.12323e-17 -1 1 6.12323e-17 2972.36 1367)">341</text></g><g><text fill="#595959" font-family="Calibri,Calibri_MSFontService,sans-serif" font-weight="400" font-size="41" transform="matrix(6.12323e-17 -1 1 6.12323e-17 3025.43 1367)">351</text></g><g><text fill="#595959" font-family="Calibri,Calibri_MSFontService,sans-serif" font-weight="400" font-size="41" transform="matrix(6.12323e-17 -1 1 6.12323e-17 3078.51 1367)">361</text></g><g><text fill="#595959" font-family="Calibri,Calibri_MSFontService,sans-serif" font-weight="400" font-size="41" transform="matrix(6.12323e-17 -1 1 6.12323e-17 3131.58 1367)">371</text></g><g><text fill="#595959" font-family="Calibri,Calibri_MSFontService,sans-serif" font-weight="400" font-size="41" transform="matrix(6.12323e-17 -1 1 6.12323e-17 3184.66 1367)">381</text></g><g><text fill="#595959" font-family="Calibri,Calibri_MSFontService,sans-serif" font-weight="400" font-size="41" transform="matrix(6.12323e-17 -1 1 6.12323e-17 3237.74 1367)">391</text></g><g><text fill="#595959" font-family="Calibri,Calibri_MSFontService,sans-serif" font-weight="400" font-size="64" transform="matrix(1 0 0 1 2070.07 183)">reward</text></g><rect x="1000.5" y="88.4998" width="2325" height="1309" stroke="#D9D9D9" stroke-width="3.4375" stroke-linejoin="round" stroke-miterlimit="10" fill="none"/></g></svg>