<svg width="1924" height="1279" xmlns="http://www.w3.org/2000/svg" xmlns:xlink="http://www.w3.org/1999/xlink" xml:space="preserve" overflow="hidden"><defs><clipPath id="clip0"><rect x="795" y="186" width="1924" height="1279"/></clipPath></defs><g clip-path="url(#clip0)" transform="translate(-795 -186)"><rect x="796" y="187" width="1921" height="1276" fill="#FFFFFF"/><g><path d="M947.5 1179.54 2666.5 1179.54M947.5 1015.53 2666.5 1015.53M947.5 850.528 2666.5 850.528M947.5 686.523 2666.5 686.523M947.5 521.517 2666.5 521.517M947.5 356.5 2666.5 356.5" stroke="#D9D9D9" stroke-width="3.4375" stroke-linejoin="round" stroke-miterlimit="10" fill="none"/></g><g><path d="M947.5 1344.5 2666.5 1344.5" stroke="#D9D9D9" stroke-width="3.4375" stroke-linejoin="round" stroke-miterlimit="10" fill="none" fill-rule="evenodd"/></g><g><path d="M949 1318.04 952.031 1335.04 956.031 1334.04 959.031 1335.04 962.032 1334.04 965.032 1332.04 968.032 1330.04 971.032 1332.04 974.032 1333.04 977.032 1325.04 981.032 1317.04 984.032 1334.04 987.032 1301.04 990.033 1322.04 993.033 1333.04 996.033 1336.04 999.033 1296.04 1002.03 1330.04 1005.03 1331.04 1009.03 1334.04 1012.03 1331.04 1015.03 1329.04 1018.03 1330.04 1021.03 1333.04 1024.03 1331.04 1027.03 1331.04 1030.03 1321.04 1034.03 1335.04 1037.03 1337.04 1040.03 1316.04 1043.03 1316.04 1046.03 1334.04 1049.03 1291.04 1052.03 1337.04 1055.03 1335.04 1058.03 1334.04 1062.03 1332.04 1065.03 1333.04 1068.04 1310.04 1071.04 1335.04 1074.04 1303.04 1077.04 1325.04 1080.04 1329.04 1083.04 1331.04 1087.04 1329.04 1090.04 1335.04 1093.04 1332.04 1096.04 1335.04 1099.04 1325.04 1102.04 1330.04 1105.04 1334.04 1108.04 1334.04 1112.04 1333.04 1115.04 1323.04 1118.04 1315.04 1121.04 1334.04 1124.04 1336.04 1127.04 1331.04 1130.04 1334.04 1133.04 1328.04 1136.04 1322.04 1140.04 1325.04 1143.04 1336.04 1146.04 1333.04 1149.04 1334.04 1152.04 1332.04 1155.04 1322.04 1158.04 1327.04 1161.04 1325.04 1165.04 1322.04 1168.04 1316.04 1171.04 1333.04 1174.04 1334.04 1177.04 1326.04 1180.04 1332.04 1183.04 1329.04 1186.04 1319.04 1189.04 1335.04 1193.04 1329.04 1196.04 1311.04 1199.04 1330.04 1202.04 1330.04 1205.04 1328.04 1208.04 1327.04 1211.04 1334.04 1214.04 1335.04 1218.04 1337.04 1221.04 1300.04 1224.04 1336.04 1227.04 1336.04 1230.04 1295.04 1233.04 1334.04 1236.04 1320.04 1239.04 1324.04 1243.04 1318.04 1246.04 1334.04 1249.04 1315.04 1252.04 1334.04 1255.04 1329.04 1258.04 1336.04 1261.04 1339.04 1264.04 1332.04 1267.04 1326.04 1271.04 1325.04 1274.04 1285.04 1277.04 1320.04 1280.04 1315.04 1283.04 1325.04 1286.04 1325.04 1289.04 1310.04 1292.04 1336.04 1296.04 1334.04 1299.04 1334.04 1302.04 1279.04 1305.04 1318.04 1308.04 1329.04 1311.04 1285.04 1314.04 1333.04 1317.04 1329.04 1321.04 1301.04 1324.04 1331.04 1327.04 1329.04 1330.04 1297.04 1333.04 1334.04 1336.04 1319.04 1339.04 1334.04 1342.04 1319.04 1345.04 1318.04 1349.04 1325.04 1352.04 1325.04 1355.04 1304.04 1358.04 1282.04 1361.04 1264.04 1364.04 1322.04 1367.04 1331.04 1370.04 1333.04 1374.05 1299.04 1377.05 1334.04 1380.05 1335.04 1383.05 1319.04 1386.05 1306.04 1389.05 1311.04 1392.05 1325.04 1395.05 1324.04 1398.05 1320.04 1402.05 1330.04 1405.05 1320.04 1408.05 1333.04 1411.05 1332.04 1414.05 1313.04 1417.05 1329.04 1420.05 1334.04 1423.05 1322.04 1427.05 1308.04 1430.05 1332.04 1433.05 1329.04 1436.05 1308.04 1439.05 1335.04 1442.05 1325.04 1445.05 1301.04 1448.05 1334.04 1452.05 1322.04 1455.05 1323.04 1458.05 1327.04 1461.05 1330.04 1464.05 1323.04 1467.05 1326.04 1470.05 1312.04 1473.05 1325.04 1476.05 1320.04 1480.05 1339.04 1483.05 1311.04 1486.05 1315.04 1489.05 1301.04 1492.05 1305.04 1495.05 1329.04 1498.05 1303.04 1501.05 1306.04 1505.05 1313.04 1508.05 1328.04 1511.05 1327.04 1514.05 1321.04 1517.05 1316.04 1520.05 1322.04 1523.05 1301.04 1526.05 1282.04 1530.05 1326.04 1533.05 1321.04 1536.05 1313.04 1539.05 1327.04 1542.05 1308.04 1545.05 1315.04 1548.05 1323.04 1551.05 1332.04 1554.05 1321.04 1558.05 1306.04 1561.05 1320.04 1564.05 1263.04 1567.05 1325.04 1570.05 1325.04 1573.05 1301.04 1576.05 1317.04 1579.05 1270.04 1583.05 1315.04 1586.05 1311.04 1589.05 1314.04 1592.05 1326.04 1595.05 1326.04 1598.05 1304.04 1601.05 1292.04 1604.05 1308.04 1607.05 1325.04 1611.05 1316.04 1614.05 1298.04 1617.05 1325.04 1620.05 1329.04 1623.05 1331.04 1626.05 1331.04 1629.05 1296.04 1632.05 1322.04 1636.05 1321.04 1639.05 1309.04 1642.05 1336.04 1645.05 1254.04 1648.05 1323.04 1651.05 1324.04 1654.05 1309.04 1657.05 1315.04 1661.05 1327.04 1664.05 1327.04 1667.05 1322.04 1670.05 1300.04 1673.05 1327.04 1676.05 1267.04 1679.06 1309.04 1682.06 1327.04 1685.06 1328.04 1689.06 1332.04 1692.06 1326.04 1695.06 1314.04 1698.06 1279.04 1701.06 1278.04 1704.06 1303.04 1707.06 1307.04 1710.06 1331.04 1714.06 1274.04 1717.06 1301.04 1720.06 1333.04 1723.06 1316.04 1726.06 1324.04 1729.06 1292.04 1732.06 1301.04 1735.06 1319.04 1738.06 1311.04 1742.06 1301.04 1745.06 1234.04 1748.06 1334.04 1751.06 1306.04 1754.06 1303.04 1757.06 1306.04 1760.06 1292.04 1763.06 1298.04 1767.06 1303.04 1770.06 1306.04 1773.06 1283.04 1776.06 1333.04 1779.06 1326.04 1782.06 1290.04 1785.06 1305.04 1788.06 1320.04 1792.06 1287.04 1795.06 1276.04 1798.06 1311.04 1801.06 1278.04 1804.06 1212.04 1807.06 1273.04 1810.06 1275.04 1813.06 1333.04 1816.06 1312.04 1820.06 1286.04 1823.06 1265.04 1826.06 1311.04 1829.06 1320.04 1832.06 1244.04 1835.06 1269.04 1838.06 1269.04 1841.06 1260.04 1845.06 1334.04 1848.06 1285.04 1851.06 1328.04 1854.06 1324.04 1857.06 1264.04 1860.06 1304.04 1863.06 1280.04 1866.06 1296.04 1870.06 1287.04 1873.06 1306.04 1876.06 1309.04 1879.06 1266.04 1882.06 1260.04 1885.06 1310.04 1888.06 1298.04 1891.06 1239.04 1894.06 1316.04 1898.06 1250.04 1901.06 1319.04 1904.06 1223.04 1907.06 1326.04 1910.06 1238.04 1913.06 1311.04 1916.06 1237.04 1919.06 1261.04 1923.06 1306.04 1926.06 1284.04 1929.06 1321.04 1932.06 1305.04 1935.06 1255.04 1938.06 1295.04 1941.06 1223.04 1944.06 1278.04 1947.06 1198.04 1951.06 1254.04 1954.06 1191.04 1957.06 1326.04 1960.06 1323.04 1963.06 1119.04 1966.06 1300.04 1969.06 1237.04 1972.06 1218.04 1976.06 1276.04 1979.06 1318.04 1982.07 1308.04 1985.07 1256.04 1988.07 1279.04 1991.07 1320.04 1994.07 1220.04 1997.07 1262.04 2001.07 1244.04 2004.07 1310.04 2007.07 1301.04 2010.07 1250.04 2013.07 1218.04 2016.07 1311.04 2019.07 1296.04 2022.07 1243.04 2025.07 1258.04 2029.07 1327.04 2032.07 1263.04 2035.07 1332.04 2038.07 1227.04 2041.07 1297.04 2044.07 1288.04 2047.07 1279.04 2050.07 1328.04 2054.07 1328.04 2057.07 1251.04 2060.07 1245.04 2063.07 1276.04 2066.07 1167.04 2069.07 1190.04 2072.07 1148.04 2075.07 1184.04 2079.07 1236.04 2082.07 1309.04 2085.07 1242.04 2088.07 1299.04 2091.07 1330.04 2094.07 1243.04 2097.07 1233.04 2100.07 1213.04 2103.07 1225.04 2107.07 1256.04 2110.07 1253.04 2113.07 1236.04 2116.07 1251.04 2119.07 1258.04 2122.07 1244.04 2125.07 1290.04 2128.07 1226.04 2132.07 1260.04 2135.07 1265.04 2138.07 1213.04 2141.07 1158.04 2144.07 1306.04 2147.07 1199.04 2150.07 1182.04 2153.07 1192.04 2156.07 1326.04 2160.07 1241.04 2163.07 1242.04 2166.07 1245.04 2169.07 1240.04 2172.07 1271.04 2175.07 1213.04 2178.07 978.032 2181.07 1233.04 2185.07 1265.04 2188.07 1310.04 2191.07 1270.04 2194.07 1050.03 2197.07 1142.04 2200.07 1228.04 2203.07 1191.04 2206.07 1295.04 2210.07 1164.04 2213.07 1250.04 2216.07 1308.04 2219.07 1319.04 2222.07 1111.04 2225.07 1329.04 2228.07 1170.04 2231.07 1341 2234.07 1158.04 2238.07 1183.04 2241.07 1185.04 2244.07 1196.04 2247.07 1107.04 2250.07 1181.04 2253.07 1222.04 2256.07 1153.04 2259.07 1227.04 2263.07 1230.04 2266.07 1262.04 2269.07 1041.03 2272.07 1297.04 2275.07 1246.04 2278.07 1127.04 2281.07 1111.04 2284.07 1131.04 2287.08 1181.04 2291.08 1176.04 2294.08 1130.04 2297.08 1315.04 2300.08 1109.04 2303.08 802.026 2306.08 1121.04 2309.08 1259.04 2312.08 1200.04 2316.08 1107.04 2319.08 1162.04 2322.08 1309.04 2325.08 1033.03 2328.08 1047.03 2331.08 1116.04 2334.08 1187.04 2337.08 1308.04 2341.08 958.031 2344.08 1217.04 2347.08 1203.04 2350.08 1168.04 2353.08 1187.04 2356.08 1251.04 2359.08 1035.03 2362.08 1185.04 2365.08 1185.04 2369.08 1255.04 2372.08 1096.04 2375.08 1051.03 2378.08 1055.03 2381.08 940.031 2384.08 810.027 2387.08 887.029 2390.08 837.027 2394.08 788.026 2397.08 722.024 2400.08 970.032 2403.08 1278.04 2406.08 641.021 2409.08 804.026 2412.08 801.026 2415.08 941.031 2419.08 705.023 2422.08 1245.04 2425.08 1149.04 2428.08 912.03 2431.08 1027.03 2434.08 985.032 2437.08 1153.04 2440.08 1155.04 2443.08 502 2447.08 502 2450.08 1028.03 2453.08 1081.04 2456.08 707.023 2459.08 876.029 2462.08 517.017 2465.08 502 2468.08 1329.04 2472.08 919.03 2475.08 502 2478.08 927.03 2481.08 666.022 2484.08 608.02 2487.08 1209.04 2490.08 1209.04 2493.08 502 2496.08 502 2500.08 502 2503.08 912.03 2506.08 935.031 2509.08 841.028 2512.08 1009.03 2515.08 979.032 2518.08 935.031 2521.08 1272.04 2525.08 502 2528.08 502 2531.08 502 2534.08 502 2537.08 502 2540.08 502 2543.08 502 2546.08 862.028 2550.08 984.032 2553.08 575.019 2556.08 502 2559.08 1271.04 2562.08 502 2565.08 502 2568.08 502 2571.08 502 2574.08 502 2578.08 502 2581.08 502 2584.08 938.031 2587.08 908.03 2590.08 517.017 2593.08 717.024 2596.09 1114.04 2599.09 502 2603.09 502 2606.09 502 2609.09 502 2612.09 502 2615.09 502 2618.09 502 2621.09 502 2624.09 502 2628.09 502 2631.09 502 2634.09 502 2637.09 502 2640.09 502 2643.09 502 2646.09 502 2649.09 502 2652.09 502 2656.09 502 2659.09 502 2662.09 502 2665 502" stroke="#4472C4" stroke-width="10.3125" stroke-linecap="round" stroke-linejoin="round" stroke-miterlimit="10" fill="none"/></g><g><text fill="#595959" font-family="Calibri,Calibri_MSFontService,sans-serif" font-weight="400" font-size="41" transform="matrix(1 0 0 1 888.617 1356)">0</text></g><g><text fill="#595959" font-family="Calibri,Calibri_MSFontService,sans-serif" font-weight="400" font-size="41" transform="matrix(1 0 0 1 846.817 1191)">200</text></g><g><text fill="#595959" font-family="Calibri,Calibri_MSFontService,sans-serif" font-weight="400" font-size="41" transform="matrix(1 0 0 1 846.817 1027)">400</text></g><g><text fill="#595959" font-family="Calibri,Calibri_MSFontService,sans-serif" font-weight="400" font-size="41" transform="matrix(1 0 0 1 846.817 862)">600</text></g><g><text fill="#595959" font-family="Calibri,Calibri_MSFontService,sans-serif" font-weight="400" font-size="41" transform="matrix(1 0 0 1 846.817 698)">800</text></g><g><text fill="#595959" font-family="Calibri,Calibri_MSFontService,sans-serif" font-weight="400" font-size="41" transform="matrix(1 0 0 1 825.917 533)">1000</text></g><g><text fill="#595959" font-family="Calibri,Calibri_MSFontService,sans-serif" font-weight="400" font-size="41" transform="matrix(1 0 0 1 825.917 369)">1200</text></g><g><text fill="#595959" font-family="Calibri,Calibri_MSFontService,sans-serif" font-weight="400" font-size="41" transform="matrix(6.12323e-17 -1 1 6.12323e-17 963.169 1391)">1</text></g><g><text fill="#595959" font-family="Calibri,Calibri_MSFontService,sans-serif" font-weight="400" font-size="41" transform="matrix(6.12323e-17 -1 1 6.12323e-17 1016.2 1412)">18</text></g><g><text fill="#595959" font-family="Calibri,Calibri_MSFontService,sans-serif" font-weight="400" font-size="41" transform="matrix(6.12323e-17 -1 1 6.12323e-17 1069.23 1412)">35</text></g><g><text fill="#595959" font-family="Calibri,Calibri_MSFontService,sans-serif" font-weight="400" font-size="41" transform="matrix(6.12323e-17 -1 1 6.12323e-17 1122.26 1412)">52</text></g><g><text fill="#595959" font-family="Calibri,Calibri_MSFontService,sans-serif" font-weight="400" font-size="41" transform="matrix(6.12323e-17 -1 1 6.12323e-17 1175.29 1412)">69</text></g><g><text fill="#595959" font-family="Calibri,Calibri_MSFontService,sans-serif" font-weight="400" font-size="41" transform="matrix(6.12323e-17 -1 1 6.12323e-17 1228.32 1412)">86</text></g><g><text fill="#595959" font-family="Calibri,Calibri_MSFontService,sans-serif" font-weight="400" font-size="41" transform="matrix(6.12323e-17 -1 1 6.12323e-17 1281.35 1433)">103</text></g><g><text fill="#595959" font-family="Calibri,Calibri_MSFontService,sans-serif" font-weight="400" font-size="41" transform="matrix(6.12323e-17 -1 1 6.12323e-17 1334.38 1433)">120</text></g><g><text fill="#595959" font-family="Calibri,Calibri_MSFontService,sans-serif" font-weight="400" font-size="41" transform="matrix(6.12323e-17 -1 1 6.12323e-17 1387.41 1433)">137</text></g><g><text fill="#595959" font-family="Calibri,Calibri_MSFontService,sans-serif" font-weight="400" font-size="41" transform="matrix(6.12323e-17 -1 1 6.12323e-17 1440.44 1433)">154</text></g><g><text fill="#595959" font-family="Calibri,Calibri_MSFontService,sans-serif" font-weight="400" font-size="41" transform="matrix(6.12323e-17 -1 1 6.12323e-17 1493.47 1433)">171</text></g><g><text fill="#595959" font-family="Calibri,Calibri_MSFontService,sans-serif" font-weight="400" font-size="41" transform="matrix(6.12323e-17 -1 1 6.12323e-17 1546.5 1433)">188</text></g><g><text fill="#595959" font-family="Calibri,Calibri_MSFontService,sans-serif" font-weight="400" font-size="41" transform="matrix(6.12323e-17 -1 1 6.12323e-17 1599.53 1433)">205</text></g><g><text fill="#595959" font-family="Calibri,Calibri_MSFontService,sans-serif" font-weight="400" font-size="41" transform="matrix(6.12323e-17 -1 1 6.12323e-17 1652.56 1433)">222</text></g><g><text fill="#595959" font-family="Calibri,Calibri_MSFontService,sans-serif" font-weight="400" font-size="41" transform="matrix(6.12323e-17 -1 1 6.12323e-17 1705.59 1433)">239</text></g><g><text fill="#595959" font-family="Calibri,Calibri_MSFontService,sans-serif" font-weight="400" font-size="41" transform="matrix(6.12323e-17 -1 1 6.12323e-17 1758.62 1433)">256</text></g><g><text fill="#595959" font-family="Calibri,Calibri_MSFontService,sans-serif" font-weight="400" font-size="41" transform="matrix(6.12323e-17 -1 1 6.12323e-17 1811.65 1433)">273</text></g><g><text fill="#595959" font-family="Calibri,Calibri_MSFontService,sans-serif" font-weight="400" font-size="41" transform="matrix(6.12323e-17 -1 1 6.12323e-17 1864.68 1433)">290</text></g><g><text fill="#595959" font-family="Calibri,Calibri_MSFontService,sans-serif" font-weight="400" font-size="41" transform="matrix(6.12323e-17 -1 1 6.12323e-17 1917.71 1433)">307</text></g><g><text fill="#595959" font-family="Calibri,Calibri_MSFontService,sans-serif" font-weight="400" font-size="41" transform="matrix(6.12323e-17 -1 1 6.12323e-17 1970.74 1433)">324</text></g><g><text fill="#595959" font-family="Calibri,Calibri_MSFontService,sans-serif" font-weight="400" font-size="41" transform="matrix(6.12323e-17 -1 1 6.12323e-17 2023.77 1433)">341</text></g><g><text fill="#595959" font-family="Calibri,Calibri_MSFontService,sans-serif" font-weight="400" font-size="41" transform="matrix(6.12323e-17 -1 1 6.12323e-17 2076.8 1433)">358</text></g><g><text fill="#595959" font-family="Calibri,Calibri_MSFontService,sans-serif" font-weight="400" font-size="41" transform="matrix(6.12323e-17 -1 1 6.12323e-17 2129.83 1433)">375</text></g><g><text fill="#595959" font-family="Calibri,Calibri_MSFontService,sans-serif" font-weight="400" font-size="41" transform="matrix(6.12323e-17 -1 1 6.12323e-17 2182.86 1433)">392</text></g><g><text fill="#595959" font-family="Calibri,Calibri_MSFontService,sans-serif" font-weight="400" font-size="41" transform="matrix(6.12323e-17 -1 1 6.12323e-17 2235.89 1433)">409</text></g><g><text fill="#595959" font-family="Calibri,Calibri_MSFontService,sans-serif" font-weight="400" font-size="41" transform="matrix(6.12323e-17 -1 1 6.12323e-17 2288.92 1433)">426</text></g><g><text fill="#595959" font-family="Calibri,Calibri_MSFontService,sans-serif" font-weight="400" font-size="41" transform="matrix(6.12323e-17 -1 1 6.12323e-17 2341.95 1433)">443</text></g><g><text fill="#595959" font-family="Calibri,Calibri_MSFontService,sans-serif" font-weight="400" font-size="41" transform="matrix(6.12323e-17 -1 1 6.12323e-17 2394.98 1433)">460</text></g><g><text fill="#595959" font-family="Calibri,Calibri_MSFontService,sans-serif" font-weight="400" font-size="41" transform="matrix(6.12323e-17 -1 1 6.12323e-17 2448.01 1433)">477</text></g><g><text fill="#595959" font-family="Calibri,Calibri_MSFontService,sans-serif" font-weight="400" font-size="41" transform="matrix(6.12323e-17 -1 1 6.12323e-17 2501.04 1433)">494</text></g><g><text fill="#595959" font-family="Calibri,Calibri_MSFontService,sans-serif" font-weight="400" font-size="41" transform="matrix(6.12323e-17 -1 1 6.12323e-17 2554.07 1433)">511</text></g><g><text fill="#595959" font-family="Calibri,Calibri_MSFontService,sans-serif" font-weight="400" font-size="41" transform="matrix(6.12323e-17 -1 1 6.12323e-17 2607.1 1433)">528</text></g><g><text fill="#595959" font-family="Calibri,Calibri_MSFontService,sans-serif" font-weight="400" font-size="41" transform="matrix(6.12323e-17 -1 1 6.12323e-17 2660.13 1433)">545</text></g><g><text fill="#595959" font-family="Calibri,Calibri_MSFontService,sans-serif" font-weight="400" font-size="64" transform="matrix(1 0 0 1 1664.45 282)">reward</text></g><rect x="796.5" y="187.5" width="1921" height="1276" stroke="#D9D9D9" stroke-width="3.4375" stroke-linejoin="round" stroke-miterlimit="10" fill="none"/></g></svg>