<svg width="2498" height="1460" xmlns="http://www.w3.org/2000/svg" xmlns:xlink="http://www.w3.org/1999/xlink" xml:space="preserve" overflow="hidden"><defs><clipPath id="clip0"><rect x="1535" y="131" width="2498" height="1460"/></clipPath></defs><g clip-path="url(#clip0)" transform="translate(-1535 -131)"><rect x="1536" y="132" width="2495" height="1457" fill="#FFFFFF"/><g><path d="M1700.5 1449.5 3981.5 1449.5M1700.5 1258.54 3981.5 1258.54M1700.5 1067.54 3981.5 1067.54M1700.5 875.529 3981.5 875.529M1700.5 684.523 3981.5 684.523M1700.5 493.516 3981.5 493.516" stroke="#D9D9D9" stroke-width="3.4375" stroke-linejoin="round" stroke-miterlimit="10" fill="none"/></g><g><path d="M1700.5 301.5 3981.5 301.5" stroke="#D9D9D9" stroke-width="3.4375" stroke-linejoin="round" stroke-miterlimit="10" fill="none" fill-rule="evenodd"/></g><g><path d="M1701 1179.04 1702.06 1227.04 1704.06 1016.03 1705.06 1185.04 1707.06 1182.04 1708.06 981.032 1709.06 1171.04 1711.06 981.032 1712.06 1152.04 1714.06 1179.04 1715.06 1143.04 1716.06 1227.04 1718.06 1263.04 1719.06 1035.03 1721.06 1067.04 1722.06 934.031 1724.06 1123.04 1725.06 1247.04 1726.06 1215.04 1728.06 1012.03 1729.06 1138.04 1731.06 1253.04 1732.06 1047.03 1734.06 897.029 1735.06 858.028 1736.06 1375 1738.06 1248.04 1739.06 1245.04 1741.06 1020.03 1742.06 790.026 1744.06 1228.04 1745.06 1251.04 1746.06 1183.04 1748.06 1155.04 1749.06 1121.04 1751.06 1205.04 1752.06 1144.04 1754.06 1075.04 1755.06 1260.04 1756.06 907.03 1758.06 1180.04 1759.06 1192.04 1761.06 1146.04 1762.06 982.032 1764.06 1251.04 1765.06 1251.04 1766.06 831.027 1768.06 1256.04 1769.06 1160.04 1771.06 1240.04 1772.06 917.03 1774.06 1252.04 1775.06 1239.04 1776.06 1184.04 1778.06 1209.04 1779.06 1137.04 1781.06 1163.04 1782.06 1268.04 1783.06 1195.04 1785.06 938.031 1786.06 1214.04 1788.06 1260.04 1789.06 1133.04 1791.06 1272.04 1792.06 1039.03 1793.06 1218.04 1795.06 1226.04 1796.06 1082.04 1798.06 1143.04 1799.06 1193.04 1801.06 1160.04 1802.06 1166.04 1803.06 1192.04 1805.06 1179.04 1806.06 1148.04 1808.06 1187.04 1809.06 1251.04 1811.06 1264.04 1812.06 1014.03 1813.06 1070.04 1815.06 1186.04 1816.06 1221.04 1818.06 1152.04 1819.06 808.026 1821.06 1044.03 1822.06 1164.04 1823.06 1097.04 1825.06 1119.04 1826.06 1158.04 1828.06 877.029 1829.06 1024.03 1831.06 1124.04 1832.06 923.03 1833.06 1138.04 1835.06 928.03 1836.06 1161.04 1838.06 977.032 1839.06 1100.04 1841.06 1075.04 1842.06 1138.04 1843.06 1037.03 1845.06 1178.04 1846.06 1040.03 1848.06 1243.04 1849.06 1239.04 1850.06 977.032 1852.06 1131.04 1853.06 1170.04 1855.06 1077.04 1856.06 1169.04 1858.06 793.026 1859.06 1316.04 1860.06 1249.04 1862.06 1104.04 1863.06 1081.04 1865.06 1126.04 1866.06 962.031 1868.06 995.033 1869.06 1206.04 1870.06 1131.04 1872.06 1101.04 1873.06 1186.04 1875.06 1071.04 1876.06 983.032 1878.06 1203.04 1879.06 1082.04 1880.06 1133.04 1882.06 1218.04 1883.06 995.033 1885.06 1135.04 1886.06 1201.04 1888.06 1147.04 1889.06 1082.04 1890.06 1232.04 1892.06 1240.04 1893.06 1074.04 1895.06 1239.04 1896.06 1154.04 1898.06 1067.04 1899.06 804.026 1900.06 1151.04 1902.06 1088.04 1903.06 926.03 1905.06 863.028 1906.06 1170.04 1908.06 1078.04 1909.06 1198.04 1910.06 1134.04 1912.06 799.026 1913.06 1100.04 1915.06 1195.04 1916.06 1140.04 1917.06 1182.04 1919.06 1206.04 1920.06 1183.04 1922.06 1196.04 1923.06 947.031 1925.06 842.028 1926.06 1247.04 1927.06 1250.04 1929.06 1245.04 1930.06 1189.04 1932.06 1124.04 1933.06 1256.04 1935.06 1123.04 1936.06 1235.04 1937.06 1250.04 1939.06 1085.04 1940.06 1097.04 1942.06 1246.04 1943.06 1249.04 1945.06 1169.04 1946.06 1176.04 1947.06 1231.04 1949.06 1250.04 1950.06 1245.04 1952.06 1240.04 1953.06 845.028 1955.06 1242.04 1956.06 1161.04 1957.06 1183.04 1959.06 1095.04 1960.06 1074.04 1962.06 1012.03 1963.06 1228.04 1965.06 1123.04 1966.06 1208.04 1967.06 1022.03 1969.06 1233.04 1970.06 1238.04 1972.06 988.032 1973.06 1218.04 1975.06 1061.03 1976.06 1245.04 1977.06 1017.03 1979.06 986.032 1980.06 1078.04 1982.07 1126.04 1983.07 1080.04 1984.07 1158.04 1986.07 1082.04 1987.07 1189.04 1989.07 1047.03 1990.07 1103.04 1992.07 1242.04 1993.07 1086.04 1994.07 1022.03 1996.07 982.032 1997.07 1122.04 1999.07 1133.04 2000.07 893.029 2002.07 1169.04 2003.07 1029.03 2004.07 1027.03 2006.07 1085.04 2007.07 1057.03 2009.07 1224.04 2010.07 1231.04 2012.07 1298.04 2013.07 1101.04 2014.07 1225.04 2016.07 1023.03 2017.07 1129.04 2019.07 1145.04 2020.07 1015.03 2022.07 1257.04 2023.07 1183.04 2024.07 1135.04 2026.07 1208.04 2027.07 1231.04 2029.07 1167.04 2030.07 1168.04 2032.07 982.032 2033.07 1230.04 2034.07 1144.04 2036.07 1194.04 2037.07 1129.04 2039.07 1101.04 2040.07 1004.03 2042.07 953.031 2043.07 1186.04 2044.07 1081.04 2046.07 907.03 2047.07 1213.04 2049.07 1216.04 2050.07 1143.04 2051.07 1098.04 2053.07 1198.04 2054.07 1109.04 2056.07 1125.04 2057.07 1209.04 2059.07 1133.04 2060.07 1017.03 2061.07 1080.04 2063.07 1210.04 2064.07 1103.04 2066.07 1088.04 2067.07 1187.04 2069.07 953.031 2070.07 926.03 2071.07 996.033 2073.07 1124.04 2074.07 1066.03 2076.07 1064.03 2077.07 796.026 2079.07 1099.04 2080.07 1022.03 2081.07 1081.04 2083.07 1101.04 2084.07 1097.04 2086.07 942.031 2087.07 1060.03 2089.07 964.032 2090.07 1093.04 2091.07 1102.04 2093.07 1267.04 2094.07 1033.03 2096.07 1129.04 2097.07 1054.03 2099.07 1081.04 2100.07 909.03 2101.07 1046.03 2103.07 1066.03 2104.07 1054.03 2106.07 1111.04 2107.07 1075.04 2109.07 1131.04 2110.07 1108.04 2111.07 935.031 2113.07 1122.04 2114.07 1043.03 2116.07 980.032 2117.07 1127.04 2118.07 1007.03 2120.07 905.03 2121.07 1057.03 2123.07 1043.03 2124.07 1044.03 2126.07 1087.04 2127.07 1176.04 2128.07 1001.03 2130.07 1007.03 2131.07 1079.04 2133.07 1079.04 2134.07 1088.04 2136.07 1085.04 2137.07 1015.03 2138.07 1065.03 2140.07 1090.04 2141.07 1021.03 2143.07 1053.03 2144.07 1031.03 2146.07 1007.03 2147.07 1054.03 2148.07 1062.03 2150.07 1034.03 2151.07 1051.03 2153.07 1039.03 2154.07 933.031 2156.07 893.029 2157.07 970.032 2158.07 1030.03 2160.07 661.022 2161.07 1048.03 2163.07 1021.03 2164.07 1012.03 2166.07 1061.03 2167.07 906.03 2168.07 971.032 2170.07 925.03 2171.07 1007.03 2173.07 1024.03 2174.07 1008.03 2176.07 919.03 2177.07 1067.04 2178.07 1007.03 2180.07 984.032 2181.07 976.032 2183.07 1001.03 2184.07 983.032 2185.07 925.03 2187.07 964.032 2188.07 950.031 2190.07 996.033 2191.07 913.03 2193.07 999.033 2194.07 970.032 2195.07 1007.03 2197.07 949.031 2198.07 894.029 2200.07 949.031 2201.07 968.032 2203.07 847.028 2204.07 1008.03 2205.07 980.032 2207.07 1023.03 2208.07 922.03 2210.07 934.031 2211.07 792.026 2213.07 913.03 2214.07 1062.03 2215.07 964.032 2217.07 942.031 2218.07 953.031 2220.07 1036.03 2221.07 928.03 2223.07 1020.03 2224.07 1044.03 2225.07 1003.03 2227.07 995.033 2228.07 998.033 2230.07 1009.03 2231.07 1014.03 2233.07 988.032 2234.07 876.029 2235.07 971.032 2237.07 1006.03 2238.07 927.03 2240.07 1004.03 2241.07 935.031 2243.07 1013.03 2244.07 883.029 2245.07 868.028 2247.07 920.03 2248.07 947.031 2250.07 984.032 2251.07 731.024 2252.07 993.033 2254.07 1074.04 2255.07 901.03 2257.07 1040.03 2258.07 967.032 2260.07 924.03 2261.07 887.029 2262.07 896.029 2264.07 946.031 2265.07 970.032 2267.07 905.03 2268.07 798.026 2270.07 907.03 2271.07 907.03 2272.07 897.029 2274.07 890.029 2275.07 892.029 2277.07 925.03 2278.07 931.031 2280.07 771.025 2281.07 903.03 2282.07 1002.03 2284.07 902.03 2285.07 892.029 2287.07 926.03 2288.08 914.03 2290.08 883.029 2291.08 884.029 2292.08 927.03 2294.08 893.029 2295.08 1125.04 2297.08 893.029 2298.08 809.026 2300.08 778.026 2301.08 822.027 2302.08 904.03 2304.08 869.028 2305.08 899.03 2307.08 899.03 2308.08 782.026 2310.08 839.027 2311.08 879.029 2312.08 878.029 2314.08 800.026 2315.08 884.029 2317.08 911.03 2318.08 960.031 2319.08 923.03 2321.08 799.026 2322.08 917.03 2324.08 905.03 2325.08 821.027 2327.08 898.029 2328.08 807.026 2329.08 886.029 2331.08 905.03 2332.08 808.026 2334.08 903.03 2335.08 779.026 2337.08 908.03 2338.08 801.026 2339.08 907.03 2341.08 754.025 2342.08 813.027 2344.08 805.026 2345.08 907.03 2347.08 777.026 2348.08 907.03 2349.08 939.031 2351.08 879.029 2352.08 903.03 2354.08 794.026 2355.08 904.03 2357.08 892.029 2358.08 800.026 2359.08 844.028 2361.08 794.026 2362.08 905.03 2364.08 816.027 2365.08 890.029 2367.08 853.028 2368.08 920.03 2369.08 904.03 2371.08 893.029 2372.08 842.028 2374.08 989.032 2375.08 782.026 2377.08 666.022 2378.08 677.022 2379.08 811.027 2381.08 889.029 2382.08 795.026 2384.08 917.03 2385.08 855.028 2386.08 651.021 2388.08 899.03 2389.08 790.026 2391.08 790.026 2392.08 824.027 2394.08 548.018 2395.08 865.028 2396.08 790.026 2398.08 761.025 2399.08 784.026 2401.08 781.026 2402.08 861.028 2404.08 890.029 2405.08 681.022 2406.08 788.026 2408.08 659.022 2409.08 668.022 2411.08 906.03 2412.08 683.022 2414.08 777.026 2415.08 960.031 2416.08 888.029 2418.08 978.032 2419.08 775.025 2421.08 667.022 2422.08 663.022 2424.08 899.03 2425.08 956.031 2426.08 719.024 2428.08 783.026 2429.08 772.025 2431.08 665.022 2432.08 782.026 2434.08 783.026 2435.08 664.022 2436.08 792.026 2438.08 896.029 2439.08 786.026 2441.08 916.03 2442.08 824.027 2444.08 593.019 2445.08 746.024 2446.08 941.031 2448.08 678.022 2449.08 545.018 2451.08 662.022 2452.08 785.026 2453.08 920.03 2455.08 775.025 2456.08 791.026 2458.08 665.022 2459.08 826.027 2461.08 1018.03 2462.08 661.022 2463.08 791.026 2465.08 896.029 2466.08 910.03 2468.08 820.027 2469.08 793.026 2471.08 895.029 2472.08 933.031 2473.08 668.022 2475.08 780.026 2476.08 665.022 2478.08 786.026 2479.08 912.03 2481.08 892.029 2482.08 922.03 2483.08 777.026 2485.08 882.029 2486.08 682.022 2488.08 781.026 2489.08 662.022 2491.08 659.022 2492.08 782.026 2493.08 664.022 2495.08 702.023 2496.08 910.03 2498.08 785.026 2499.08 662.022 2501.08 664.022 2502.08 659.022 2503.08 668.022 2505.08 795.026 2506.08 790.026 2508.08 777.026 2509.08 752.025 2511.08 784.026 2512.08 938.031 2513.08 664.022 2515.08 731.024 2516.08 680.022 2518.08 974.032 2519.08 787.026 2520.08 780.026 2522.08 665.022 2523.08 772.025 2525.08 665.022 2526.08 874.029 2528.08 778.026 2529.08 784.026 2530.08 776.025 2532.08 921.03 2533.08 665.022 2535.08 902.03 2536.08 781.026 2538.08 758.025 2539.08 825.027 2540.08 675.022 2542.08 790.026 2543.08 662.022 2545.08 903.03 2546.08 932.031 2548.08 774.025 2549.08 765.025 2550.08 666.022 2552.08 910.03 2553.08 668.022 2555.08 961.031 2556.08 798.026 2558.08 988.032 2559.08 780.026 2560.08 667.022 2562.08 793.026 2563.08 779.026 2565.08 790.026 2566.08 893.029 2568.08 895.029 2569.08 1000.03 2570.08 778.026 2572.08 1013.03 2573.08 782.026 2575.08 672.022 2576.08 782.026 2578.08 665.022 2579.08 783.026 2580.08 720.024 2582.08 784.026 2583.08 667.022 2585.08 795.026 2586.08 901.03 2587.08 668.022 2589.08 665.022 2590.08 797.026 2592.08 1000.03 2593.08 660.022 2595.09 778.026 2596.09 767.025 2597.09 670.022 2599.09 800.026 2600.09 780.026 2602.09 917.03 2603.09 856.028 2605.09 665.022 2606.09 916.03 2607.09 782.026 2609.09 669.022 2610.09 665.022 2612.09 661.022 2613.09 773.025 2615.09 893.029 2616.09 676.022 2617.09 658.022 2619.09 670.022 2620.09 571.019 2622.09 667.022 2623.09 667.022 2625.09 671.022 2626.09 683.022 2627.09 780.026 2629.09 645.021 2630.09 672.022 2632.09 820.027 2633.09 777.026 2635.09 775.025 2636.09 802.026 2637.09 793.026 2639.09 617.02 2640.09 749.025 2642.09 787.026 2643.09 661.022 2645.09 787.026 2646.09 783.026 2647.09 998.033 2649.09 789.026 2650.09 689.023 2652.09 927.03 2653.09 666.022 2654.09 816.027 2656.09 790.026 2657.09 702.023 2659.09 637.021 2660.09 794.026 2662.09 923.03 2663.09 679.022 2664.09 673.022 2666.09 806.026 2667.09 793.026 2669.09 783.026 2670.09 789.026 2672.09 783.026 2673.09 671.022 2674.09 747.025 2676.09 665.022 2677.09 815.027 2679.09 795.026 2680.09 861.028 2682.09 663.022 2683.09 702.023 2684.09 789.026 2686.09 558.018 2687.09 666.022 2689.09 1012.03 2690.09 695.023 2692.09 545.018 2693.09 786.026 2694.09 783.026 2696.09 569.019 2697.09 784.026 2699.09 914.03 2700.09 783.026 2702.09 773.025 2703.09 832.027 2704.09 968.032 2706.09 660.022 2707.09 663.022 2709.09 569.019 2710.09 548.018 2712.09 545.018 2713.09 622.02 2714.09 688.023 2716.09 654.021 2717.09 667.022 2719.09 669.022 2720.09 664.022 2721.09 957.031 2723.09 967.032 2724.09 546.018 2726.09 547.018 2727.09 667.022 2729.09 548.018 2730.09 904.03 2731.09 663.022 2733.09 788.026 2734.09 666.022 2736.09 783.026 2737.09 903.03 2739.09 672.022 2740.09 947.031 2741.09 920.03 2743.09 670.022 2744.09 781.026 2746.09 843.028 2747.09 807.026 2749.09 779.026 2750.09 668.022 2751.09 883.029 2753.09 783.026 2754.09 666.022 2756.09 747.025 2757.09 783.026 2759.09 665.022 2760.09 670.022 2761.09 668.022 2763.09 666.022 2764.09 869.028 2766.09 821.027 2767.09 659.022 2769.09 546.018 2770.09 550.018 2771.09 956.031 2773.09 911.03 2774.09 787.026 2776.09 960.031 2777.09 547.018 2779.09 547.018 2780.09 666.022 2781.09 802.026 2783.09 426.014 2784.09 667.022 2786.09 544.018 2787.09 646.021 2788.09 880.029 2790.09 673.022 2791.09 780.026 2793.09 775.025 2794.09 795.026 2796.09 552.018 2797.09 430.014 2798.09 567.019 2800.09 896.029 2801.09 860.028 2803.09 831.027 2804.09 499.016 2806.09 669.022 2807.09 543.018 2808.09 781.026 2810.09 557.018 2811.09 663.022 2813.09 425.014 2814.09 680.022 2816.09 550.018 2817.09 439.014 2818.09 783.026 2820.09 667.022 2821.09 677.022 2823.09 426.014 2824.09 800.026 2826.09 666.022 2827.09 700.023 2828.09 904.03 2830.09 905.03 2831.09 546.018 2833.09 666.022 2834.09 702.023 2836.09 668.022 2837.09 801.026 2838.09 834.027 2840.09 543.018 2841.09 670.022 2843.09 423.014 2844.09 424.014 2846.09 697.023 2847.09 544.018 2848.09 427.014 2850.09 540.018 2851.09 546.018 2853.09 782.026 2854.09 686.022 2855.09 422.014 2857.09 703.023 2858.09 546.018 2860.09 788.026 2861.09 679.022 2863.09 993.033 2864.09 964.032 2865.09 549.018 2867.09 932.031 2868.09 547.018 2870.09 545.018 2871.09 548.018 2873.09 408.013 2874.09 428.014 2875.09 548.018 2877.09 544.018 2878.09 665.022 2880.09 449.015 2881.09 424.014 2883.09 582.019 2884.09 815.027 2885.09 426.014 2887.09 831.027 2888.09 426.014 2890.09 680.022 2891.09 909.03 2893.09 673.022 2894.09 544.018 2895.09 550.018 2897.1 551.018 2898.1 667.022 2900.1 813.027 2901.1 682.022 2903.1 809.026 2904.1 551.018 2905.1 424.014 2907.1 658.022 2908.1 520.017 2910.1 667.022 2911.1 587.019 2913.1 600.02 2914.1 789.026 2915.1 550.018 2917.1 842.028 2918.1 551.018 2920.1 549.018 2921.1 552.018 2922.1 547.018 2924.1 552.018 2925.1 795.026 2927.1 429.014 2928.1 679.022 2930.1 795.026 2931.1 681.022 2932.1 546.018 2934.1 673.022 2935.1 547.018 2937.1 675.022 2938.1 429.014 2940.1 780.026 2941.1 763.025 2942.1 544.018 2944.1 546.018 2945.1 693.023 2947.1 669.022 2948.1 428.014 2950.1 426.014 2951.1 783.026 2952.1 840.028 2954.1 428.014 2955.1 674.022 2957.1 555.018 2958.1 552.018 2960.1 427.014 2961.1 681.022 2962.1 622.02 2964.1 660.022 2965.1 304.01 2967.1 549.018 2968.1 424.014 2970.1 304.01 2971.1 815.027 2972.1 664.022 2974.1 662.022 2975.1 426.014 2977.1 428.014 2978.1 304.01 2980.1 552.018 2981.1 521.017 2982.1 823.027 2984.1 421.014 2985.1 303.01 2987.1 305.01 2988.1 904.03 2989.1 812.027 2991.1 689.023 2992.1 503.016 2994.1 673.022 2995.1 679.022 2997.1 548.018 2998.1 678.022 2999.1 695.023 3001.1 428.014 3002.1 839.027 3004.1 543.018 3005.1 675.022 3007.1 303.01 3008.1 673.022 3009.1 803.026 3011.1 777.026 3012.1 428.014 3014.1 427.014 3015.1 425.014 3017.1 428.014 3018.1 307.01 3019.1 721.024 3021.1 429.014 3022.1 544.018 3024.1 428.014 3025.1 545.018 3027.1 425.014 3028.1 555.018 3029.1 817.027 3031.1 974.032 3032.1 548.018 3034.1 795.026 3035.1 563.018 3037.1 681.022 3038.1 426.014 3039.1 722.024 3041.1 426.014 3042.1 422.014 3044.1 716.023 3045.1 866.028 3047.1 427.014 3048.1 427.014 3049.1 551.018 3051.1 679.022 3052.1 689.023 3054.1 684.022 3055.1 795.026 3056.1 677.022 3058.1 549.018 3059.1 708.023 3061.1 687.023 3062.1 702.023 3064.1 552.018 3065.1 551.018 3066.1 674.022 3068.1 303.01 3069.1 553.018 3071.1 693.023 3072.1 804.026 3074.1 554.018 3075.1 885.029 3076.1 424.014 3078.1 744.024 3079.1 548.018 3081.1 552.018 3082.1 821.027 3084.1 421.014 3085.1 691.023 3086.1 867.028 3088.1 909.03 3089.1 426.014 3091.1 806.026 3092.1 303.01 3094.1 428.014 3095.1 428.014 3096.1 689.023 3098.1 547.018 3099.1 424.014 3101.1 424.014 3102.1 557.018 3104.1 427.014 3105.1 425.014 3106.1 427.014 3108.1 423.014 3109.1 554.018 3111.1 695.023 3112.1 657.022 3114.1 304.01 3115.1 425.014 3116.1 420.014 3118.1 303.01 3119.1 428.014 3121.1 553.018 3122.1 800.026 3123.1 548.018 3125.1 421.014 3126.1 426.014 3128.1 303.01 3129.1 303.01 3131.1 721.024 3132.1 304.01 3133.1 667.022 3135.1 545.018 3136.1 425.014 3138.1 429.014 3139.1 553.018 3141.1 426.014 3142.1 555.018 3143.1 765.025 3145.1 429.014 3146.1 429.014 3148.1 978.032 3149.1 422.014 3151.1 303.01 3152.1 714.023 3153.1 429.014 3155.1 429.014 3156.1 424.014 3158.1 743.024 3159.1 426.014 3161.1 833.027 3162.1 427.014 3163.1 420.014 3165.1 423.014 3166.1 698.023 3168.1 424.014 3169.1 426.014 3171.1 426.014 3172.1 422.014 3173.1 703.023 3175.1 690.023 3176.1 560.018 3178.1 427.014 3179.1 303.01 3181.1 706.023 3182.1 683.022 3183.1 679.022 3185.1 849.028 3186.1 303.01 3188.1 544.018 3189.1 552.018 3190.1 421.014 3192.1 425.014 3193.1 884.029 3195.1 550.018 3196.1 428.014 3198.1 423.014 3199.1 303.01 3200.1 571.019 3202.1 551.018 3203.1 554.018 3205.1 423.014 3206.11 729.024 3208.11 429.014 3209.11 665.022 3210.11 679.022 3212.11 429.014 3213.11 785.026 3215.11 303.01 3216.11 421.014 3218.11 864.028 3219.11 931.031 3220.11 428.014 3222.11 425.014 3223.11 428.014 3225.11 807.026 3226.11 899.03 3228.11 747.025 3229.11 936.031 3230.11 694.023 3232.11 741.024 3233.11 303.01 3235.11 563.018 3236.11 426.014 3238.11 558.018 3239.11 548.018 3240.11 914.03 3242.11 428.014 3243.11 929.031 3245.11 899.03 3246.11 833.027 3248.11 424.014 3249.11 850.028 3250.11 427.014 3252.11 939.031 3253.11 426.014 3255.11 700.023 3256.11 430.014 3257.11 795.026 3259.11 935.031 3260.11 914.03 3262.11 304.01 3263.11 303.01 3265.11 806.026 3266.11 819.027 3267.11 675.022 3269.11 837.027 3270.11 303.01 3272.11 932.031 3273.11 420.014 3275.11 934.031 3276.11 833.027 3277.11 303.01 3279.11 425.014 3280.11 935.031 3282.11 565.019 3283.11 303.01 3285.11 879.029 3286.11 725.024 3287.11 554.018 3289.11 800.026 3290.11 426.014 3292.11 556.018 3293.11 940.031 3295.11 914.03 3296.11 427.014 3297.11 801.026 3299.11 417.014 3300.11 304.01 3302.11 714.023 3303.11 564.018 3305.11 429.014 3306.11 429.014 3307.11 557.018 3309.11 553.018 3310.11 431.014 3312.11 418.014 3313.11 429.014 3315.11 681.022 3316.11 548.018 3317.11 832.027 3319.11 698.023 3320.11 843.028 3322.11 794.026 3323.11 305.01 3324.11 429.014 3326.11 803.026 3327.11 425.014 3329.11 546.018 3330.11 904.03 3332.11 420.014 3333.11 919.03 3334.11 806.026 3336.11 921.03 3337.11 555.018 3339.11 543.018 3340.11 818.027 3342.11 586.019 3343.11 798.026 3344.11 305.01 3346.11 678.022 3347.11 867.028 3349.11 803.026 3350.11 430.014 3352.11 798.026 3353.11 931.031 3354.11 841.028 3356.11 798.026 3357.11 673.022 3359.11 546.018 3360.11 538.018 3362.11 303.01 3363.11 428.014 3364.11 855.028 3366.11 919.03 3367.11 422.014 3369.11 812.027 3370.11 751.025 3372.11 797.026 3373.11 304.01 3374.11 923.03 3376.11 804.026 3377.11 815.027 3379.11 722.024 3380.11 424.014 3382.11 698.023 3383.11 542.018 3384.11 689.023 3386.11 811.027 3387.11 662.022 3389.11 717.023 3390.11 304.01 3391.11 428.014 3393.11 551.018 3394.11 786.026 3396.11 428.014 3397.11 800.026 3399.11 426.014 3400.11 303.01 3401.11 565.019 3403.11 802.026 3404.11 806.026 3406.11 427.014 3407.11 426.014 3409.11 759.025 3410.11 303.01 3411.11 430.014 3413.11 428.014 3414.11 777.026 3416.11 670.022 3417.11 870.029 3419.11 789.026 3420.11 564.018 3421.11 552.018 3423.11 799.026 3424.11 672.022 3426.11 692.023 3427.11 303.01 3429.11 425.014 3430.11 427.014 3431.11 809.026 3433.11 785.026 3434.11 424.014 3436.11 425.014 3437.11 428.014 3439.11 776.025 3440.11 551.018 3441.11 697.023 3443.11 674.022 3444.11 553.018 3446.11 426.014 3447.11 665.022 3449.11 705.023 3450.11 674.022 3451.11 422.014 3453.11 549.018 3454.11 547.018 3456.11 425.014 3457.11 303.01 3458.11 302.01 3460.11 543.018 3461.11 420.014 3463.11 542.018 3464.11 547.018 3466.11 552.018 3467.11 678.022 3468.11 551.018 3470.11 682.022 3471.11 549.018 3473.11 303.01 3474.11 550.018 3476.11 679.022 3477.11 303.01 3478.11 682.022 3480.11 681.022 3481.11 429.014 3483.11 553.018 3484.11 303.01 3486.11 558.018 3487.11 302.01 3488.11 675.022 3490.11 552.018 3491.11 428.014 3493.11 428.014 3494.11 430.014 3496.11 303.01 3497.11 427.014 3498.11 821.027 3500.11 547.018 3501.11 427.014 3503.11 572.019 3504.11 807.026 3506.11 428.014 3507.12 549.018 3508.12 426.014 3510.12 424.014 3511.12 667.022 3513.12 967.032 3514.12 544.018 3516.12 698.023 3517.12 424.014 3518.12 429.014 3520.12 712.023 3521.12 675.022 3523.12 557.018 3524.12 670.022 3525.12 553.018 3527.12 550.018 3528.12 428.014 3530.12 817.027 3531.12 552.018 3533.12 553.018 3534.12 703.023 3535.12 425.014 3537.12 429.014 3538.12 559.018 3540.12 544.018 3541.12 666.022 3543.12 429.014 3544.12 428.014 3545.12 303.01 3547.12 804.026 3548.12 426.014 3550.12 303.01 3551.12 423.014 3553.12 425.014 3554.12 778.026 3555.12 663.022 3557.12 424.014 3558.12 554.018 3560.12 663.022 3561.12 552.018 3563.12 683.022 3564.12 789.026 3565.12 726.024 3567.12 677.022 3568.12 559.018 3570.12 426.014 3571.12 556.018 3573.12 665.022 3574.12 554.018 3575.12 425.014 3577.12 722.024 3578.12 551.018 3580.12 672.022 3581.12 551.018 3583.12 432.014 3584.12 304.01 3585.12 429.014 3587.12 828.027 3588.12 303.01 3590.12 303.01 3591.12 303.01 3592.12 804.026 3594.12 765.025 3595.12 548.018 3597.12 303.01 3598.12 670.022 3600.12 425.014 3601.12 545.018 3602.12 423.014 3604.12 826.027 3605.12 544.018 3607.12 302.01 3608.12 877.029 3610.12 667.022 3611.12 723.024 3612.12 671.022 3614.12 879.029 3615.12 663.022 3617.12 707.023 3618.12 303.01 3620.12 674.022 3621.12 748.025 3622.12 426.014 3624.12 553.018 3625.12 559.018 3627.12 425.014 3628.12 303.01 3630.12 426.014 3631.12 429.014 3632.12 810.027 3634.12 424.014 3635.12 763.025 3637.12 427.014 3638.12 810.027 3640.12 545.018 3641.12 852.028 3642.12 423.014 3644.12 428.014 3645.12 422.014 3647.12 691.023 3648.12 426.014 3650.12 548.018 3651.12 551.018 3652.12 881.029 3654.12 423.014 3655.12 553.018 3657.12 545.018 3658.12 756.025 3659.12 556.018 3661.12 426.014 3662.12 302.01 3664.12 420.014 3665.12 806.026 3667.12 667.022 3668.12 303.01 3669.12 426.014 3671.12 677.022 3672.12 551.018 3674.12 795.026 3675.12 425.014 3677.12 430.014 3678.12 703.023 3679.12 692.023 3681.12 549.018 3682.12 426.014 3684.12 427.014 3685.12 425.014 3687.12 425.014 3688.12 757.025 3689.12 303.01 3691.12 426.014 3692.12 424.014 3694.12 304.01 3695.12 667.022 3697.12 426.014 3698.12 305.01 3699.12 428.014 3701.12 554.018 3702.12 429.014 3704.12 430.014 3705.12 570.019 3707.12 425.014 3708.12 546.018 3709.12 427.014 3711.12 681.022 3712.12 673.022 3714.12 775.025 3715.12 554.018 3717.12 854.028 3718.12 307.01 3719.12 548.018 3721.12 547.018 3722.12 303.01 3724.12 303.01 3725.12 702.023 3726.12 421.014 3728.12 302.01 3729.12 428.014 3731.12 552.018 3732.12 943.031 3734.12 837.027 3735.12 427.014 3736.12 427.014 3738.12 694.023 3739.12 423.014 3741.12 679.022 3742.12 809.026 3744.12 546.018 3745.12 807.026 3746.12 431.014 3748.12 675.022 3749.12 424.014 3751.12 424.014 3752.12 787.026 3754.12 426.014 3755.12 537.018 3756.12 430.014 3758.12 426.014 3759.12 423.014 3761.12 428.014 3762.12 427.014 3764.12 304.01 3765.12 696.023 3766.12 432.014 3768.12 657.022 3769.12 303.01 3771.12 428.014 3772.12 687.023 3774.12 421.014 3775.12 743.024 3776.12 561.018 3778.12 425.014 3779.12 425.014 3781.12 788.026 3782.12 548.018 3784.12 542.018 3785.12 427.014 3786.12 551.018 3788.12 424.014 3789.12 426.014 3791.12 565.019 3792.12 548.018 3793.12 428.014 3795.12 303.01 3796.12 427.014 3798.12 554.018 3799.12 809.026 3801.12 554.018 3802.12 424.014 3803.12 677.022 3805.12 550.018 3806.12 425.014 3808.12 655.021 3809.12 424.014 3811.12 551.018 3812.12 586.019 3813.12 716.023 3815.12 429.014 3816.12 424.014 3818.13 549.018 3819.13 707.023 3821.13 426.014 3822.13 426.014 3823.13 551.018 3825.13 550.018 3826.13 427.014 3828.13 426.014 3829.13 720.024 3831.13 302.01 3832.13 302.01 3833.13 756.025 3835.13 554.018 3836.13 426.014 3838.13 760.025 3839.13 551.018 3841.13 427.014 3842.13 556.018 3843.13 680.022 3845.13 669.022 3846.13 302.01 3848.13 554.018 3849.13 557.018 3851.13 427.014 3852.13 426.014 3853.13 424.014 3855.13 303.01 3856.13 547.018 3858.13 548.018 3859.13 426.014 3860.13 302.01 3862.13 721.024 3863.13 592.019 3865.13 551.018 3866.13 426.014 3868.13 717.023 3869.13 568.019 3870.13 801.026 3872.13 545.018 3873.13 554.018 3875.13 303.01 3876.13 430.014 3878.13 688.023 3879.13 425.014 3880.13 426.014 3882.13 864.028 3883.13 662.022 3885.13 898.029 3886.13 425.014 3888.13 691.023 3889.13 303.01 3890.13 302 3892.13 303.01 3893.13 553.018 3895.13 426.014 3896.13 754.025 3898.13 547.018 3899.13 763.025 3900.13 429.014 3902.13 429.014 3903.13 304.01 3905.13 776.025 3906.13 708.023 3908.13 303.01 3909.13 859.028 3910.13 776.025 3912.13 775.025 3913.13 427.014 3915.13 555.018 3916.13 305.01 3918.13 560.018 3919.13 668.022 3920.13 819.027 3922.13 302.01 3923.13 564.018 3925.13 427.014 3926.13 800.026 3927.13 424.014 3929.13 431.014 3930.13 571.019 3932.13 428.014 3933.13 559.018 3935.13 798.026 3936.13 800.026 3937.13 554.018 3939.13 554.018 3940.13 553.018 3942.13 425.014 3943.13 429.014 3945.13 691.023 3946.13 427.014 3947.13 427.014 3949.13 556.018 3950.13 428.014 3952.13 425.014 3953.13 671.022 3955.13 1005.03 3956.13 426.014 3957.13 424.014 3959.13 551.018 3960.13 555.018 3962.13 426.014 3963.13 430.014 3965.13 425.014 3966.13 545.018 3967.13 304.01 3969.13 796.026 3970.13 427.014 3972.13 549.018 3973.13 302.01 3975.13 780.026 3976.13 685.022 3977.13 424.014 3979.13 557.018 3980 549.018" stroke="#4472C4" stroke-width="10.3125" stroke-linecap="round" stroke-linejoin="round" stroke-miterlimit="10" fill="none"/></g><g><text fill="#595959" font-family="Calibri,Calibri_MSFontService,sans-serif" font-weight="400" font-size="41" transform="matrix(1 0 0 1 1565.67 1461)">-1200</text></g><g><text fill="#595959" font-family="Calibri,Calibri_MSFontService,sans-serif" font-weight="400" font-size="41" transform="matrix(1 0 0 1 1565.67 1270)">-1000</text></g><g><text fill="#595959" font-family="Calibri,Calibri_MSFontService,sans-serif" font-weight="400" font-size="41" transform="matrix(1 0 0 1 1586.57 1079)">-800</text></g><g><text fill="#595959" font-family="Calibri,Calibri_MSFontService,sans-serif" font-weight="400" font-size="41" transform="matrix(1 0 0 1 1586.57 888)">-600</text></g><g><text fill="#595959" font-family="Calibri,Calibri_MSFontService,sans-serif" font-weight="400" font-size="41" transform="matrix(1 0 0 1 1586.57 696)">-400</text></g><g><text fill="#595959" font-family="Calibri,Calibri_MSFontService,sans-serif" font-weight="400" font-size="41" transform="matrix(1 0 0 1 1586.57 505)">-200</text></g><g><text fill="#595959" font-family="Calibri,Calibri_MSFontService,sans-serif" font-weight="400" font-size="41" transform="matrix(1 0 0 1 1640.99 314)">0</text></g><g><text fill="#595959" font-family="Calibri,Calibri_MSFontService,sans-serif" font-weight="400" font-size="41" transform="matrix(6.12323e-17 -1 1 6.12323e-17 1714.7 1497)">1</text></g><g><text fill="#595959" font-family="Calibri,Calibri_MSFontService,sans-serif" font-weight="400" font-size="41" transform="matrix(6.12323e-17 -1 1 6.12323e-17 1766.02 1518)">37</text></g><g><text fill="#595959" font-family="Calibri,Calibri_MSFontService,sans-serif" font-weight="400" font-size="41" transform="matrix(6.12323e-17 -1 1 6.12323e-17 1817.34 1518)">73</text></g><g><text fill="#595959" font-family="Calibri,Calibri_MSFontService,sans-serif" font-weight="400" font-size="41" transform="matrix(6.12323e-17 -1 1 6.12323e-17 1868.66 1539)">109</text></g><g><text fill="#595959" font-family="Calibri,Calibri_MSFontService,sans-serif" font-weight="400" font-size="41" transform="matrix(6.12323e-17 -1 1 6.12323e-17 1919.98 1539)">145</text></g><g><text fill="#595959" font-family="Calibri,Calibri_MSFontService,sans-serif" font-weight="400" font-size="41" transform="matrix(6.12323e-17 -1 1 6.12323e-17 1971.3 1539)">181</text></g><g><text fill="#595959" font-family="Calibri,Calibri_MSFontService,sans-serif" font-weight="400" font-size="41" transform="matrix(6.12323e-17 -1 1 6.12323e-17 2022.62 1539)">217</text></g><g><text fill="#595959" font-family="Calibri,Calibri_MSFontService,sans-serif" font-weight="400" font-size="41" transform="matrix(6.12323e-17 -1 1 6.12323e-17 2073.94 1539)">253</text></g><g><text fill="#595959" font-family="Calibri,Calibri_MSFontService,sans-serif" font-weight="400" font-size="41" transform="matrix(6.12323e-17 -1 1 6.12323e-17 2125.27 1539)">289</text></g><g><text fill="#595959" font-family="Calibri,Calibri_MSFontService,sans-serif" font-weight="400" font-size="41" transform="matrix(6.12323e-17 -1 1 6.12323e-17 2176.59 1539)">325</text></g><g><text fill="#595959" font-family="Calibri,Calibri_MSFontService,sans-serif" font-weight="400" font-size="41" transform="matrix(6.12323e-17 -1 1 6.12323e-17 2227.91 1539)">361</text></g><g><text fill="#595959" font-family="Calibri,Calibri_MSFontService,sans-serif" font-weight="400" font-size="41" transform="matrix(6.12323e-17 -1 1 6.12323e-17 2279.23 1539)">397</text></g><g><text fill="#595959" font-family="Calibri,Calibri_MSFontService,sans-serif" font-weight="400" font-size="41" transform="matrix(6.12323e-17 -1 1 6.12323e-17 2330.55 1539)">433</text></g><g><text fill="#595959" font-family="Calibri,Calibri_MSFontService,sans-serif" font-weight="400" font-size="41" transform="matrix(6.12323e-17 -1 1 6.12323e-17 2381.87 1539)">469</text></g><g><text fill="#595959" font-family="Calibri,Calibri_MSFontService,sans-serif" font-weight="400" font-size="41" transform="matrix(6.12323e-17 -1 1 6.12323e-17 2433.19 1539)">505</text></g><g><text fill="#595959" font-family="Calibri,Calibri_MSFontService,sans-serif" font-weight="400" font-size="41" transform="matrix(6.12323e-17 -1 1 6.12323e-17 2484.51 1539)">541</text></g><g><text fill="#595959" font-family="Calibri,Calibri_MSFontService,sans-serif" font-weight="400" font-size="41" transform="matrix(6.12323e-17 -1 1 6.12323e-17 2535.83 1539)">577</text></g><g><text fill="#595959" font-family="Calibri,Calibri_MSFontService,sans-serif" font-weight="400" font-size="41" transform="matrix(6.12323e-17 -1 1 6.12323e-17 2587.15 1539)">613</text></g><g><text fill="#595959" font-family="Calibri,Calibri_MSFontService,sans-serif" font-weight="400" font-size="41" transform="matrix(6.12323e-17 -1 1 6.12323e-17 2638.47 1539)">649</text></g><g><text fill="#595959" font-family="Calibri,Calibri_MSFontService,sans-serif" font-weight="400" font-size="41" transform="matrix(6.12323e-17 -1 1 6.12323e-17 2689.79 1539)">685</text></g><g><text fill="#595959" font-family="Calibri,Calibri_MSFontService,sans-serif" font-weight="400" font-size="41" transform="matrix(6.12323e-17 -1 1 6.12323e-17 2741.11 1539)">721</text></g><g><text fill="#595959" font-family="Calibri,Calibri_MSFontService,sans-serif" font-weight="400" font-size="41" transform="matrix(6.12323e-17 -1 1 6.12323e-17 2792.44 1539)">757</text></g><g><text fill="#595959" font-family="Calibri,Calibri_MSFontService,sans-serif" font-weight="400" font-size="41" transform="matrix(6.12323e-17 -1 1 6.12323e-17 2843.76 1539)">793</text></g><g><text fill="#595959" font-family="Calibri,Calibri_MSFontService,sans-serif" font-weight="400" font-size="41" transform="matrix(6.12323e-17 -1 1 6.12323e-17 2895.08 1539)">829</text></g><g><text fill="#595959" font-family="Calibri,Calibri_MSFontService,sans-serif" font-weight="400" font-size="41" transform="matrix(6.12323e-17 -1 1 6.12323e-17 2946.4 1539)">865</text></g><g><text fill="#595959" font-family="Calibri,Calibri_MSFontService,sans-serif" font-weight="400" font-size="41" transform="matrix(6.12323e-17 -1 1 6.12323e-17 2997.72 1539)">901</text></g><g><text fill="#595959" font-family="Calibri,Calibri_MSFontService,sans-serif" font-weight="400" font-size="41" transform="matrix(6.12323e-17 -1 1 6.12323e-17 3049.04 1539)">937</text></g><g><text fill="#595959" font-family="Calibri,Calibri_MSFontService,sans-serif" font-weight="400" font-size="41" transform="matrix(6.12323e-17 -1 1 6.12323e-17 3100.36 1539)">973</text></g><g><text fill="#595959" font-family="Calibri,Calibri_MSFontService,sans-serif" font-weight="400" font-size="41" transform="matrix(6.12323e-17 -1 1 6.12323e-17 3151.68 1560)">1009</text></g><g><text fill="#595959" font-family="Calibri,Calibri_MSFontService,sans-serif" font-weight="400" font-size="41" transform="matrix(6.12323e-17 -1 1 6.12323e-17 3203 1560)">1045</text></g><g><text fill="#595959" font-family="Calibri,Calibri_MSFontService,sans-serif" font-weight="400" font-size="41" transform="matrix(6.12323e-17 -1 1 6.12323e-17 3254.32 1560)">1081</text></g><g><text fill="#595959" font-family="Calibri,Calibri_MSFontService,sans-serif" font-weight="400" font-size="41" transform="matrix(6.12323e-17 -1 1 6.12323e-17 3305.64 1560)">1117</text></g><g><text fill="#595959" font-family="Calibri,Calibri_MSFontService,sans-serif" font-weight="400" font-size="41" transform="matrix(6.12323e-17 -1 1 6.12323e-17 3356.96 1560)">1153</text></g><g><text fill="#595959" font-family="Calibri,Calibri_MSFontService,sans-serif" font-weight="400" font-size="41" transform="matrix(6.12323e-17 -1 1 6.12323e-17 3408.28 1560)">1189</text></g><g><text fill="#595959" font-family="Calibri,Calibri_MSFontService,sans-serif" font-weight="400" font-size="41" transform="matrix(6.12323e-17 -1 1 6.12323e-17 3459.6 1560)">1225</text></g><g><text fill="#595959" font-family="Calibri,Calibri_MSFontService,sans-serif" font-weight="400" font-size="41" transform="matrix(6.12323e-17 -1 1 6.12323e-17 3510.93 1560)">1261</text></g><g><text fill="#595959" font-family="Calibri,Calibri_MSFontService,sans-serif" font-weight="400" font-size="41" transform="matrix(6.12323e-17 -1 1 6.12323e-17 3562.25 1560)">1297</text></g><g><text fill="#595959" font-family="Calibri,Calibri_MSFontService,sans-serif" font-weight="400" font-size="41" transform="matrix(6.12323e-17 -1 1 6.12323e-17 3613.57 1560)">1333</text></g><g><text fill="#595959" font-family="Calibri,Calibri_MSFontService,sans-serif" font-weight="400" font-size="41" transform="matrix(6.12323e-17 -1 1 6.12323e-17 3664.89 1560)">1369</text></g><g><text fill="#595959" font-family="Calibri,Calibri_MSFontService,sans-serif" font-weight="400" font-size="41" transform="matrix(6.12323e-17 -1 1 6.12323e-17 3716.21 1560)">1405</text></g><g><text fill="#595959" font-family="Calibri,Calibri_MSFontService,sans-serif" font-weight="400" font-size="41" transform="matrix(6.12323e-17 -1 1 6.12323e-17 3767.53 1560)">1441</text></g><g><text fill="#595959" font-family="Calibri,Calibri_MSFontService,sans-serif" font-weight="400" font-size="41" transform="matrix(6.12323e-17 -1 1 6.12323e-17 3818.85 1560)">1477</text></g><g><text fill="#595959" font-family="Calibri,Calibri_MSFontService,sans-serif" font-weight="400" font-size="41" transform="matrix(6.12323e-17 -1 1 6.12323e-17 3870.17 1560)">1513</text></g><g><text fill="#595959" font-family="Calibri,Calibri_MSFontService,sans-serif" font-weight="400" font-size="41" transform="matrix(6.12323e-17 -1 1 6.12323e-17 3921.49 1560)">1549</text></g><g><text fill="#595959" font-family="Calibri,Calibri_MSFontService,sans-serif" font-weight="400" font-size="41" transform="matrix(6.12323e-17 -1 1 6.12323e-17 3972.81 1560)">1585</text></g><g><text fill="#595959" font-family="Calibri,Calibri_MSFontService,sans-serif" font-weight="400" font-size="64" transform="matrix(1 0 0 1 2691.57 227)">reward</text></g><rect x="1536.5" y="132.5" width="2495" height="1457" stroke="#D9D9D9" stroke-width="3.4375" stroke-linejoin="round" stroke-miterlimit="10" fill="none"/></g></svg>